<mxfile host="Electron" modified="2024-02-13T23:35:48.505Z" agent="Mozilla/5.0 (Windows NT 10.0; Win64; x64) AppleWebKit/537.36 (KHTML, like Gecko) draw.io/21.2.1 Chrome/112.0.5615.87 Electron/24.1.2 Safari/537.36" etag="GOvCeV2U9d4u4JVtAcbZ" version="21.2.1" type="device">
  <diagram name="PÃ¡gina-1" id="JTcsPI-aWTV-ohjCzZ5o">
    <mxGraphModel dx="979" dy="567" grid="1" gridSize="10" guides="1" tooltips="1" connect="1" arrows="1" fold="1" page="1" pageScale="1" pageWidth="827" pageHeight="1169" math="0" shadow="0">
      <root>
        <mxCell id="0" />
        <mxCell id="1" parent="0" />
        <mxCell id="DwnDVQrleK8puIl21w_7-21" value="" style="group" parent="1" vertex="1" connectable="0">
          <mxGeometry x="400" y="190" width="300" height="190" as="geometry" />
        </mxCell>
        <mxCell id="DwnDVQrleK8puIl21w_7-11" value="" style="rounded=0;whiteSpace=wrap;html=1;container=0;" parent="DwnDVQrleK8puIl21w_7-21" vertex="1">
          <mxGeometry width="300" height="190" as="geometry" />
        </mxCell>
        <mxCell id="DwnDVQrleK8puIl21w_7-12" value="Conversor de temperatura" style="text;html=1;align=center;verticalAlign=middle;resizable=0;points=[];autosize=1;strokeColor=none;fillColor=none;container=0;" parent="DwnDVQrleK8puIl21w_7-21" vertex="1">
          <mxGeometry x="65" width="160" height="30" as="geometry" />
        </mxCell>
        <mxCell id="DwnDVQrleK8puIl21w_7-13" value="" style="shape=image;verticalLabelPosition=bottom;labelBackgroundColor=default;verticalAlign=top;aspect=fixed;imageAspect=0;image=data:image/x-icon,AAABAAEAAAAAAAEAIADJRQAAFgAAAIlQTkcNChoKAAAADUlIRFIAAAEAAAABAAgGAAAAXHKoZgAAAAFvck5UAc+id5oAAEWDSURBVHja7V0FmFRVGz7bDRt0x9IlIR1Lx9LdIIgoJZJigoAdCDZSFoh0iRJ2U9avYCFdCorS8P3nvfcM7u7ce+6d2ZndifM+z/egu3vv3Jk533u+8yVjCgreRxyXKlwGcZnHZTOXvVxOcTnP5TKXv7kc4bKDy3IuM7l05FKMS5j6CBUU/A9luIzgspLL71z+4UI25RqX01z2cJnDpS2XRPWRKij4PipxmcHle7G7kwfkLy7vcBnAJUl9xAoKvod8XMZx+dFDSm8kODJs4tKGS7j6yBUUfAP1hGJe8qLyZ5STwk+QX330Cgq5B+zCg7n8nEOKn1GucFnHpar6GhQUch7RXO5gurOOclG+5NJAfR0KCjmHSC7TmGuefYrLk5dKVKhC9dp1oQ43jaYeY++k3nfcQ11HTaKWfYdStUbNKV/R4hQRFe0qCXyjSEBBIWcQymU002P3lsoZHhFJqTfcSH0m3kezVm6nxV8foeW//kNrjlyl9SeINpwkWnecaOXBS/TGvjP0/Kd7aeLzb1CLPkMoX5FirpDAF1yqqa9HQcG7QILOcSuFDAkJpfI169Lox1+iRVzpoeTroewndIVfeyyLHNd/DlLA3608eJHmbN1NnUfeQYn5C9olgQ1cCqivSEHBO6jAZaelqZ83kZv3U2nBzgOaQkPpnRTeSgRhrD58WbMcajRpyUklxIoArnJ5iEuE+qoUFDyLKC7PWyl/geKlNBN+1aFLmvLLlHyd2PXXHrcmgkVfH6b2Q0dRRGSUFQkgxbid+roUFDxv+ks9/oVLp9L0pZv/U2wDhXec+9ccvUpv7T+n+QNWHrio/W7DSXNrAdct++WsZlnYIIF3mZ6YpKCg4AHk4bJepnTJBYvQPa+skyrwit/P01NbdtHIh56l9GFjqFHnXlS/fVdK6zmIet1+F019eQUt3H1QJwuD++Bnb3ISSB8+lkJCQ2UEcIHLTeprU1DwDDozidc/MiqaRsyea2rmrz58hWavfp/SegykpIKFKdREeSOjY6hU5eo0cNpsWrDrgCEJgEiWfHuUajVvZ2UFvMclRX11CgrZA2L+r8iUrVHn3rTs57+dzH4o8NKfztCAqTNd8eRrzr6KdRrSjOXvGlsT/Kjw0NqPKLlQUdl9/hHEpaCgkA1UZno5r6GiJRUoRI9s+ERTyqw7/+t7/6T2Q2+j8IgIt7L8kBQ09eW3DEkAeQRIJLK4x4tMFQ0pKGQLI5med2+oZG0H3aJ5/DN68qH8Kw5coO5jplJoWFi2Un0LFC9Js1a+5xRRwP/P++A7KliitOz6H5jeVERBQcENIJ7+spmCxSbkpRlvvuu0+0M571ywgv8+j0fy/as1TKPF3xx1OmKsOnyZ2g0eKbsWfgsVElRQcBMIpe0wU7CKdRrQq/87lUkx8d+v8Z8hr595qOAHVsTNM+c4EQCIZ9rCVRQVEyu7/i71NSoouIeKXI6aKVenEbfTmqPXnJTyzgUrrZSSouISqEilmlSqTlNKLlaGK3m49O8r3tiQk83JzGTDLY2XvvyVCpUsI7t2gfIDKCi4B3Te+ctIscK4wiLPf8OpzLvy6iNXtEo/mTIXqlCDus9cSGNW7KZxa76jW179mBoNmUhR8XkklYSJWkpwxuMGyADRh5rN28pebwuXvOqrVFBwHf2ZnlTjpFgxXFmR9ZdVIeH5r1K/qalCJuQvQv2eXEFTth6kye/up0lcJm/5nSZs+pnq9xtjmuCD0ODNs552Ihz4AdoMHCEjgN1MdQ5SUHALNzOTxp4JSSn02KbPM3nnYZKj8q9wqVRThazappem7JPe4cr/zm/XZfKWA3TTS+9SfIp5vkD30VMMcw3wcwkBoAV5YfVVKii4jjFMb9HtpFh58xWgp7ftcSKAl3f+TimFzRN0Gg4ar+3+GZVfIwBuCYxavoPyl65oei3ShxH/z0gAsAj6TrxPRgAHmAoFKii4hXEyApj73jdOBDB/x35phl5jftY3I4DRy3dSgdQqptd2GDqKVhsQQL9J02UEcDAbBBDDpRyXG7nUdUNwXSrT26cpKAQHAaR4kQDW5BwBoNnoa+L6U9kQWCBLmD4vQUEhW8BCbsGlGcuZzjfBSgBFuGxjnm1eisEmBdUSVgCQYVec6R12km38PeLYmK23h+lhOdTlf8olnUuIIgCPE8BwJkl/dlMuMn2ykUKQoxTTh2Silz6SbD7hMpDpVXdmwGw8oz58P3GpbeM1SzO9Mq4bl7IukEawEsBs5p0W5vep5R/cSOTylsHCwI7eV2ItLJAsqgckrxcmdp3vuPwrBKO7RjB7ffOClQDGe0H50a/wVqUCwY0uQgmNFgjOnEYZa/jZFsnCekViPTThcpgZ983roAjAFBhn/oOHCQCzC8orFQg8oE9+ArMX6pkkWSDHmHFfe1gN2yXXvc70hp1ZATP/Scl1821YAcEcBUAPRHRAPsf0ZCh3BYT/pTjGKQQYcP5+isvbXN5geupsrOTvRzDzkdnnTY4B7hIArvtAch3m6sVbvL8xQUwAQAku3cX35o4gk7IrU4lIAYkmBmbiv8LRY7azNubyp2SxzvIgAVQyMf8d8hKTV8mBHB4xuz5ICEBBwRBxXFaaLLgTXJqaXIec9O8li3WVgQUBH8BWN3wAPYX5anTNNWHemwFHkbVczioCUFAwNg33W5yvjZQSqaUrJNd9zpw72eI+SyTXPGTyjPdLrkHUIc3kunziSCN1aikCUAhmYEH9Ill0R5ieC26EeyTXbTQ5l3dhxkM5kGba0MQBOFfyOggFFjV5PvTTv6gIQEHBHNHi7C1beHOYHoc3chz+yoyHWYwweT1YAaOYnvhzTvgaEFbqw/QohBHGW/gNjKIWsD7eYzbCWooAFIIdCBPJRmTvY3oGntHu3Ef4AqD0iAogI/ABJvfKQ9ERR+4hLIJSFs+HjL8vmHG40axRZn+J30ARgELAowaXaVye5nK7UCIzYFzWBsnCg7e/keT6VKFww5heNhrphfeDY8hqQTAnmV4/0MvEMsH72cRsJrYoAlAINHQWu3bGxYMEjvqSa/pIdkyE4Cr7wPuCVYHMtppMPjCzmrAOFAEoBKVTz2zu/cdcyphcl8TMh2bOZ/7VCKK2sBIUASgEHToxfZacLNaeV3Js2CT8AZe4nOGyzOT878tA48zPFAEoBCN6WTi/EBbDgAmzzDnU9CPXGyG0luI87a+fwzFFAArBBpzVf7NY9KjHTwvwzyFMEBksHtQRINX5miIABRYEC/8uYcLLFtNjQfJ5oLYAFY5TFAEoBAsSmXVyzyJmr5GGO0ANQAFhjbRieiOPsUzPHHxQkM8T4t/ZgrBGMz2U2JzpY7xwjo/x4DONDQACOJRNAkB4Nl4QoqsS78X1ouAFpFo4wqZ58LUShLL3EQqN4qKvmR6zhyPxgpnyscxdZs6Lv0f68S4uy7lMZHq9QnbhF/0ABkydKfuM9jPztGcZoLxo1YY6DOR7bHRDNohNox+Tl4kr5ADgmIMn36ofHs75PxssJEzJrZDNZ0DYEGXE93LZLHan88w7/edQQVgu4AngJNH4ea9QeESE2XUfCOvOFcCKetSD3w1St2cx47JtBS+jmFC4d4RSzLahGC0Fex8WZ0j08avr5uvDBKwqztPvM3k/AE/L48w46y9gCACjwhbuPkSV6zcxa7Iy0o333U5YVZ78Lv5gekt3hRwE+rCvNvgyvhJKbmWigyiQDhzn5pkeXzgab/xuw5z3hqC8OLlSiXhGW9oHJAE4SOCJd76iOq3SKSEpmcLCw7Hj/iRI1x3T+34vfR93KpXMWYwW52SjLwNKOYx5Pgcf2X+tmZ4M9EcuKP1/I7Wjw76b1Kt0KowA2tJBl22dGG1NDygCcLz20n1n6JH1n5zvMnICHKdIxAp18zv0FgFMVSqZc4DpvdDiC0H23nQ3d/iswGKrLV4zVxXfIbd2LHHh4tvtPqWtHWZy5W/KJQ+9204ngnfSGb2bHjAE4LAE1p+ks5v/oo7j5y3JznfZhhn3X8iOnGKBn0fiU8DZ9wUbXwzOidnt115I+Bl+98RiCQsNwe5NyQkRVDglikoXiqWKxeOJm/JUoXgclSoUQ4WToyglTyTFx4Rpf5/1Hg0qJ9J385sQbUsnrvCQP7m8w2UklxK0q4VOBFt1CQQCEPLP2qPUmf+bXSvuQWbewt1VOSs2GuUEzGGgy66d+vbtzDzX32rXh7n/nuSoYZ1WGxdO5YvFUcf6BWhs11L02C2VaOndNenjOQ3op8XN6PCyFnR0eUs6xuXomy3p0NIW/Odp9OUzjWj9zDr0wu1VaUqfMtS7WWHq0rAg3TcwlfYuakZcsR3Kn1Euc/may11cUmljR+1I0LZ2/oyWU6I4Go0NUgJgwirE+nmZ6b0a3RX4gHoyz+ZnKNgEYrnojX/BQgl/FLu4K4CSIC/gmKsKHxoSQoWSoqhtnfx0z4BUWjW9Nu1+oTH9+mpzOrmiFZ3b0JauvdtB370hW9N1Zb4u6f/9DrJd//25jW3pn/VtdUX/b+c3k2tcvuMykd+vCFddvKdGYsEidIbehZuDmAAcCBeORHclXKlh7pPAZHEGk01udaWAB9EBzAG4xFxzylHDKkk0fXA52vpoPfr5lTQ69lar63JmTRu69HZ7K8U1FwdBuHbdFU4WH9/TP3UmM85/oCAnAIUA8Qf0Zs4NPxzns0Eu3Au75GeuKH5ifAR1bVSQlkypQT8sbMZNeV3hYdYf4Sb9iYy7/pYcFk4YZ9e1oU78+OHSsUURgIIfAt191jC9dz+8vBiaeRuz37gDXYP22lWS+Jhw7Uy+jJ/nYd4fz6D0EJznT69uTZc3t895xb9OAOn022vNqXj+aEUACkEBJPjUYvqUHmQJ2hmVHSIcQodsnfFDQzQv/IKJ1egXbuZnVXwIHHrYeXNl189CAAfeaEFlCscqAlDwWyC8goKP4sx63p2rgPIPsOvsy58YSZN6laE9LzYxVHwIfn5uY7vcVfwMR4ALm9rR0LbFFAEo+CXQ8BIubKR+7mf6SCvs1skeuj+65ByxoxQ3VsirmfuHlrXQdvisiu8470PhfEL5M1gB385vQo2qJCkCUPArYMc3GmSB2D8KfwYz51FbrqA1k48A0yQiPJR6NS1Mn89rqDn3jBQfghDfxbd9TPkzkAByB3o1K2yYWMT8LRNw7hKlHUEAWa6/Y9oOYtn13Lg32mh/be3oC6OJPUvT3sXNLJX/kq8qv0O2pdOpla1pcu8yFBMV5lcEAOV/Q9QCdB55B7IyS7PsVUIq+DhwNn/GpsmKgRiuNMgoIojDMrz34LAK9PvrzQ3P+hnN/ou+rvwZLAGEJB8aXkHLUPQHAtCqATd/SbVbdqD4xOvVgMhpQPFNnFKVwMUsmwRwhemVf3aAlM15zKJ8F3n6T9xaiQ4ubSFVflgF5zf6ifJncAwiNDmBWza+TgDX+wHUa+KtOg8FH0Zjuw46ppd42sFQpicHSXP3H72lopaTL1N+/O5fR2quv8l76TRvdBUKCfH9tuAWHYE+ZK53BFLwE+CMd7MNRx0sgOE27led6a2wTe8VExlG9w0sp8XOZcoP+WutD8T53ZXt6fT0qMp+QQBe6gmo4CdARR4Se+ZwOWCyCJC6W9LiPjgrLmEWCT63pJfQsvqslB/OtCvvtPdP5fczAvByV2AFP7IG4LlHHzzk/P/F9AIgdGe1088PuQOy8WDUpnY++mZ+Ey2XX6b8OPdf3NTOf5U/sAggO3MBEElA1+ZRXMa4Ibiul43NR8HDRIA+fuitX9/m+Q9e/09kyp9aJJa2PFJXGupzyN/r2vi38isCALqKMPB5EWp2V3A92rWnK9X0XUwUfgLDRRQbFUZzuDJYmf1avN/fTX9FAAC6ONsu+rIpKDyroFTN9wAz7xvZl4dOOyjqsSIA/P7chnb+r/yKAO5gnu/ReE0cCRQ8ABT/RHvoXlOYJJuwZMEY2vJoPVum/5+rW/uv118RQEbMZt5p1HqfUt3sIb9wrqAbz1IuD3DpLkwrd0ZyIzy0U+b1v7NvWUvFd+z+5zcFyO6vCABj3i97WPkxYr6/UuHsKf9Sg7P6v+JLRvHPVBdjvsgONG3rVbVUAn31bCNLrz/kj1UBtPsrAijM5V0PE8AmsYYV3MRtMkddBsEkIDsNPtE3YD2TtOZG7z47jj/t7L8xgHZ/RQBAJS6LmZ5IdCIb8hvTOwuXVyrsPtCi+lWbTIvz/Fgb90Rvv5Nm96lQLE4v77Wx+6PS72ogeP4VAWQF/ExluNTgcoMbUkM4mdU8gBwkABJ/azXya7rsHuO6lbJ19tfj/m0DS/kVASj48REAgpnsEZJ7oVvQR2bX58sbSRtn36i17rJSfnT+8ZtSX0UACn6MfFxes0ECF5l16W8DJpkTgIEdP9uI+wek808RgIKPkwDquzG1BplaZ5hzB6AXmXX6LxI9rpmF/mbfVMHW7g85G4jmvyIABR9HjPhSW3KZwOV5Ls9xGcisZ/xFiTwCwwVTIDGStjxiL/EHFsKFTe0UASgCUMhlhDH7/d8QIvzWbME0qZasNce0Y/6j1deVQPP+KwJQCHCgQvAPswUzuktJbWKPHfM/oFJ/FQEoBAkGCUeh02KJjAilZ8ZW0XZ2e+G/NoGp/IoAFAIY05mk0efmh+zV/MNKwDhuRQCKABRyDmj/FSkEcX7MXg9x4Xpcs8BssZQrGkd7Xmxs6/wfsPF/RQAKPgh49jGfD3MAlghBfvVLXJ4W3v8kG/fBYNBNZoulWfVk2rfYngMQYcKAdQAqAlDwISQJRb/A5BOAQApW1VbII/iKSRp/aEM+3rQXAbiqCEARgILXMYJJSnZZ5iKg8Rb3QpnnPrN7jOxYwnYEAF1/r76rCEARgII3gaQdV4qAMBlYNgoKlVmHzK7HTDy7EYCATQFWBJAR8DEVFOsGjWbLuCBlxXUFxH0U3ADKMZe5QABvi3O+GdA56KjZ9fcOTLVNAAGdA6AIACjF5SmmN/M8nA1B0tljTJ9kreAGkOp7zSYBzLSICqDb6zGz62cMKW+bAE4rAghkAoCvaA3zbEeg5TYd1QpZgBZfG2x8wB9wKWdxryqKABQB2AAiThc9TADnuPRU6uweYD7dLUJ4HwrBuK8vuGzj8hCz13JJHQEUAdjBLOadrsD3KlXOHhKEGQVBU48UkSMQ6sK5ztQJOKmXcgIqAtAw2UsEME6pcO4ClYCmE18w+POICgMqAmCsNrOeOO2q/MylmlLB3EWKODYYfkk9mxai/SoRSBGAblEOEkp7NZuKf0VsOn2Ya2nrCl5AvMyh6EovABQMXd6sCCCAw4AhImo0ksu0bMgtXCor1fMNICFjvtliKVsklna90Fgr9FHFQCoRSMG3FRnmfHURWkHY5gZmL+PqXrPFkpQQQZtm32i/HHiDKgdWBKCQUwgRThQM/UAl4Ocipn9OxGzh3cfwxTiL+2A+m2FhUUR4qLbobTcEWasagigCUMgJwCkzlMuvTJ4VeJ7LcIt73cgkE4FQEHREtQTzHgEMnUR3vneEJm85kElACmNW7KaCqVUVASg4oS6XAza9rhuFs88MKM7YbXZ9g8pJ9MNC1RTUWwRQuVU36vngEuo+c2Em6TFrEXWc9jQlFi6hCEDBCdNcCLug3j+f5F7oJrTE7Pp8eSLttwVTbcFdJoCwiEiKjIkzlIjoWAoJDVUEoOCEh10gAFQPxljcb6xZfBcL/v7B5WwRQMDOBfQiAWRHFAEEL4Ywe01BjnPpYON+8AOcMLtPi5optG+xvdFgekagIgBFAAreBM7t65l5phX6/H/MpRezNyAkkelFRKbdgdc8UNv+cNBNajioIgAFbwNdVuZw+V5EA97jMo/pmVYNmZ4X4Aruki22WzuVoMPLWgbvfABFAAo+CLT1RoumImIXD83GvRBZMO0NUKZwLH08p4EtX8DJQIwGKAJQCHDEcllptnCw8Kf1K2vLAkBW4L+BlhXoJQKICA2l2PAwQ4kJC6PQkBBFAAo5BqQQm7YbL18sjj59uqEtKwD9AQLKGeglAuhZshi90awevdqkbiZ5rWk9eq5+LSoVH6sIQCFbCGH2JwXjOPGZqRXAZXz3UnTIhi8AEYPzG9spArAggHtqVKbzg3rQ3wO6ZZJ/Bnan33p2oBpJib5IADh6RrohEUodcw7wCXTl8iSXF7jcyvQGIFYYKyIJhguoSEo0bbRZIBRQVoCXCODu6pXo7MBudLp/10xyZkBX+rlHe6qelNdXCAAt6dsxvaPvIvbfRCpXBNc9wqW1IAQFLwDTgDAa7B0uZ7OEB9dxKWlxPRbHDpnzqVODArbyAvD7gPEFBDcBQFmRfXraQw5MhKknKovAs4gWZ3g0CD3P5K3CraIFo5gk0SgqIpQeGl7BlkMwYCICwU0AaUxSMOamHBPhagUPAAo9LsuObyYfMet+7LAitsnuU6JADK2fVcfWUeCvQCgTDm4CuId5pynoZKW6ngHGLu21+aGjb4CdJCH4D87I7tW4WjLtfL6xJQkcC4QioeAmgBleIoC7lOp6Bu1t7v4QZAva6RSEI8VzsnshKjCgZVFbI8RPrvTzo0BwE0AXLv94WPnPCKeiggeQZrVbC/mSudaKGYND9sjuia5Bd/QoTftfa25JAmfWtPHfhiHBTQDoJ/E8l8seUn74l55mevKZgoc8/x9YfOnY+d3pxtrLyvsbGx1G9w0qRwfeaCElAfzu7Ho/jQq815HmjakSzGFA+I3GiEjSh9mQNVxuY/oAGwUPoiWXr9l/LcLwL/q4P8qlJnN/JDNCQA/KcgMgCTHhNH1wOX2OwHK5P+CcvyUIbU3Xkppu62TenScICMCBOPbfNCp3JE6pqveAeYBI5HlE/FuZZa9AyAE4DVdamXZx3BJAvcAvr6RxRTd3DKKs2G+cgtvStaPL1D5lKDYqTBGAQtCikoggSEkgOjJUGyn23ctNpdEB9A/0+b4BXPkPLW1Bw9oVo4jwEOn7VgSg4I9+A3QCusGF81gjLj9akUBYaAi1r5uf3n+ivmYJHJWQgE9aAlt1+fLZRtS2Tn4t2mH1nhUBKPgLkH7Zl8unXE4xvW0Yxow3cSHk+Jsdb2+VkvE0f0I1+v31FqbWAI4DPlU0xHf9cxvb0pIpNbTqR7uebUUACv4AOGEeMAkZ7hFmvh105fK7LcWIC9eOBJ/Pa6hbA8uNHIOt6N/1bXM3RCh2/e/50WVEh+IUHxPmUmhLEYCCr6MclzeYPJZ7pwv368jlJ7sKUq10Aj0xspI2YwC7flYiwP8jZTjHR4xv1Xd9HEcQ5qtUIt6t2LYiAAVfBqa6fmRjIb/I7PcOABB63G1XSVBE1OKGFHqZHwswdRhEkHXwKEqIL73dPkdCe1B8vN4bd91AaTVStKQm5mZyiyIABV8F6rgX2FzIM9y4P3IMtriiLAgXotU4dtzdLzSmw8IX4LAK8N//8COBx3sJiN3+Gv9vJC3Nv6OaRkgxUWHZzm5TBKDgq8CX/bONRfyriAq4+xpoOnLeFaWBRVC5ZDyN61aK1syorY8gEwQAOb26dfZGjguFRxov/v/Uyla07dF6NKVPGapeJsEytKcIQCEQUMKGw+4Xpqf8hmTjdZDhNdpuhCCrJMZHUIPKiTSWk8GiydXp07kNae/iZppF8I/DQbgt/T/ZmkEy/ny7Llc2t9cSeHDUeOveWjSpVxltziGckm4qOZykm5nJBCVFAAq+ChRyrJEsCNQQNPLg6zXgspbpI8rdUjZk3BXLH01NqyXTkDbF6N6BqfTC+Kq0YVYd+urZRlr1IYqPDi5tof0LJcfP332kLr06tYbWrASRB5zrcZ9smvj/clnM/suyvKYIQMHf0JzLviwL4YJY2KW88HoIN6JByQ+eMrFxXEiIDad8eSOpcHIUFc0XTcW44N9C/P/x8zx8d8ffeeg1oegYrDqE/Ze/Pk4RgIK/oj7T6/u3c1nNZTiXPJK/R/FQPbHoxwsrwdVGjhWZ3pT0CPNOQwlvCfwh9zPn/omKABT8GlDqRGZdh43IwSShuI4Ff1woRawbr1lPOAkP+bjiw1mKQqoaJv6QYCcApI+ncemWDWnGXB9bp5DDuJnL3ybn4b5u3hMpyAgZPiyOBpd9ROkvCgcfyM2qejKYCSBN+IvOiHXgrqC3xDYP+50UPIhWXA5IFtCrwkJwF1Cw0lxGCOfkETPPuhflsniPy7gMckEhgpUAUpkLCV825Usv+Z8UsoFKwvEl++LWMs81dYgT5ja860uFo/JvLyj8NbFzYZLyK0yfoFyF6X0PXUGwEsAYs/edDbkiLE0FH0Gs2N2tvriHWfbyBcwAZUTOQlumt4teIExO5BWgJ/1ZYa6bLcSr4vd/i7//WTg8XxROTKQtF2XZm0gTrATwoJcssfuV2vkOkAV4wuIL+x+X6jn0PBHCYVmcS22mFx8NErvRVKb3qp/O5V4uU8TP8fsOXGqJRZ7I3G+FpgjgP9zqhWMajmFDldr5Djoxeetn9A7oabGDQ1kROosP0M8oWAkAZ/XPPEwAHzIVjvQpwEN/1OTLuiB2XbNKQbQax+DHX4RzDc69FooAAioKgFDuRnG8+jsbckL4kWorlfMtmA0CwYJ/XrKrlxRsnvU69Apo4KefRQFxnJjFZUKGY0+w5wGgdVwdpneF6uCGtBOKn0epm2+iMNMHNmAXPy0ccGgrnl9yzb2Sxfach8/gOQE0TtnAMtcygMy6KQJQCAbAS44U3qZCGWQjnFOFY9BssW1n/jUAIpKZj0P7RlhCVxQBKCjomMbk8eEVzDx1OEaYk5g7V5f5xsCIYsy8zRm81kcUASgo/Hf2/4bJwzwjJYo2n+n1Bf8KxxISdMp44TmRtZjG9FAhpBkzzwVAhqJb9QqKABSCDf2YHh2QpXoWNVFIMzP7FQtLIFYoMDL5ejM9cYhZ/D26IJ/K8Bogm/uFBWLk5NqiCEBBwRrjJOb/FfF7I6BB6WGT606I44AR4JlHReGf4v5oP4a05daSZ+wrLIysr4OsQrOcBtQoXFIEoKAgRwehSEaLbBfTk4KMgPCaWbcgJCJ1NrgGBUQzTAhnlzDdswLOy0USRVhkchRAJOQLRQAKCnLAXF5msMCQ7DFcct1jTJ5tWM9k99/DzGfNDzFxMr4lea1d4r5m1s0VRQAKCtaOwHlMzwA8xvThoTcx83JhJIC8y+SNNwuaOOcOM9cHmjwuuQa+gDom18G3sCOACaCoWroKnkKkIAKUEuez+Ft4+WUdis16DZRl8rZi00xeb6jkPH9JkJUZcBTZF4AEcFT4YRSCEBFCUduK3S+nY++1xM5rtjgnmVyXakEAZhZAHYvXe8TieVHjgBqIt5m8UMqfCABVfR8zPYqjUnKDCMlMr+U/wP4rykATjgo5+AxwDJp1CoZ3P83kunIWBDDV5DqkMO+UXDeXyXsbwM+BqMA3Vj4BPyKAjO3d1ojPPEypR2ADX/B0k0W8iul18zkBePPvZsb9AGH+mxUcWfkAJphchzqEZ5h5qHKEyXUghcZMrwm4YOcIkFSgMD33yY9OBPDCZz9RUsHCptfdW6OyhAA60A3JiabXthk4glYdvuxEAIPuetCVCMZRsTYKKzUJXBST7Lx/MXks3dPArnqfOF9j10fm3YvMuQV3VuvlM8lO1kVyLarPvjO4bj2XQgZ/DzKcyOR9EZ2keuMW9Ma+07Tu+H/KCDJ4bNPnlJCUYnrdQ7WrGRMAl996plODAubXNkzvQct/O5f5NU8S3fPqeoqJc2nKMY4F7zG9H2SIUpfAQ03JWRi7cU73ZoNFUopLQ+GTsNNkFGnF55hxj8Jki2sRWlwiiADe/UeZce4A+gQidOjSVCOY/3cuWJlJEbXdmCvj+HlLKDwy0njYSVgozW9Yh/4eYEwAR/p0ok7Fi5i+bslK1WjxN0czvS7+e9nPf1OrfsMoJMTl2Yc4Zt3BArehS9AC2XWnJKbwLX7wHpDWO04o8R/CcljM9JFddgCSQYgxn8GZF7seatV3uaIwkVHRVKNJS7r7lXW0+vCVTMq/liviyoOXuCLeZHp9clQkbWnTzJAAHDK2Uqrp9djl7311g7brZ3xtkMAr3x2nfpNnUOHSqa6SADIsFzDVsTegUE9CAJclZ2FfAxS1qHg/sBxiPHBPEMNtFj6GTBIRFaWZ/Hc88yq99sMfmc79GU3xx9/+glIKmzsAqyXlpb3d22vnfSPlP8uJ4cUGtSky1HzcWbMeA+it/eecrA/8/5qj1+jZj36gXuPvpkIly7pKBNuF5agQAKhvQQDDg/RziRVOybN2FaNU5eo0+vGXuOKf0hQ/q+I5nH8ww5t17y+91/BypelUvy6mu/9fnAC+6tiKSsTFmlsBCXlo0gtLDUnI4YcAEcx9/1tKHzaaEpKSXSEBzAJoodTH/9FAmM1mCTHDgvAzgbPvCWHyWipDnuR81O22SZpXH0pvpPgO5V/x+wXqP2WGZimY3S8+PJyWNasvNf/hBzjRtzP1L1NC+mxFUyvQQ2s/1I8Cx82JYOXBi3T/G2/TDU1bU2iY7YnJyPLsrFTIv9HQggBuCrLPAwkwc5nN8WTlatale/g5f9Why6Y7LQgBCvjq9yep1+13UXRsnPSeLQoXoP090zUlPy0REMSK5g0pb2SE9H4lKlS57oswe8a14hkd/gE4L22SwH4mj7Qo+Dgwh+1PCQEMDaLPIkHs/JYlv5HRMdR+yG300pe/6kp13Fzx3/z1H00Ba6a1oTC+u8vuG8d/v6RJXc3EP21BAI5oQK9Sxa2jESn5qettE2neB99pCUKmZMV/DqK47/VNGrnZJIHflSWQO0BIpoYw490t4mgsIQCEvIa4ed+i4rlqMP8IHaHz8WxmI8yH3XHY9Cdo+W//Ss/X+P19r2+kBuk9KJafx+0o0wBu0h/p3cly98/oC9jethmVjI+1df9CJctQjzFT6ZkPv7+u8GbP/9wne6lRp152jwSYtpSmVDLncAOXlUyvtIMCIyUVba1czdpqYkEAg128H15/snieP8XzrRTP66tAFiLCiP9aLXScqe9atFrbRc2cfGuOXqUn3vmK0noO5Iqf17ZjrVZKkubYs7P7Z5U5dW/g1oPtszsVKVOOBt45ixbuPmRqweDncGh2GzVJs3hs3Henj3/PAQPsru8z47g9ijnQEstuMQ86/J6WEMAgm/eJE6/7ETNOK36f+W6pKToAWY0+ozJVb6AH13yg75omCrPk22Oaky9/0RIuhdbKJMTR+paN3VJ+WAvH+nSmCVXKS8OCWSWE/22luo214wnyEoysAfwMocRB02ZTTFyCnftuZdbt2BSyiaEWTiqErpaK832oxb2aSQgAue4DbeyeCCW+zuQhs8vZOE54E5h7uNdqYVeoXV/b1Y1Mfocl8NC6j7RzfqgLSghJzRNPb6U1sG32G5LAgK50sFdHGlepHEXb9+LrUYfEZOo+egot/vqI6ftbeeAi3TxzDsXlTbRzzxeYb3RyDlhMt/nlHhbnWllH3eYWBDBAcm1pcX+73XJ9beIrsv82WSpojTr01JadxsqhhfbO06hHX6B8Lu76kEYF8tHm1k2zpfwZ/QHwH8yqVZUKxkS59BxIDb6Bk9fjm780PtrwnyHSMWLW03ZqCc6JI5WqHfASkJ5rdyIreuV9zfR8+SSDeyGZ4wwzT/3sZ3ANinZuEmc+u7PhrzLfSitGs5KHrT5HhNAeWf+JqfK//uMf1H3MFIp2rcCGCkRHabv1d13bumX2y44Df/TrQmtaNKKWhQu4dCSAFEutSNPg4zh6zTCDcAW3BAbcOdOOT+CQsC4VvIAyTF7Lbrabo4S1Ncvc8LKlCwQQKa5fz2wmyWSQHcw7vf3dRWeJ81OTlCLFaPrSzcbpvPxni7jJ3LzXIFcSZyglKpIGlClJb7duQie5onpS+bNaA7/26EDz6tWk+vlTXCKCxAKFaMwT87Ud34gEEN3ocusEftSxfN/vMPPeigrZRDPh8HN1NjvSflEHX8WmBdBb/F0Vcd0pF18PFsInPrYbFBOfnXkabXyCltZrFiJ7ecd+LbzHbFbV5YmIoL6li9OGVo3peN/O0iw/T1oDIIJ93dtrUYLaKUkUavN54/Ik0ojZczkJXDK0fF7930n+/rtb3QfO4Ltt+KEU3EQRLndx+dXVs6dwfKG2HWG+vyRnubHiPPejG6+xn+n1/b7UaRbVfrNkRxfs6IiVrzhwwWkH1Hb+PYepfvtutj4DKBzO+a83rUdH+3TSFP+MlxXfyEEIIvieHzemVqtIhWKibT07agMQITCzgJ796H9UtnptO0eBhkpVvQc4WlCZNd/KpGXGmX77mXnm2xXhSLzo4n1BKOitX8sHHUENmEV1X820tlpKbNawmGPnS+sx0NbnkMTNfYTmfuzWLlcU3+hYAP/AxlZNqHmhAhRi4z2gaAlOTrOwJ9KgE5JTrO6zVEUFvA+UrnYQ5y6Xp9d4SBDq28alK/NMOa6ngWd6RfYeEL9/eN3HTrseLAHEwzuPvMNWmK98ngQtpdeb53x3BWT0Ayel0RVTtdRj2fuo2qAZvbH3tHGBk4gMoKTY4jORTVtS8DBSuIzm8m0OKz9GgY/3cadPR4m/g8LCI+im+x83PPfDK37Lg/MoKibWVmhve9s0TfHP+JDiZ7UGjvXtTI/Vqa45Jt2xABxW0eJvjlDVhmlWn8s2sTYVcgjohoNJO0e9rPiY4juHS0Uf/zxQ6LNG9l7QwefV708YnvtnrthKyYWKWH4ezQsXoM/TW+aIk89TIcOXGtahIrHOYb34pBRTH0DWBif4OzgOmbyb0EClljnv8EKuP3Lx//Ww4p8XCoUoQoQffBbtZbs/MtxwnnVqocUX/8I9h/gO18zyM0EZ78cdWvi84mclAfyLTMQG+VO00uKEiHCqnCeeZnfvQeu+O0ZrLQhAyw/gVkKbATdbfUaY/JSk1DJ3dj+w7+fMxbl2zDihBzH9oUxPCPIH4Oz/hux9tewzVFvEWXd/tNbuMfZOyyaaUJ4tbZpqnn5/IoCMkYKferSnTa2a0NqWjbQEpT8GdKddzy+ktQcvSQnAYQUgW9KiBuJf5QvI/bDhHDe8+hmLg55l5tN9fRXw/JsW+6C893rXnCyLevaq9ykxf0FLh9/qFg3plx4dNKefPxKAwxrA0QWi+S/4ezlxUz/6cOMHtOY4WZLA6iNXtJ4DFmtouY86iAMe0cIJtpW5njyUcff/0Ie9/EZAGPJB2ftq3X+4VuyyNksL7aU//UX12ne1zOx7vkEt2tu9Hf3eK53+9FPlNyWFfp1p/4Tb6e2vD5k6AjP6SuZs20MFipeUfWYoD79RqWPOKgDi8S8z86IfVwVxfvTSr8t8v+ADJch7mKQSbtbK9wx3/0nPL5V6/cP4sQD5/P/j5vLebu207jynA4wANOGWwO5n59PaLJOGDK2Aw1eo4/CxVuvnAaWWOQOY6vdw+c1LEQBMyJnB5JN7cht9maRuoW7bzvTmL2edBmigyKdG01bS99+kYD76LL2FpvxIt/Vn819uBXShYzcPpm0f7KE1NiICD67+QDrxiMtXTNUIeN3p1184/a4y74YBrwmnIGr9fW2iLOb/vWT27BGRUTR+3iuGu//kF5dJK96SIiNpYaMb6Seu+Mj0+7Vnh4Az/zORQN/O9P3Dj9G6AxekRwGQ55u/ntWI1cKCbKPU1HthvxVeCPvZqQFHWLC5D4UFYQF9zySlvgt2HciU8uuodrMqdBlYtiR910U3/UEAB3p1DFjldxwDjg8bQNu377RlBaCQyqIB6kNKXT2LnEr88afEoK4yImw/dJTT2C4sXqQCo9e/2XWFY6JpVfOGmtn/oyCAgD3/Z7ECvnvsKVp76JKlMxDTkAsULyVbJ6gQTVZqm30gvXIUM55ya+cM/74kLIhdfYObPgTsvLdzyZ+Ln42p9x/OvTsXrnIy/yHo3S97b4PLltIcfw7lxwgvlPgGPAFwK+DIyJvo3S9/0pODjpvPGEAlZVP59COEZWsr9XUfMLMdxT+uxvX/5vKa8OL3Z8aTdSFnmD4YE1GEV8V17hQHpefCsQB+kM1mz1a0bHlasNPZ/MfwDvT/Y5KhnUub1b9+9v8xwB2ARrkCOxctpeX7z2vThMxGoGH68W2PPC9rlpIbk6cDBnBuYVTzH24o5AdMz8aKFffqI/GSgwBaib/D3/cQ11928XX/EM8bnoOfUTmmD6ww9uB36eOU+Qdr4IG3tlJsHvNW3m2KFKQ9nVtfP/tDfu7RXsupDwbl/4a/90ktmlPjjj2pee/BdPvcxdqsQ6P6CTRRzZOSX7YunmPO05gVbKChG2f9fVwmcSnkQpgMBNAyy9/j+gnM9QYheN4GOfgZdeLyj9nzoOrPyfvPF+2AqTNN30N4SAjNrFkl0+4PQQZgoBMAMgN3dWpNTQvld5qG3GnE7dr0o6yhVMwUqFC7gWxNIKksUamz65jMXGsBhvTdqib36mdBAGYTYKuI+5504Vkm5+BndIfZc2BKzwPLt2QiAM37zxdxvbZdzIdpxMZovfz2ZSGAQA8BnhZVg7dXLmf4uaAh6l2L1zgRKhys7QaPtBopVlqps+u4m9lrArqRS1uWuQloVgwQf2t0j9MirGeGSGEhbJDcI6PcnUOfD3rQPcMkTT9e+uKXzOd//t/zd+zXRmeZXYcuu7uzmP+Q3wI9B4DLbz3TtYIns8+m8y3jtZ4JmfwAp4iGzXhSth7OWKwvBROgtPUvyQeLNuBowW2n9HKgBQGk2bhHknDo7GLy5I/2OegA3Gj2LFXqN3XqcoPda9aq9yhOcv7HDph191cEINqoNW/r5AvAZ4oSa0nLdPiShit1dh2xItaetfUXGjAiwSLVhXsNsiAAV7r5lhaht6yDQvCcT2dwPHobCD3uNlusLfoM0TzYGcNY2K1GP/4ihYUZJ6/EhIfRc/VrOZ3/gyILkAvCnOhqbJobUTpVmzOY0aqCTwXTiC2qKe9R6uweUIt/K9Oz77YJQmjghld1sCSMiCajTV28X5h4jjniudaI58zJ3gElZREA1PdnbfiJxdpTEv/PHx1FG1s1NrQAgsEJiBLhe2tUNm97npyPnnx3R6buQVq7sK+PaINIJQSAjUFNEMoG4oRyuRtOGWJBAI3dvG+YeK7c6AaLLsmm9f84l2LHz9T449BlrSzY7JqKeRPo0w4tnM7/kJ+CIAx4lhMAWodFmTT/hJl/d5aOSo6iqkp1G8kIAI1aopUa5x6GMvMuwiCARn74nkyHnYRHRtIdz7yiJapkKmD55Szd2KaT6UJtXDAf7ejUypAAgiERCBbAupaNKG9EhHGIlP983NOLMhGrXhj0D9Vr10VGAG8Ln41CLuEmCQEggccfhzog89BwUrGeArzSeafa+6fmHDRbqJ2KF6FvurQxJAA0Awn0VGDkAXzUvjnlizYfOjr8gacyW1Zar8ALWmdhCQG8x1QuQK5imAUBNPDD99SNmRQBYbLtva9tdCIAJK2Uq1nXdKH2LlVcm6zzowEBaMVAvTsFPAEgBCqbKjRo2mwnAsBosVb9hskI4FOmioJyFcOZeWovkojq++F7Ms1ujE3ISw+85ZwEhElApSvXMC//LVNSG6ZhRgCBXg4MAkCjUKP24Q7pN3m6k29l9ZGr1H7obTIC2Mlyt2As6DHCggDqBRQB5Mmr5fsbEUCpytXNd7eycgII9FBg9ghglIwAdikCyF3cYkEAdf3wPfUwPQLEJ9D9b7ztRACY+ZcqGXTZp7T8CBDojkCtFsDqCHDXg4bRFYt5AV8wNTEoVyHLA0Bzj2p++J46mToBY+No2qLVLjsBOxYrbOoEDAY/AAjgQzgBo0ycgCEhdPPMOc5OwAMXKK3nQKuCIDUsJBeBWn+zabkfeclBg7APehncIaIQqR6+P/LLTxuHqyK1ElancNUvZ6muRRhwp0kY0CH7e6YH7DEAYcA1LRpRHtMwoHufK9NTtlUYMBeBRh3TmXM6MHZ/b0xxwXASTOh1NBfB8eMbEbrzFKSJQEY71aqDl6hV35tMF2qFvAn0iUki0PWEoAA+BiAR6IUGtSnSJBFIj65sMLSsKtdrohKBfBzxwheApAx0+H1T7NCebtaA+z1sshBAAmU99DqoSThotuh6jptmmAqMMddm1yD+vcEkFTijHOrdMWAtgLuqVzJPBU7JT09t3WWcCly2vIwAULUZqlTQNwBTLB/z3tSfgsy8dyFyEYZ46HXyM0llIjrZGBcDvUShZsVAYWH0TP2ahsVAgV4X4CgGQi4EM22xVoEW7TnsVAw09/1vKTFfAVUMpKABO/wRyWKY4kEic70ceOV2aTkwpgBZWQCBOCEIg0PxvqslmX82tVu2p2W/GJUDr5eVA4P0hym1CB6UyyECgEn5nNnr5C9Wkl768lenhiAv7/xdK2tlkvHfRg1BAt0KgPmPqcGJkRGmn03XWyc6NwblVtXwBywbgrRUahE8wOwCWS9DT7YMm2D2OrHxeWjGm+8YtwSTFK5gHsBGG34AyOEACgkiBHjfDealwNcLrLImAR2+TG0H3WLVEqyMUgv/B+a8NRQim/lWwYIAJlmY9egjjwYlpWw4jjAJ+azZaw297zHDpqAD75wlHQY644Yqln4AR6fgQIgI4PyPqcdphczP8SmFimqNP9afMGoKWl9GAOgwnajUx3+BRg5duHzG9NJhCIo7ENs3agBS0YIAJhpcg76DmCO3VoT2YDaiIzFyCGQdhlKZpClI0279tEq1tYZ+gETpMQDdca2OAZBAGBcO838jN/8xC1F+/s88YBVk8OQ7OyivvC34s0y1BfdrYMffb/DFnhcKi/NdxoEglZg+H95sQUzIcv+qYpGcYsZTi0ZIng2DSt8xe60iZcrTyzv2Ow8G+d9JqljHvJU1zsGvNalnywoASRz1c4cgfBmjKpY1/TxCuFUEayprWBX9FkY+/KzVYJBblAr5L2CCP8XkXYCxY8/lUtkmAYzPEC6ENbDP4v5WJqRkNFgM3blgpeFosD4T7pV2N+5fuoS0LiDTUQDJQX27+O3Z/4uOLal0fJz5lOSChempLTszmf+OPgCwsizWxo1KjfwXML9XMnvzAGCyj2N6px4zAsCY8bvFkcLu9CHMLCwiecbOTDIcBGWqRsNBH934OeWVxK4LxkTTW2kNbDkDHZWC/hgVwPFlctUK0u+gUede9Nb+c07m/3MfWw4HVTUAAWABzGX2h4Kg4Og7Zj6HEATwKzNp5cXcmzCL8eA/mF1fvHwlw2PAW7+do0adeklfG0kxVsVB/uwP+FsU/5SMjzX9DCKjY2jSC0udnan8/0c9+oLVePCHlQr5P9KYPK7vTQGhjLV4PswifMk0fBURSePmLDRcwNMWrqLoWHPTN29kBL3YsLZtK8DRNORPP/H8H+vTmYakSndwqlyvMb36/QmnkWBICKrTOl12LWZEtFXq4/+ABxfThf+Xw8qPQqX7mL0qsl4Sq4PqtumsVaxlXcRv7DtNtZq3kz5H3XzJ2i5plwRgLRz0AxLA2X9x47qmlX8O8kTqtFNNBSfPB1e/TwlJybLP7nOmmoAEFBDff1IopjcVH4q8hunlvnYnDRflssfsnnF5k2hGljmBjoUMJ6EkjZVCQxjdUr4Mfdelre2jwF5hCfzRz3eV/6tOrahGcqLF7t9E66KUdSowGoC0H3Kb1fc4Q6lM4CFcHAlWyXZcNwX+AVQpDhHhPVcxW3Z/TApC44q1x51r2Rt37i19NuyST9xYwzYBZOwdcMrHHINQfvgqeksmAEFwNNLO/ga7PyoC8xWRXn9Mef8DG3mEon7F5aoHlP93sWOUzMYz1ZOFHzHVZvaq9wytgIfXfUzJhYpKnxGOsjea1nPJH6BFB3p08Jl24o6KvylVK1KESc2/Q5p07et0bHJMA8aQUIvvE6XmMUpNAh/FuDwiC8NZyFVh7tfxwLNEMb0JienroXf98t/+dVrUa45cpf5THqDQ0DDp81ZPykvrWjZ2mQSQUHS4d0f6s1/uKj+skYdqV6M4ueeeCpYoTU+885Xh7v/Y219QSmEpWSI1u6tSjcAHUoTRlWcJszc23MzsR0sy9PfzRMeYdrIQY2xCHs3zn9UKgJNrybfHqGZaW8tnhlPQbrFQVr8Apu/mhjXgUP6n69WUVvtBIqKi6ZbZc50Sp7TQ6f5z1KL3YKvP6F2mcv8DHoi938uMU4TdEYSMFjG9ECg7QyQxo3CF7LWqNkzjyn7UsFvQIxs+0XY/q+etlZLkUpJQ1s7CcBDmVOYgzvwgnYdrV6ekqEjL99ai9xCnmn/H5zP15RUUE5/HyoHbX6lH4AIhuYEixHOVeT4CsF+E/opn4xkRez5t6tUPC9PMfZj9WXc5yO1PL9IsBatnLZ8ngRY0uvH67u4qEeBYgHDhCU4Ef3rZ4Te1WkVLsx+CAZ8vfv6zs+kv+ihYVP05ZgCq3T8AgVyAJkxPC/7Xy2FAEAv6yKOVebwbz4qjxGLZayQXLEyzVmx3WujY9VYeuEh9J96v1b9bPSv6599TvZJWOeiONeCwCBAtONank8dSic8I5f+yYyvqWaqYpcMPgiYpD639yPgzOXiRut42USsKsrDiuihVCTzAuYYa/qMsZxOBYE7OZ/LeA2a4kUnKhLWjQINmtGDXQcMFv+znv7VJN1ZOQUhUWCj1KFmMNrduog0QdccacFgR6C+AHRvVhegz4KrT8IxI74XJ/3rTelTTIs5/nRALFdHmKGQ1+x3+kckvvSltoyZksfL8Bya6CnbPjVRgOAnvZ653lA0VRwnTYwp2sw43jTKMCmDRo9FFy75DKcTG7gmpwI8Es2pV5btuS828d5cIHGQAywAhRBACuhCDFKDYJ7iAHE5lkJNCkNqLrMWby5e2dPY5JDF/QZrw3Ou09ug1J+XX6v237KTi5SvbKdiqo1Ql8BAudmFXnHlfMPMkIVT/feyi8xCDJfO58eyFubwvuzcKXTA/QPMHGJAAsuAw9VZS7+5kDTQrlJ/m1atJO7j5DSJw92hgRAqwMPaJe0Jwf/QmxH9va9uMJlYpLy3rdT4KFaEJz75Ga446v38oPzoA12puGRm5xORdnhT8GDFWXnUhV5he3ttVhOL+YObFPcOEiY5hEWdt3BvVg0XcfH48ywnZ/dHNZsr85abm7+s//kGdRtxOkVHRthUrNjyMmhXMT4/Urk4ftEvTBo5qVkE2jghZrQPcb0/n1rSqeUOtmUdqQryWtmz3GXHmn7Zolb7zG5Df0n1nqHX/4Vbnfsh6pub+BTRmWSyAvUzv9FtI/D2chX9KCGBQhpAding+EgQi8yy7O1YKzst7mUXfAYT+Zrz5rlNo0KEMaCQ65J6HKSEpxaUjDCbsYNrQTaml6MUGtTUyQHnxT0KBHTv5XscObyAZd3sQwI5OrWh9y8b0QM0q1K5oIcofHeXy0apCnQb00NoPjUkPjVP5saj7mKkUFm55jPiZ+edgWQUXUIUZD+BAC6/nxO8zopkkDIeEoYEGpjoIxKgz0Eku3bL5/NidVlspRbFylWj26vednIIOpUD3W8TBS1So4pY/A1ZBWb5LdypeRDPVn+HHhNUtGmqk8Hl6S/qKHxl2dmqtRRQwnxC+hE87tKAtbZpqDj1k8N1crjQ1KpCPCnClD7PemQ07+zbrMZBe+Own0/f51v7z1HfSdH48srR4kP15s1KP4EAdYbL/JkzyZUxv4hlp8LdpFgQwwOQ10BsQ7cdQdoyRX1uZPrcw3APPj+nHe6wUBMo9c8U2w50RZjJ+Pve9b7Q8+QgXjgTMZApRclQkFY+L1YZx1M+fovkP0rg0KZiP6qQkaY5FdCZCMVKETWekmaB4Z/iMJ2npT38ZK/8JPdMPORJRMbF2QrVPMDXvL+j8AcWFyMI9zS0IoL+F0xEWAYqC8nr4+TEH8bCds/E9r66/viMaecYRJhz12It2vOO5LiCq+h260cPrP6E1/Lxv9p7QG6H76CmaY9TGfWFRFVAqoWAE9AQ8Y7Jw0Em4Xy49V4hwQJ62WuDogT/2qQW08uAlY7+AsAae++RH6jJygtY009cUH5GL8jXrau8DDj2jxqgO5Uc+BEKeYTayBZneoq2iWuYKZmhlQQB9c/HZ0L58KrORzRibkFfrHIwogJHJ7FAeNMd4bNPn1HbQSC2hJrcVH467stVr080PPEULdx/SCMzM2Qd5/O0vqEbTVnbv/7Vy+ilYobmEAM4Jz39uH2WmCzKyUKZwapjeg+Zs222qSI4yWVgLT23ZRT3G3qn5EuykEntS4hOTqGbztloLr4W7D+oKLiGuFb+f10Z9WYz1zig/CAevgoIUlYQTz2gRIXJQ3weeEe3OZzKbXY0QIRg/d4kWDjSzBuAkxO9wzkbhzB3zXqG0ngOpUKmydpxqbklc3kStQKfnuGlasxOHg89M8deJZ3zxi18ofdhoiolPcEX5W6mlrWAHqB141mQhIZIQ7yPPCUsAMwrsJCNRVGycptBoh+XwmhsSgfgdrIIVBy5qE4rRg6DHmKnaDo2cAyiuKxYCknFAIkhaKlW5utbYZMg9j2hhS0w5clghZhaKRk4n9fZnSPtNrVHbFaLZo3Z+BVeBTkEvMz0L71+x80P5U32QrMYwFxqdFixRhvpPfYDmf7VfamZfDx2e0Edo4f8RPcCMggfXfEDj5y2hwXc/RF1unUCt+g+jxl36aN56TC5uwI8dzboP0Bpv9rr9Lhoxey7dyUkERxGkJ6O3IRRaqvQZFH/VoUv8NT/UBnzI2qAz46lMKsdfwe0dFg6j7kyfLxjvo8+JwiHkG/xkf0cOpdJVatDwB56iBbsOXDf/18qU0eF4E9YBxmw7Rm1DQRGDRwbem/yYgX8xdmv1kSvaffF3msI7/BA2Xkf3S1ykRzd+Ru2G3KoV/big+MjMfMsHCVtBwWuAb+I95lKoLZwTwQ00cNpseubD7zVF1nblE3IFNSWHDGKl5Gbne0dMf/qyzVohU1KBQu50Z8JEn3xqSSgEG0owPb3ZpSanOKNjRl6r/sO1uvpFXx/WKgw3CDJYd9x1QrCt9OIoAKth3vvfatWNNZq01MKYbjgWMd8RtRqRaikoBPPRZSiTzBuUOgtjYqlU5RrUcfhYmvziMnrhs31ajz3s6A5T3kEKds15h6zPcHxA/gEcgDDxofQNOnSnlMLFKNS9lGEUaaHqs6b6+hUUdKB+YCGzGSVgJmm4BYqVpFot2mnVdeOeXqRV4c3fsZ9e+98pzSuPc7qWoptBuR3OPfTgf+v387T0pzNa12IcM+59bYPme2g94GYqV7MuJSSnaD4J5n44EdWco5nq5aeg4ATkC/Rm9keZy6vxIiIoPm8S5S9WgsrdcCPd2KYTNe89mNK5tdB9zBTqPf4e6jvxPi2ujx58bQeP1AqPajRppSUX4TyPMWYhblQCGghKtl8SRKegoCBBQS53cPmGeacbck4KLJo1TO+eHKW+WgUF+yjN9N4F33jCIshhgXd/LdPDsgnqq1RQcB+IFtwmjgZ/+7jiowQa05s6KMVXUPAskrm05/I8051p531E6c9w+ZDLXVxqMRXWU1DwKtDIpBTTS53niyNCTrZSx3EEk5G3Mb3IqZUgJwUFhVwgg8JCCeEveI3LbqYPVoEDLrtORMTs4cHfz2U7l6eZ3uikBvN8FyUFBYVsIloQAopq0BAVg05QKIVuxzuY3mMRbdT/FTs5hqFcEL4FkAYSktCFB4k6c5gejUjnUkHs8qHqI/YM/g9/A9XibaWDCQAAAABJRU5ErkJggg==;container=0;" parent="DwnDVQrleK8puIl21w_7-21" vertex="1">
          <mxGeometry x="6" y="5" width="20" height="20" as="geometry" />
        </mxCell>
        <mxCell id="DwnDVQrleK8puIl21w_7-1" value="" style="rounded=0;whiteSpace=wrap;html=1;fillColor=#d0cee2;strokeColor=#56517e;container=0;" parent="DwnDVQrleK8puIl21w_7-21" vertex="1">
          <mxGeometry y="30" width="300" height="160" as="geometry" />
        </mxCell>
        <mxCell id="DwnDVQrleK8puIl21w_7-10" value="Elige el tipo de conversiÃ³n" style="text;html=1;align=center;verticalAlign=middle;resizable=0;points=[];autosize=1;strokeColor=none;fillColor=none;container=0;" parent="DwnDVQrleK8puIl21w_7-21" vertex="1">
          <mxGeometry x="70" y="30" width="160" height="30" as="geometry" />
        </mxCell>
        <mxCell id="DwnDVQrleK8puIl21w_7-18" value="Entrada de texto" style="rounded=0;whiteSpace=wrap;html=1;" parent="DwnDVQrleK8puIl21w_7-21" vertex="1">
          <mxGeometry x="20" y="100" width="120" height="20" as="geometry" />
        </mxCell>
        <mxCell id="DwnDVQrleK8puIl21w_7-20" value="Salida de texto" style="rounded=0;whiteSpace=wrap;html=1;" parent="DwnDVQrleK8puIl21w_7-21" vertex="1">
          <mxGeometry x="160" y="100" width="120" height="20" as="geometry" />
        </mxCell>
        <mxCell id="DwnDVQrleK8puIl21w_7-9" value="Calcular" style="rounded=1;whiteSpace=wrap;html=1;container=0;arcSize=0;" parent="DwnDVQrleK8puIl21w_7-21" vertex="1">
          <mxGeometry x="92" y="140" width="116" height="30" as="geometry" />
        </mxCell>
        <mxCell id="DwnDVQrleK8puIl21w_7-23" value="" style="group" parent="DwnDVQrleK8puIl21w_7-21" vertex="1" connectable="0">
          <mxGeometry x="63" y="60" width="174" height="25" as="geometry" />
        </mxCell>
        <mxCell id="DwnDVQrleK8puIl21w_7-3" value="--" style="rounded=0;whiteSpace=wrap;html=1;container=0;" parent="DwnDVQrleK8puIl21w_7-23" vertex="1">
          <mxGeometry width="174" height="25" as="geometry" />
        </mxCell>
        <mxCell id="DwnDVQrleK8puIl21w_7-5" value="" style="triangle;whiteSpace=wrap;html=1;rotation=90;container=0;" parent="DwnDVQrleK8puIl21w_7-23" vertex="1">
          <mxGeometry x="150.85000000000002" y="6.25" width="10.15" height="12.5" as="geometry" />
        </mxCell>
        <mxCell id="DwnDVQrleK8puIl21w_7-7" value="" style="endArrow=classic;html=1;rounded=0;" parent="1" edge="1">
          <mxGeometry width="50" height="50" relative="1" as="geometry">
            <mxPoint x="230" y="290" as="sourcePoint" />
            <mxPoint x="390" y="290" as="targetPoint" />
          </mxGeometry>
        </mxCell>
        <mxCell id="DwnDVQrleK8puIl21w_7-8" value="AplicaciÃ³n principal&lt;br&gt;de cambio de temperatura" style="text;html=1;align=center;verticalAlign=middle;resizable=0;points=[];autosize=1;strokeColor=none;fillColor=none;" parent="1" vertex="1">
          <mxGeometry x="70" y="270" width="160" height="40" as="geometry" />
        </mxCell>
        <mxCell id="DwnDVQrleK8puIl21w_7-16" style="edgeStyle=orthogonalEdgeStyle;rounded=0;orthogonalLoop=1;jettySize=auto;html=1;" parent="1" source="DwnDVQrleK8puIl21w_7-15" edge="1">
          <mxGeometry relative="1" as="geometry">
            <mxPoint x="390" y="585" as="targetPoint" />
          </mxGeometry>
        </mxCell>
        <mxCell id="DwnDVQrleK8puIl21w_7-15" value="AplicaciÃ³n alterna multiherramienta" style="text;html=1;align=center;verticalAlign=middle;resizable=0;points=[];autosize=1;strokeColor=none;fillColor=none;" parent="1" vertex="1">
          <mxGeometry x="90" y="570" width="210" height="30" as="geometry" />
        </mxCell>
        <mxCell id="9GvEFEXf6PaLgaHzI8d7-118" value="" style="group" parent="1" vertex="1" connectable="0">
          <mxGeometry x="398.43" y="770" width="460.00000000000006" height="230" as="geometry" />
        </mxCell>
        <mxCell id="9GvEFEXf6PaLgaHzI8d7-59" value="" style="rounded=0;whiteSpace=wrap;html=1;container=0;" parent="9GvEFEXf6PaLgaHzI8d7-118" vertex="1">
          <mxGeometry width="460" height="230" as="geometry" />
        </mxCell>
        <mxCell id="9GvEFEXf6PaLgaHzI8d7-60" value="" style="shape=image;verticalLabelPosition=bottom;labelBackgroundColor=default;verticalAlign=top;aspect=fixed;imageAspect=0;image=data:image/x-icon,AAABAAEAAAAAAAEAIACnRgAAFgAAAIlQTkcNChoKAAAADUlIRFIAAAEAAAABAAgGAAAAXHKoZgAAAAFvck5UAc+id5oAAEZhSURBVHja7V0HmBzF0V0hRM4gRMYEg8HYZDAmKOcsIYQROfxgDAYM2AaTk8EYY8AYMMaAAQsMmAxKpyxdTptzuqBIRkJ5/nqzPXdzczO7M5tD9fe9b06n3b3Z6a7XVdUVbDYelke8Y4WCgYSXCXvj3zx48Kgc4d+J8AZhNmF3JgAePCqLAH5O+ILwDGE7JgAePCqHAPoQ/kjYRLhUIQUePHhUxu5/IKGF0EE4jgmAB4/KIoAphI2EDwi7sPDz4FE5BLA94UWCRLiFd38ePCpr9z+KECSsJZzOBMCDR2URwFWErYQqwp4s/Dx4VA4B7Ex4R6j/9/Luz4NHZe3+JxI6CV8TBjMB8OBRWQRwm9j96wj9Wfh58Kgc4Ye9P08QwJ9FMBA/IB48KoQAzhOhv+sIE1j9L6u5NQQPXiQKHha7v5NwMC+Q0hzeYMgWiMRsLp/P5vR6bb5Q2NbeuaqPSOg6nDCI8FMlv4PnmIUfGECoFwTwDxEMxA+oxIYs7KvW2poddpvb79+XSGCiPxy+lebyScIsQojwlbhOYQJgAlAwQaj+CP+dwQujRAkg3ibv+iT4pzrcnqpWl2udNxCUBLFr0SA0Ap7rCieAvoTnxKIIE47mRVGiBEDqvyRJfRwezxMk/BLg8QekWHunHgEg2Otmnmve/Y8geMWimCkKgfADKlECiMbbd6Dd/xWFANw+vxEBSOLUZ08mgcomgMtE3j92hF/yYihtAujoXNXX7na/oBAAmQM9CEBDBp+L0x+e8wolAOz2b4rF0CG8w7wYSpUAQmH5SgTwF4UAnF6vFG3vEALfKYVjcS0JPMxzXrm7/wmENrEQPiHsxguhtAmgyW63keA/qBCAw+ORom0dXQIfjESlSLxdTQD14hSISaACCeBmofpjIfyWF0HpEwAJPXBvFwG4PT0EPhiJSf5wRE0A3xEm8txXHgHsIc6GJZH7fxYvgtInAFL/gXsUAqCfSe1v6xJ4mABufy/H4HMc+1F5u//PheBjASzm2v/lMWjHt5Haf7eaAEIk9IqwwxyAXyAUjakJwCdOg3gDqCACuF+1AB7iyS8TAvDIBPAHNQEEVcKOnd/l9UmengFCOAW6nNdA5Qg/Un2rxeQj938ET375EADt8L9XCACA409NAAgOgnNQ4wx8i2NAKocAxhC+ERPfpHiBeZQDAXhBALe1utxdBBDo6fSTfMGQ/HuNM7Cdj4ErgwAQ+vu0auKf4s4/5TPkXACv72a7igD8oXAPAgiQRqATJLSN8BsmgPLf/Q8juMSkrydM5UkvMwLw+X5Ftv9WhQCw46sJAE5B+Aa0DkLCHC4Em+dB9lgXvIGgjBwTwEWEDWLCvYIQmADKiwCuIeHerBCAN9gzIxC2P3wAOv+H0OBzeD3kcfgSQr8dqWm7YvKibR05qdgiPm9HwmuqCUfr73482eVGAP7LiAA2dmUEBgJSrEOdD5A4ClQiBSNtPZyB9zMB5HGQvWZz+/w/pol4y+3330422ckiSCdr5ZtUn4E+f1E++ilvAqD1NN3ucn/flRGoCfzBz/idgZNwGWFfXhf5ZexLaSK2iKOZlfTgZxPuJgxUAnQyIQPV+24gbBETHSMcyxNdlgQwidbTd0YZgYBXnATopAyjYtAwXhf5tdlmtLrcGxI2WQ+HDYp0LhJk8HN17rYVMhCvQ6LPx6rPfkc0AuFJKL8NZSStpa/VGYFaAsARYM9w4R7OwMe4KnSeBgI3yAw4kVS21XqhmyqsFQUcfi969u1uhgxU/3cmYbWqGsyvmeXLkAA88oZyHq2lL7ozAr09MgLlpKBoTF5r3Y7CkLZcGGcI5sUH4IMPILCfw+1p6rbZAsmquACrCJ+Jc1v4DHY1IgPVv+9WvR9mxik8wWW7oZxG62iNUUpw4iSgrQcByHUDul/zLWEcr488DG+ijhsm7kG1ShZQhW8mAYI3VhA+EPb9CYparwGcOks157178OSW37C75VDg42gdrexeT73CfmVhh2agDhnWrLmnOUAsHwQQCMonAaQJnESC39HFyDQ52klLga2iuMc7osPvkSLqDwQwXMT8K6+9i9m9PAfqAdA6Opyu7UYpwV1JQT5/DwLQnBY4CIfwOsnDQBBQMBztR1rAc+oJ8aQ2BYywSQT5/I0wSlX1V3Esch24ctUAXHI9gENo/bT1SAmO9vYroWS4er1piAJRotN4neRhuH1+UttkLeDHNAk+9aRoEjbSwTei5r/6nHcvbg9VpgTgccOcPJjWUdwoJbjrJCAU7kUAmryBFzlQLA8DlVzgC6htrIP9dj1Nxqae7B3LlATUgGp3ibr9F5NB+QxnIhsQBBBNYt8ncgJoXUHthyaAjQYkoXEWugkH8brIhxZAZgDZZDZPILAXMfj76smDhxZe2yySAHIBWggPEk5T8sCZCMqAABLZgAcRAYTNaJIpTMwvODcgj+Pppx9KHOP4fKfSBHp7OGh8/l5HOVlCJ+EN0SuuP2sFpT1EaPmBDrcnoF4/Pk1KsElsJlzD6yBPA2aALxi2NTkcYPLJRAJrtE7B7hrvWcc64R+4TeQMbM9EUIIEQFokaZMH0EbiUa+dJD0CU+EJnv88DiU1uL1zTR+y526lydugncg0TwbMYpvoEficOD7cg4mgtNYPbSQwIxeq141ePoBJfKpEnfLIK4v7bb5QaFeayBfUE6kUeMgxCagTQ1A6/ArCgWweFP9Ae7BpV87AUeAT6jXj0AkGMokg4VCe67yTgC8RJuz3DyASeDcfJAAfAxaJzuduFB1kbhPdg/swERSrGRmUHYGEG2idbDMqDmoBXxIG8TwXYLQ4nYn0Tr//YO3JgJLAkX0SaJePjAK9W0gp0YYIMPqjyCXox0RQfEMkBJ2jTgjSSfgxiy3cNLZQ6lwobDvymB3lkwG3z38oqXEf9SKBHPgE8HmIHMOCgaah01BSqSL7D8JgvWQkHgUkgESKOY4Cgz39AP5018pTnB5cQBJYv0USx4P+w+1uz6daEpBPB3JwRIjFAk0ACwcZilAhdf7O5yL/AMeI+zARFIEjMBDEutmd1kyPtaLTC8AsOHms0CSwcu3nctsnMgeOpImcrSUBeHm1CR/Z9A3gHBkJSk6vTw4X1VlIaDI5n3AlYX8mgsKul/rmJqyXh7WhvsH0okpxKvQDnseCTmqIBKlTjvUmc+AoIoEPtSQAAc1y2HCvHHK0lMJCwm6CirI6pAOH4RKRkchEUBBHYEiJCLzG7uquDpxBQNDXXCasGEiAJrZz5ZqET8DvR7DHK6gl2CuhIxzJ2TEhqsvCP+AWqaT4eyAFHT8BE0EBhygMcgrN0eokKb9WUs1v5LkrEvWuur5GPiL0BAJ70q7/OE3s+p7agFsuBZ2mvWfJP6CUl04QQUAuZ6ZDBIuFadCfiSA/QxwjD6B58Wj9AGn6i57lAiFFRAIun1cEC4V3JhK4mSZ6dS+TgIQzmEOTQDk2xEmBUl4KVzgMoSUYEMEVTAR5MAMCQdSY2JkE/m2thqhXG8AE5nPXoKJj+UTE4FZJQtjw+dpzX2XCIaA5SiTq0W7KraowkyACv+yT0BDBBiaC3A8/bRItLhdMgXu0a8Kfnh8AZeSP4jkqsoGgj8ZWu62htfXsuqbmz5scDkk74copQZrMb8ksgP9BXWtOIYJgRJcIUPL8Mj4+zI2/SMQDXKyUnLdQdNaosMwonp9ic/a4PbaL7vi1ra65+ZHl9fVSdUOD1NjaqksC+dIG4HvwitMC9d9GPIEcS9Azo/F7cc48Va/UOY/MHIGiQOiKnn4Ab7pr4BaelyIamIiGlhZoAANqGhubQAAKSCNYp00n7tIGvL6cHhd2RxPGZM1DTxuBA1GzC6EU9Xtil9mZiSDzgVJzHn+gPxFBay8/QCwtbfAFJU2cR5EQQKtcBNIzprap6Vs1AdQ2Nr1Hgj6CNIS5RtqAV9YG2nPsJEwEESEbTXtSAZ9BsLePAMknr4vCpTswEWTgCAwGbeFYfAdxXCxlodbkYqVVHY8iIQD0FCAB+iN21BanSyJNQCaAuuaWm0kLUOIFniSB/0aPCOSTgt72edaBOAFtGeoUpwZofvK86ILUl0nA+ghE40gLJlPAe0ev8PH0CoSg7PwxPAdFIvwCA0SqbpcTjoigo8nuOJEgnwcHIpEdSNBn0GLwG2oDtCByGTcgawNk+/t1tYHuOIJwb9UUi+7PhB9r05B5pHAEhsKKI3AKPeN1WuJPo7oUdwwqQgKYIOLw1fb3f2lH3YkEWgkYsjXaW3FseIoIId5qpA3o2OZ50wZ6klGbXmGK+5SjKCYCS47Ao+i5tifpAWAFt/NzLx4C6Ktp+qHkb/+KhNi2YvVa+bUoE4VagzgyJDLYlxbFA7QAPjcSwFxHEabSBpSINfgONN5qlCtzisIkhzARmHAEosRcIIg5r9U+40A4rQIhL3GvgOLZ/Y8QBTrUuzaq/J6oFQqog8vrqmXPMO2ufZ1eH4qOtuoJn3JUFMhhToFaG0CcgNF9GGglW4TZcx3nGaQwA4Ih24pVa/vSXP9dr5ZEGnO2XInb4FF4AkAQzUZ40lWNH5IWcXQneg/YWhwO/Pwj2hlmqhuR9PLU+8kuj7fl/MgQZIPjSXXsgLYsuo6jcJMIJrpY2+2IF6iYb69PMQNu7U2uaRUK7RRVo/nhFpgA0MzjTUwghCPQfazz+1QCgIIR/nBEriFPu8AeZBrcToK30lgb8OQ0w1BtFuBEAiYINBAtGXRlHvYmpPWiXfokwm5MBLqOwFH0DL/p+Tw96TScWSeeM5NsgXf/n8BDjoCOROegdqU6z9lmJgcLw+F2y7kE69dv7EO7wQhaEMuNSEBJJc1V0ZGe6JRtfwQSwU8AQkDwEL4nyAiagoF58o2oTjSCux2pHYEoEuo7VNsuzKhlmAncwQRQeAK4GXnaCOZR5XgvsWqfJUyCoK3V5QQZHEYC9oxRzECXNgDnXHtHPsqS9zATYvQ35crFbe1G1YvVLa1eFW2tKr5wqVGvgAwKhf5bCdLiURgCQH22WRAG7IqqqK5H0lnkqCATirUlYgbC4R3pMy8kEnAm0wbk5KJYPK8kkAZWijz2U5Rc9kokATgCd/7xXr16BWTQMKSOsB8TQOF2f6j5a6G+YUcWNjHU35GZLHA5ZoB2i2a77CA8jj77NW1nokIkF2UBSGV9jHB8JWoDqA0gegXcqO0VkGahUBDrCUwAhSOA+2XnH6n+KgZvJhyQ6cLGCYEvHE44CIOh3WjR/FLPdsx3qnGW4CfcTTiy0ohA9Ao4V1szIs1CoXC6ns9+gMIIP4po1MAZJ9f/6y7u8Ey2SjbJDkJPouLQkrpqLJwzaaf4SFt/UD+5qOi1AQQT2UVq68GVQgRGvQIyKBR6NxNAYQhgDGKyMWmqcE4w8rRsT4g74TySz5FJM9iHFtFd9DdXJdMG8pVclAUgmKhWtL/er9yJwKhXgBJjkcZ8/YewIxNAfgkAob/PKM4/V3cgh0+p257tCYE28O4Hb8vlx1atWduH/uZwIoHFyUggX8lFWQJqFS4g/EKpeVeORIB5rGtqQur4w3onO2mkhTcpJd145G/3P4zgwg6baBDapbq9mutjGeW40O5yKb0K/0KC/lVqbSBaCtqAEuDysUiuKrtWZ6peAf/X6nJv6V0o1LIfAOnaJzEB5JcAZpAwbUBgjKq66yZRcjvnCxWLKNLWoaQY96MFdT7dR0sqbSAfyUVZBJpgvEUYqqi45UIEolfAqTQva7JQKBSl3C5kP0D+CACL8XWEbiKDTpXPHVdis/M1EUqKMfIJyDQ4hhbWy717ExQmuSiLWEv4F+EspQxWqROB6BVwAK0fT+8oz7QKhd7PBJC/3R9CHgNTayK4/kfYJd+TkMgniMrHhb5gaFcipKuNCo50aQN5Si7KMpD88rRQd0s6mEj0CtiFCPsdPYJO4wTnv0r9Rh65J4AbiKG3KEU2xdntVhESXJAFKTco8SaOC+ubGqENnEiL6026v43JtYH8JBdlGVERafmjUtUG5F4BTqdur4A0C4XaRUUqFtQcEwAy3D6GowYTJav/CbaGI+bUQi/ExHFhIuvMGwzuTtfr6T7DyUggv8lFWQXqL9ypPnUpFSJQ9Qq4pNXl3piFQqFrCKexGZD73f9MwmocrWkKOcwtlnZN0AZaEycEtqU16F3oP412mneNaw0UNrkoQ0DzaiH8mnBgKRGBqA1wvLZXQKJQaCCdI9SLmQByTwB3w4sOYZHV/+4UzqKLxlKCh2RtIBDck663kDYQT6UNoEZgCSQXabFZVMjBKcy+pUAERr0CMigU+jATQG6FHwtrKTzomqAN1M8fVIwPH9pAY0uzvNje++BNqJxnpQol7kou6l0HsBSANmfzCBeITM2iJQJVr4BX9Z5/GiZZQZzQlUQAI2LtnV8rVXQ9OK7pkJ1nNcWektkrlNjj/R0tso7U2kDJJBdpgerMHxLGKkJRbEQQiMYMewUkCoVa9gO4FDOIR/YJAMdOf4FqrJTHUlVyfVypk1/UjifSBl57/Z+yNoAmJshII0KYZVSavASTi/TwFWEmYXCxdTdSlQibqu0VkGah0LXCR8VmQA52f5S+tkMQNLnb35VagwYQAM6h7aQNkGawHy3Cu5PVISzB5CIjL/mLQkC2LxYSSDgCfb16BaRZKBSRqJczAeSGAKaTvf+9U7TbVpX+cqhTWUtl4Bhq3Tffy4lFq9d80Yd2oSEOt6dKW6RCP5w4WErhxFp0EJ4k/LQYuhupegXU6T3rNAqFPsYEkH0CgOr4Cqr+6JzTPl/KXVq7tAGyRT3+wAAiuIeMOhkXonNRDhEmPKj01ysUEYCIO1eu0e0VkGah0A+VBCoe2dv9j6WFHlaaZqg8tPA4X1TqjItF2N6xUo5Pj7d1bufy+kaSNrDInDYQSGeXKia4Cb8T2Z15JwIQsFGvgDQLhfoUjZRHlgigrWPldSTwmxXnn6u7aENI3R+v1IeiDaDNOWkDBwhtYHUqbaBEw4m1wUSNaOOmLuWWj3lN1isgzUKhX5gtR8/DBAGQ8EOdet8nEn80ZZvKrhILtIFoW7tMBvH2FdAGhpM2MD+VNlDC4cRaJ9pS0eVpn3wRgegVcJhevcc0CoVuFpWVmACysvt3rjwtSiwAm7db/Y8rZayuLdcH3eUbSGgDA2gh3p+qBFkJhxPr5dfPEcU2d881Eah6BSzSy9rEyYvF+3+CCSB79v8dmAB7b5WsQ3QEKtsHDW0g3t4p+wY6V67eDicFRALzUsUNlHgAkRrfEt4jjFZSbXNBBHjOGHq9AhIap2U/QNKelDzM7/57k7AvgqOrazK6nTIfVYq3VXNS0J+0oXvo5xWpSKCEehWkAkK9Xyecl4tgomS9AtIsFBogHMoEkDkBDAnH275UEn9Upb+A2ytJzZKPqzpXy9rAmrVy3MAgei6zU+UUyNqA1yfXTBBh06WM1eLY93RRFDZrJGDUKyDNQqEgrIFsBmRAAJ2r1iBI5E9+lfNPlfuPqLKfVeIDVlqad0URerx3mskpSIQTB+VegiVOAkAb4c+iI09WgomS9QpIo1Ao/FO/ZALIbPc/iIS9Wan6kziT7YrNXkjYu1IfLrSBz9d+IUcRqnIKPjWjDZRYdeJUCBLuIxydqVkgd4FK9Ar4TO+5pVEo9KlSyE8pZgKYSmrreuXsX/bGdrPwA8yu3b4Bh9sD3wCalfxOL6a9DMOJtd2NnITbRL5IWkSAeIDaxkbdXgFpFgqdo6RD87BIAO0rVvWjh/1Pj6j6oynUiFLVw5gAlIUbkrUAVYbh2bSLfUzPbHPqI0OvnFFZJtoA1O56wnWE/a0SQbJeAWkWCg0rpdJ4WN/9j6bdKaA4/xIlmrrU/wZlgnmotAG/Xy5wIeoN7O30eG8zU32oValOXNoBRNpgosWiPNfeVoggWa+ANAqFfi36KfBGZYUAaDfC9Wp/ONKjfp6q9Ndfs9X4s/y0gbDt3DMPk7WB55//O7SBn9Gifj9VLcIyCSfW69r7GWGyKCSbkgiS9QpI+AEiVsObb2QCsK7+70Kq1jtK1Z+ucMyE93qdmFB+qKa1geBepA3cTDtYLLU2kDjzDsfi5UICwDeEd1FNirBTMiKAPyWQ6BXwrt6zQTyKxaPUZ3mzsq7+nxSKxjsV55+m9JdHnTXGI7k2sGT5MvmkYNacj7GznUEL+3+mtAG3p1TrEaZK0kHfyHMI/fSIQNUr4F6jExSLIdbzi6VSdUkQANmhuN7uDYa2GdRme0mZPB5mtYGAzQMHl6erMvGNRK4RM9pAmYQTa7FS7MynaLsbpeoVkEah0BjhSF6vJnd/Uv/3isTbq5SqP5psrI0iS4x3/zS0gcbmRGXiBdWLoRWcSs/17VRdi8qgHmEyxEX1nuPVJKD0CrDr9ApIo1AozI9RvGbNq/8D6QF/oU1xFY6pqLp6DA/rQ856C4SUrkV7iK5FITPaQInXI0wGv+gpIe/UwWgMPhTdXgFpFArdVsh2dSVFADjDpl3mEaXqj07pr7e5+WJ2tIEWp0N2FC6vq4O6e7LoYbjBlDZQPgFEWkFFb79bCAcFI9Ht7W7PK/pEaLlAyAulXLIun+r/ALI3G+jB69lcfKSSA99AV9eiRA/D/6Pn7TOrDQTKJ5xYG0xUS5roFUSMjxuRoMUSbIsrOWzdFAHQzo/rRFqQ3xmUY1pBOJkJIPvagNLDsK6pAb6BE9Alx+5yrzMXThwoR21ALkgSisVX0HfcmoVCoW2K6crDgADWfP7V9rSQnlOq/uiU/prFBRbyoQ344AnfhebhYlr8djPaQBkGEMmA09Ph8UpZKBT6ban1rSiE+n9EIBzxqc/+VaW/JNGCmh9gjrUBmAMgg2aHHVrBD0m4/07z8LWpAKLSr0fYAyA0rT8qg0KhlVG7om7iMFvj5OG25eOH2haMGWSbT1g4drCMhknDbeHp42yRC1W4aIIt/OyTtuiqNZe5g6GNrYj9F3Ai+KdzpRRfsXpt/Muvz4r+/a8938vIHWZMsgUef8jmlKTtnOHoRLvPt5zmZIt6fvTgIMHwkXocxaJfsark4UMTWp3vaff6pAgIYMVqc5+1cs1LX0hSn+Yrf9ElD5ANyAhkBTID2SnJUTthmK1+4nDb0nFDbAvGDrLNHnUe/r3bwrGDDlo0dvApS8YNuZCu19VNHH59aPrYy2iBXdKNsZdELp50eeRfL8z3vvWG5J75Whf8b8+UYh/8T4q9PTMe+dUVN0QuGHNxz/cycoxLI9NpfqaNmhH6/U13eV950UPzsk09R7p4MzF30fffTcxfCSP47n8Nv2Pof2+b+5wP35NiM19zha+56Lq6CUN/CVkQMnEKZASyApmB7ECGIEuQqaIfyycMtdUSa9EXsb0+8HRb9YRhey0eN/gM+iK3V40Z9Mm80QPDc0adt5rwPf1+i/v80VtpUW3UxYyJ2whST0ySiBwk0hK2GL6PkR9MH/u9DN156o2weg5LHkbf09JnbKPnuAkyAFmATEA2ICNVYwZ+Apmh359ZPX7YXv8+73RZpiBbkLGiG9V0U/WkztMN2yb0399GbHY8qTN3VY0euGTO6IFr6ItJs1Wg10neaaMlegAMRsUDsgCZUMsIZIZkZy1kiGTpbpKpH0PWIGOQtepiIALY8AuhpowfYvtw+DlQVw4jG+bOuaMHBrRCr4CYjIWfwdAhAciGnsxAlkimgiRbf4CMfTDsbFnmIHuQwYI59768dJKsmtRMHLoH3cx1pL40081um20g/KTWSB4WfgZDF5ANyIiR/EC2IGOQNcgcZA8ymHdnIbyUDROH24iVoO4fSirKv+nmNhndOEA3LjmmjuKJLhBC08dKgQvMAa/lZ1YYQEYgK8lkCbIGmYPsQQYhi5DJvIwlZIPgj3068lyyR4acTjdbNSfJzco3PPo8qWnyCJ7gAiBIwoxnT4tFIhVSmp8CeA1ei/cEmQgKAjx7yEwKEgBRVEEGIYuQSchmTkfNhKGy8+HdwWdD9R9HN+CZnUL4AXoP7yoFEv7l9OwxB7NGnivNGnG2NGt4CuA19Fq8B+9lEiiMtlYt5i0VIIOQRcgkZLMmV85BnEW2Th5h+2zUuRD+YaR6xM3cIHYVdvoVBs3YSRT/y2UXSDX3/0GqfeQ+qfZhA9D/4TV4rbLLNLPmVjCnIGTHjIxBFiGTkE3IKGQ16+ONwWfKkUqkchxPrNNo5sawgFj1LwzCBOzg2M3nXzRZ8i1aJMXi7aaA1+I9eC8+I8zPs3CmgAk5E5pA4+LE8bssq1m3+3H+uHTckP2rxgz8cLbJm1o6fgirkAVUI2HLzxpxjrT01hulKKrXIow6VYw6vQavxXvwXnwGm2+FM+EgQ2blDbIJGYWsZs0fgKCDZeOH2BonDduB2OVps4w0l73+BScABJdAiJf99mbLBID34L34DCaAwp4KzE1xKqDWuCGjkFXIbH22YgSqSK0gG2M43ciXZtmIdw4mAEb2NLnZ5jfeLyGrkNmsBPsg4qh24rDdSL14z+xNgIlapozkCWQCYGQBkCWzmrcwBd6DzEJ2MwoSckwdaZs16jykKk6jG1hn9gbo9XJACU8eEwAjc0CWFhqECRtswOsgs5BdyHDaA86EZeOH7o2Ag9kWGKhh0nCeOCYARhYBmbIig5BZyO7idJ2BSD1EsgF9wChilG8t2CCS6/xRUpQnrWCIdhHAkCwQQMKXw/NZ2PmETJl1Bgot4FvILmS4Nh0zoJ7e9NczTsTZ/8NW7A8kMwQuGMMTl+MzfjxjJI+4aWG4zx/dC86po2S1MVMCwGfgs/T+Bv427gH3wrECuTYDxiRNFDI4EXgYMlyfDgHIMf8ThuxTNXrgcrN/dJYI+w2bZLWo5t880ebswbqJw+QoMSSNzE0CLIJMCUCkohoC94B7wT2x3ye3pA/ZmmXFGUiyCxm2HBOAHOMFCfX/53NGD/zciu2B0NGoiUVsnzpStmuwcOrp2jplpORnzcF0jDiEU4nZT0rKGRJAys+XcwzO4ZyPPJgBkC0rsgjZhQwvsFo3YO6YgfLZ/4Ixg26bY83xIKuGhixGiwNHGlAr5yiLR2COfHowSP6SvIj0F4A6KGTR/10qNT33jNTy6r+klldeMsbL/5RcH38kxSw0rsBr8R68N+ln09/GPeBe1MFfrM3lBpCtedb8AMjuvA2yDJm2dP4v3XBJH5rQp60wDlRBIzUQwo+dnlgpsXNBhZw8SqqaPkGaN2W0/G+FCGpJK2AS0PcE4xnNnUK295xZUtvK1eaAKrQWS2DjPWY/H/eCe8K98QlQbs0/swlCKqf805BlS/EAosbfnsQclo7/cGRkFPvfPGWELPyzaZFUXTBeanj6CclbNU8KNjVJ3oULpKbnn5Xmz5gi/z9IoJEXUi/UThhGQnaO/JzCTpc5lT7XoHvAveCecG+4R56r3OUGaGsHpg4KGlQFWbZUQxARRMsnDB1Ab3ZacQAuGz9U3um1N+4XHkzsEFUXTiT18kMp3t6Z2JloASk7FAgBqahyBpucRsw+AUMCcBURAbiYAPLiCCTZgozNskYATsgyZNr0QK2xJeOGHFg1emAg0xOAqAhllF9HQt30wt+6Fo7eYmp949/SHBH73MipxEwAjExPAgKQZci06bFA7t4z6GCyH6JWCAC2u+7CnThM3tXnTSNtoLo60RnFYDGFWu3S/Iunci46EwDDSJas+QCikOUFVpKDRIsiEEDMCgHU6RBAV2GKEedICy6/UAq7PcYLl34fCQSlJTf+H+eiMwEwdFBnnQBikOX5+SCAWgMCqJmQ0ACqfjFJdvrFO401ABDEwisvSpxfj2cCYAJgZKgBWCcAkQNw0LzRA0NWCKDGQGVvmjRCmj3yPGnO+KGS4+23DE0AOAPdn30qzZ00UiaM+om8mJgAGD03U2s+AMgwZBkybSkMmHbfA6rGmKv6qxDAcvkUoPeNI16cPkteIIuuu0IKNjZ2nQAowL9xnLT0ll8lzrpFUhFPPBMAQzkFGCfLmLVTgIEeyLKlcGDUGCdVYx9SG6qtnDka2exhobp0vY5sfPesz6SIzy9Fw1Ep4g9I3vlV0rLbfy0HBHFYqRkCcBcRAbiZAIqwOpAIzquGLFtqHIL0Qdq1dyD14ZXZVjMBDYQW2UxLxc3LO/zkUbI2sPyOW6XFv7pamjd1jBwElAgoGiL5OC9A3wEkAqkCtbVS28o15nrRp0MUeI+Jz8Y94F5wT7i3OjbbchcJSLJlJSNQmACvQJYtpQQ3Th5hmzPqPOQD3G01FyBZDwAEBMGGmSvCfuWEFgVC7ceJgY8DgHRzAVqmjOiKp6i57w+y1oRj1aRYvlwKtrRI8fYO88JPr8V78N5Un497wL3MFiGquEfOBchdrwCruQBChmWZtlQJGOeGi8cOnkhv/s7KH0RWXzSFGoP8cpgEZJfIiUEIb8RJgWPqSFb7kwAEuhg5/oqHl7QoxFYkBWlW1ffeQaaWhWxAei3eg/em+nzcg+IDwr1xRmfuNoBWi7UBIbuQYciy5QrBIhoQJwHubAQDGZFBUIADfsxnhIEw5YWgyqbUg/z/w8+Wlt1+k/V0YHoP3mvmb8wReSDJMkEZ+T8ChOxChi1FAXb1ASSbgQSzb9WYgc9bsTkWJUkIYmQvKwxpt02Th8vZd3qonzhczqfItB4APgOfZfR3cA+4Fy4GkvtEoEWWE4EGPg8ZrkmnIhAaC6CQAKnol6Rq/a31A3i4F2BeVMJkyEVNwGTgOcktPNbt/02QXcjwMiuJQOqqQAsTZsBhc0cPdGW7KhCDqwIzclcNCDIL2YUMN6TbIQhHB9ccfQQ0gd8So2y10hOQFw0TACN7c2mlRyBkFTIL2a3NpDHI8glDRW+AIQeT+tFgpTS4k/sCMgEwsgLnVGslwSGrkNnFcmHfobaMRiOpDx+NOAf5AddY8QVUcyovEwAjazUArNn+g66BzDZmozloDTEI2RIID96naszAWZacgXwsxATAyMz5Z7EQKGQUsgqZrcl091eGb9poG6kgIIIz6Ga8Zm8G55asBRQDAdxkORAI72ECKPzur86hMbHpeiGjkFXIbNYGKorWTxxu+3TkuQgQmkh/YLVZLYB9AYUjANRTkLv7XDVDCtkdctx+24rVyUGvwWvxHq7JUHjb3+zuD5mEbEJGIasZdQU2yhBEZVHp1kv7LBgz6AayNdabqxQ8xDBBiJH7MuKyXTh2sFR9128l+8zXJcc7byUFXoPXzhHdaLnMd+ESfxabzPyDLEImIZuQUUuZf1bbhSGooGHi8J3pD947Z7S5pqFc4rswQFLVQpE7IHfvGTNYLriaDHiNnJwl2rxzYlZh0GiyGzBkELIImYRsLkm3G7B5Ehgik0Dz5BE7LBg76CpSPTpNOCYkJxf3KJgTCWfIch9BkbCVDHOF6Yb3sBO3QKo/yQpkxoTa3wkZhCwmhH+ILS9DIYEnT/mJbdG4waNowdhT3SzvJoX1ByCVFDalIwXwGryW7f7Cam0m/Gt2yB5kMK/C30UC9Edhb3wy8lyoHT+pGjPo9TmjB36T7KbhUOJEoeLOIeBnVNiEn2UpIv4gY5A1yBxkDzK4ZHyehV8dI9AyeYRcRLR+0vCdF40dPL5q9MBPSZX83ugLoCAIkwCD0Vv4a5IE/JBMbSCz4DPIGGQNMgfZy9pZf7oDiQZgomXjh9pILaEbGrYnspDoZueTjbJmjkF8AKuYDEa3iaZ33j8nYeevoR1/AcnUpSRbe+GMH7IGmWvIRqRftgYqjsRnTJD7Cn5MN1czceieZJecvmDsYLQn/ohuvB0spjibEN6YsnrMdPr/Cxi9IJPnWHEdl/3rhSpyrjSinp7LOdOv8gRZUDliN5CsdJDMfEyyczsCeyBLn4w4V5at9ovGF5fg9yKCicNszZOHy44JpCLORj2yScN3pS9yHGHGgrGDfkdf8BHSFp6n378evnDcS/Qg/qnBi5FLpvw78MCdK/2PPSD5H7tf4AEp/MQjUvTJR3OKyF8elQJ/elDydf3ddKDc62P0eX+Ugo8/lNY19OeH5c9RXbcGb7+xPnjNjPcD118+O3TVhe8EbrxqfujyaTP9N12zOHzZ1DesXEOXnf8f/41XLwhdOf2/gV9dMTd4zUXvBX552afBay/5KHjtxR/S35hFi/dFnTkqN7wYmTHx5cC9v4v1XHP3S6GM19xjUvTO3zTKf0P1N7H2IQOQBcgEZAMyAlmh3+8G2YEMQZaaJuUguCcf5kHrlJGyowJfBECHkneHnmVru2h8X/pCO/qmjelHD2P7Hpg8bPvYZedv77Tbr7U7HOtaHQ5Jgcfrk2LxNine1p47xNslfyAo2VV/Nx3I9xprkyLRmOTx+ekap9+Jq8/o6pOvXvp3OBKTfP6AFApH5fsJhsJSIBiW/P5gwOf1PVdbvfyC6vnzjq9etuyi2nlzj6xevvyautmfHWLlWjt3zg+qly+7rHZB1Y+qly2dUrNo4enVS5eMqlmyeCDh3OqlS8dJNtt2veaozLDRZuvjbmkZYnc6VnbPoV1yut3yfGS4nmLxQPDsEJ7j9LFdfxNrHzIAWYBMzJd7cibkBDID2Snq3T4dQqgj1As2w7+D08fa6GH0xLTRNt/bM23e9o6dHV7vc600Ca0uVwL0sx9x7Tmudx9r75Q8JHRdfzctuCVvMCSFiQQ8gZAUaeuQPzP1tV3y4H1ERD4S+lAsLn/nIBFJIAJE6ef4VncgOItwxfL6hulLGxoOWd7QcOWypqYDrFyXNzYeTNeL6Xo0XScSTiYMI5xNOIswqu6zT3rPUbkAa+2j923eSGxPh8fzgXr+7LTW8KwzXEub450rf9cpSbboXx+jv9m93rH2G4Qs1AvZKCuBz2S4fD4Zbr//EJqIxeqJoYmShSrXJBAhAXR6vRmTgIt28y7BNnONJ65h0nRkAogKAhDCHwhHZTLwhyIghy/tbs8/HB7vGcvr669YVld3AF2vIpi9HkK4mHA0YSLhZMIwwjmEnxNGE8p2nflCEVtdc6ON5vlamquN6rnzkPaFjSDDdTSb0J9gA3hYGNH2dhtNhM3l9Q0iEmhXT44bXYXaOnJOAhA0u1oDSQMtTqdkB2nF27JOACBC0jI20rWlsdX+QH1Ly2EgAiaA1MONTcZLm4zPfyzNsTsHm8xKwhAW/jSHNxi0eQNB28ezZ4Ghb6CJ+V49ST5Sk/PR/gpCmCkBNNrtEmkztKvkhADk97j9gTX075frmptvXVJbsz8J7pVMAEZrK2SjHd4WDEf6kbA/q50zPPcM1802wkOEvkwAmbC03w+GtvmCwV1pol7S2mghEoR8+AMgvBkRQGurfIVJkPAJZJ8AlM8gk8NFr72+uqHhuiU1MhEwAWhGKN5us8vapXcsraMv1fNFpmc2tMulhENY+LPlD/DCJ+D/AU1WtXqyYKNj0efeH9CWtj9ATQC4Or0+MmEC8iLLBQGIz/je4fHOpZ/Pg6Avq6sbwASQGB5fYlOhZ9Pf4fYs0G4qwcw3lS8JE1j4szVhpKqF43Fbi9NFpoBvBE3SSvWkkZmQDWdNan9AJD1/gJYAcAWgveSMALo/K0haxytNDseRBr6BiiKAYCgsm5V3/vNxm9Pj/R3NzxbtWopnvpaeIuzABJBlf4AnELBJkoSJ+w1N1sYsH9eY8weQsGWDAHCFownaQE4JIHHdQJ/1QaPd/ujSutoBGt9ARRGA3e2BPwla5Sm0bqI9HX9e+TlmuEaaCUez8OfIFIDqRiy9OwnPa728tvHcHw1CbcexXjYIANcmu4MEOdzTOZh9ApCvbn9gLb3vrrrm5tsWV1f3F0RQMQSAnR/apD8Y2oXWy+vaeQqkGV+i0j6/I8xQhJ8JIAdDZu/E0c0PicEbexwN+v15MQUgdCCcbBAArkq8QDieWwIQ181EYD763DHVDQ3XLqurO6hSCIAEnMxIB9bQL+wu97psrB3Mjcph+DJhFxb+HB/fBMNRmkgniAAe3NVZPr4xBQiiWX9AKgJQrtAsnL6ESeANhHJFAArJdJLKW9XscP6IBHxGuRMATpOgQXp8/sNo3up7Ov5w5h+3vgbCibkQ//YSfsLCnzdVLmhr71zTx+nx3kGTuFk9mRCYfBwN0n1syyYByCaBwyEvKkUTyBkBiCu9fy5pH8+SJnDUsvq6CeVIAD6sF0J8xartnB7PI73O/C3Gk8Q6OuX5QKSg2P03EH7Jqn9e/QFdRzmI4X4rB+e4ZkhgPf39BtpROrNFAN0mgUsW7lwTgHjfOvr8hxtb7dcura39abkRwMQH7rCRtgMN4DztCRJpkZbWCogfcwITMNStNbxD2IOFP+8eXTeOBUEGx9HP9h7HOSQUYOo8mAMLfKHQZFoQz9E9rMoGAajjBWAW5JoARMLSZrqGSFAurmlsHEMawdmlTgAil0T2GZG2tgfN0Ye9zvwtnB4pwo/3qbSGGOFMFv4C+QNIMGzNDjh2fJNoYj7vObmxfBDAVsJj0Xj7rrTQfkaL7B/aXSZdAlBOCeAPwMLLMQEk/kY0toJ+/0F9c8soIoGfkfCPKkUCkDVEfwBHx7vTz6OJ2B4lU2dDj2SfgPlkH1n4xRGwSsPcTPgtoQ8TQIGGJ5CIDwjH2/qS8N2nDuyQowTj7fkgga9x/OODgzIS3Z4W3Bl0L08REcQyJQDkECRCiF2yFpBrAlC0Dfp5MX2PP4AAcHZeSgvcQ/PgpjXhDUd2cni9T9A8fNvscG5pUj1LqPARk8fGsr9HCL8m/HwWYT8W/iJge9nDGwjsTRP7vxykdJqBh3Ay7QyyWULmR1+3z3+C0+N9iO7DlwkBkIYjYfHiqBDHVfkgAKFtrKNn+4+OlasPLCUHlz8as7XY7ZiHC+wu97fq1OwW8bPZmhLC2dvDtORMvyIcjY5WEeHl/6k2tTMfBUQEPiDsiwWBHQi255+fesZGQnx6Q0sLik20kmBvS5cAcAXgG8B3yjUBAPTzFvo+CwkjCdsXOxG4xHEfEeWRtA6a1YILtV35vviuqZx/0faOHkVhoFFGE3knnOlXdEc98AcEw8If4J1GzP9lvguIECAs9ymCgsCT2qYmG9nSiLa7ioT5x/UtLW/SPdWRgG9OhwBwxVFhInglIAtsjglA+W6rCQ8TDi5WEgjS83aTSUgawA40538zCvLBz9Cg8L2NjozlRC16vgY+Jc70K0rbD04f5HiTHe5InPdu7T4azE8BEcJawiRlccCBRjhUlZF3JQn3cUQESG2eSz+vs0wAys8ExK+rowdzSADKzreIMKoYtYFoNC5OhrwT6fp1qhBxJc7Cr9EGEunfAamnw7Ar4ewLzvQr4uGW/QGyB3g/u9vzcSEKiIiEkOO0BKAk4AgiuILMgqPqmpsfp3ub2dhqX2uZABSzgF6H3QrIMQEoWEN4kDCgmEgAWmA03o4CHy+bNf+6tYFglzaA3/nFWb9OkhBn+hX7mLNooY0mD7bgqbQT+LOc620W/yHsiQAULQFoiYDMhEMI97S63E+T4IdJ8LdZIQDlpKDFmVjwEGzDWgPZIQDF3IEX/Gw1CRRSKJAxSjZ6X6fH86jVIJ+ENtDTN4DwYJSeUyUJcaZfqfgDECPQ1NoCdXAGCf43+S4gQthIuB33Y0QAmusV1Q0NB9Q0Nt5K93lvQ2trPQn1RisEoEQRJo6q4rkmAHUgzE3qSLhCCQcIQHYCBgIDaAP4K32ftVbDu/Gd4fVXjvrwOxFQxpl+JWUKCH9AIBSBQ+gJEoxtOvZcrrGirXPlsCW1NQdbqNR7JTQDZOrRjn4DCfUsEu5vzBKAcgUJQHVNWYg0cwJQYuGh8ZxQaAFxonoUysj5ff3ouw0VWsomq9WgfV0nBe2c6VeqQ1VaHDvC7EIUECEsc/n8A0morVTqPZBwOb0HmsO0JrvjChL210nYVxG2mCEAxXzAkaFcdCSeUwJQ4CRcSOhXSCKQ60gSQrG4TQTqPCsiNtPVBiL0uxPpdyz8pTZQQcjhlv0BPyPBj+S7gAg85yRcn5GNf32Suny6BED4AWEqve94ROQ1tLRcSEL/OAl9mLA+JQGoiAC2rC4RZJcAgK+Eg3CfQpKA6m8jTPfxTHpDhGNxENsAJoASHPAFIH24vqUZpcSuIBL4Lt8FRGSvcjjylBBsywRA+IlIykHzj7PrmpouIK3gFoKdBPzzlATQlVdgl4UeR6I5JAAlRv5t5SSkECSg+rtHiijNTOZwuRLgxaNEjwbhE/CHwjvRzv9MjyjBPBUQIUT8ocg0k6aAEQEgOQdVfgfT55xU09gIjWAaEcDSFpcrZCXBCDYuKhPniAAUNBJGFyJZRkUA0wnf65xgxHV+r4f1hKvY9i95f4Bf+AT8B9ndnvn5LiAi1El7Q2vrbUtrawdkSABDCKcSxhERHFPd0HBJY6v9jPqWlndaXe6F9PMms8VHEE5sVH4sCwQAdBIuJWyXTyFSEcCjOvcUJQwSpxeRFPf/BmE3JoAyGB2r1sqRYkQE59I1nu8CIqK0+MsmTAGzBDCecBxhugg3voII5mgigufoe71Egr62R0yB3pW+PwKJ/OFwV2isnGyUPQJQAoeuzmfsvPg7ENyPde5nrkqozyC8K04ytK/zE05i4S8jfwDSh5fX1YtmkK713ckieTsa9NN9nJXCFLBKABcSDlOOEPFeMg8OSgQXue4iQfeSwH+XSiNAIJFy/JVlAgA+J1yvDiHOAwHAbq82SNraVaUl7Em4kRDUxHFcz+f+ZekP8Nt8Ibk09AvpVofJpIAIqdtPkpBenQsC0AYXkbnRn8jg1/QdZ5B2sJCunSTwW7UE0Ox09Kg9AG0AmkCWMym/Emq35VBabbRhquhD8fu9ULHJ4LjyIJ3POZXwmtj5HyPszsJflv6ArviAQ0nwl2a7gAgKTYSSVJklc6Ojye64J0nfvmwRQFdwEYiArteQun9eQ0vLG/R9m0nwv+smAKcmwMgpkyL6FWRZM/oGEZJWSUAlpLuJgKMjksUbiN9B23he5x7g/LvEgEx2JqD+wY4s/GU8Im2dSuvxIbTQO7JRQAQho9AinB6vkkCyzei1tLO+SQI5IE8EoM4/kLsGIzW5rrn5j/Sd/0cCv7JFQwBNItsQwHEpciiySAQggWvMng6ohLO/iMhbRQgRnkGAjvpzlM9S/XucqNikvYc6wo9SaRZMAGXsD0B8wKvvzUR8wI0kCBsyKSACJyLUZqVXAJqWkND8Sdi+erEBQX8ocoqBLyBnBKBNRKprbjqitqnpViKAp0jwG5QAoyZRfCRRiShhIsFZCrMgSw7TdsJwiwRwvTjCU39OmHA/4SgDAYYa/6HBPXxUzPUNeOTDHyC3Hg/tpk4hTRQQMX80CHUfwiHev5Xe/67L7z9uxeq1UFH/auQLiLS1P2LgC8g5AaiuB4vGIEfVNDZOJ9PkRhL6V0n4Y4TvFALQdmSGozAL5tIStQCmIAAcI/7dKNqSYBf+hQN1SABEs8Lgfe8Ic4IJoCL9AV6fEh9wBO1ytVYKiIgIP8nh9ii75NekTTxCmsU+Tk9XIU0srlqD90dI4O5bUtvLF5BPAlD3BpxAmgH6Agwl82AymQk3EQFU0ffy0ffbpCUCEKWcR08EmKZ5AAG80yQBABeLrLxkEYjLRNzB3qr3gTxuTRL486Ji8/OoNFOAzIBQLKa0Hh+pLumdrIBIIt++R8moMFKP/dF4P2SjOZqa5MWH+PFYR+dUgu7CpZ30A2GXFwMBqFuDnU33dWZ1Q8N4+p6H0ne7nAR+Jn3PNnVmpdo8QFQlAooskkGrogWYIICdhQPxSxPRe3NFBJ9SumsnwtM6JoRijvyECaBi/QGJ0uKbN29Dq7HblN0uWQGRRNkovxJNOJ80hrOaHa1yyDEIQFm4rS63rbHVfhAJerPY8bSfEya7+gQStiuLjACUzkCjGlpb5QIr/nB0RxL044kMbqJ/fyacp5u0ZIDEI78cVRiT02nlnHpjUoCDbqgFPwA8+xcRAibIBWnATYR7COcRxovahtrXfUsYwwRQ0UeDfqX1ODrIvGHmaDCRWRf4r9PnQ3ixXI/eRQSgHigJtrS29hAiAVSRrdGrrBNt77inCDWAHq3BkFWJICpUXsbpiTcY2o3Mp2OJEC6j5/UXQq1o1LpVTQYwE6Ad4HQFTlIQg9zfAFWNE/0HvicCnIwGLxaOAoGzDM74jfClEH49DQDa2UQmgAofchmxROvxY2jxNpksIPJxW+fKAYq6rx1KTUDs8GQGTBFHYFotwEv29v0qX0DREYAyUG0J1Y6h6ZC2JBOCIId9SdBPpn9fjwArQQhhen6r1ScsGmyl1yyi9x2OzzEzNCQA/8pbVnP9dYDEoOOZACp80G4ktx5vdjrhDxhHi3NNVwGRcDSZI+tZdWipHgGIs/cBtNMt1zsR8AZCc4gk+hc7AeiZT75QSNagQAiogRgjNZ1+vy8J9UGEk0jAL6Lr7fQc7wWIHO4m/IGe8TVkRv1g1pxFtkAkoifgumfymt/1F89/YwYE8IQSosyDnYJy6/F4+8rtaEH/QWk9nqK3ALzLt+kluwgCgHBevaSmZgCZAg/Qjt+o41SMhaLxY4kEIJQHCWE+AhWBCPDMjyGcRRgILz3hNHjtBQH8QvkbgjysXEEAlxJ+SJhMOIUwgnAuHIHi75p6dlDjQQCIsVA0BGhV2N1xRSJWAp7E79GxlzSuQDQiE4nO7n6GCNntm4IEdhexAOvS6Ov4P67xz6OXP8CVaD2+Fy3U//YsINKRLOPtfO1CFQSwt9i994BnnQhgqqgvr81Rv115HeFMwj6EkwQhHC80gqMIxwit4gQRTXiK+m+ormeZ+PdehNMJ/YWmAUI4lnCkIKDj89UcVPXszhC1BPCM3CKlN1XU3k6CBDYk6dfwKaFeOAaRAXhLsZU251EkA9570Xr8eNq1HCYLiHjVraJVfQFk1DQ2yvayiIP/i877WwiHt69YZatuaOjx3kIjjwSA8/h/6TwbF+EKdW6+DvB/T4p4AD0CGCniA/qrC3yy8PPo7Q/oaj2OJpPeyUQCX6hLbichgYXqyDKtIC1ctkxZcIfrpKpCC/gNnIkwQyqUAPY1OC2RhIr/tjjS62dAAnuLfAG9PIx7Odafh+nR1Xo8Jrcev1854jLRcOI1kYpqlKWmYKKOKYB4gcMqcXGqNIAXUtju6Mz7D0EEO+kI9RHChNC+71MlxZcHDwv+ALn1+D5EAu93FRBJfjSIAJQHjFJeVQu1n/BAa7WAmyqYAGzC3p9nstLQ6yLjb4C67BjhDp3XNwn1nxc2D/OjrrVJaT1+IpkAHpMFRL4WNqstBQkcLqrOarPUdq1gArAJLeifJgt3fiuEG36VyYSfCzOgV2HWVGHHPHjo+gOApkTr8ekk/F/JUYKelAVEYkqYq5YENIt9qCq0dZPweverxIWq49T7tYjVN3u0t06YVXqOQJwoHMAEwMO6P0BpNRaJ9XN4vI8qCTEmCojUK1FmSUigjzj6ulObyVaJQ0MCeDbDDGx6q/g3Z/3xyNwf4A/0d7g9n1goIPI+YX8TTsGK8FCb/c6a36M6b1WGBUgGseefR0Zj5gdvK63HTyNTIGCygMhWURhkZ7MkUCE7/E6ie9Bxeuf7Os/mSFHAY5sFwf9epBxPy3dvAh5l6g9AqGtjazP8AZcorcdN9BZYL7z7GS1ChCp7A6GESRIIyLUNkcNQggQAMnyE0CGah7wrvPm7pNAQDhAJQMnqCzwh6gU+IAT/B3zuzyNrQ9N6/EkzBUQEVilpp+ksxkR4csDWaG8FEe3pD4d3hjbS3rlKJqYSI4ARoky49uTkTcIQdVVeg3P+qiTRmD/kAp88cuwP6CotfgAJ4ZxUBUQ0Ia2nWV2ULtHf0BeK7EiaB3LwFxD+Qz+fiESahuamUiOAa5Ok8SJs9yWR87+9gTCfLEKn9cytX7PQ88j5WP/tJqXV2Fl0jVroLTDPSrSfIvz+cHQHpNW2utzfJmr2BxCL8BmZHvsRSmaxi+99oomqPjANniKcog6qUmGKQcnvV5TX8+CRW38A2eS1zXKg0FUklOsSBURM9RZAwsseqUigt/C7ZOFHU0/xN3DefXc+++5l0QmIzr1tJj34OMKbqsne28PAFJgn2n3xIuWRY39Aj9bj3mdlU8DllktepVjUG4Xg9jMS3GTCrxMSO7lU1F7NLj5alPQ2G+RTK5J6RgtfQY1B04/9mAB45MkfkIgPIDI4mAR0oYkCIuo6dRfrCa6e8MuOxlDYSLtwid52pUgCp4gqvlbO9b8VEX9bkjX/5MEjL6NtxSrFH3CeKJ2dqoCIurPNQLVAGAp/MJTKtJhTStVtdGL/XxWh0Bk1X1U7AXnwyMtQWo0tqq6GP+CXJLDfmyggogBq7LFYsDjTT1P4FfxNSZEtMgE3U98PKdQP6RVOtYD5ZroN8eCRfX+Av0fr8RdNFhBRgEIX+wUjMVsg0tPmT6L2G6XInltkBLCviPY7QNvIUwc7iiPClRYFf5NwCJ7Kws+jgP6ArviAw0l4lyWOBn1mGmpuISF/noT9GCKP33Y7/MJWO+3gVODqQguASqAPErkQq0WU3sMirr9vEhLoI3wjq5J8zzrR+vtVEfV3mZLpxwTAo2ADKjwZ9Urr8aEkxJ0mCoh0kUA4Fo+5ff71iCfASUIaPfc2CmEoFgK4UsdRFxfn+6cnKe21nfgeawy+5yfCZOinKQTCws+jOPwBGE6P92Y0xpB7CyQvINKj7ViazTYV7/jYIiKAh5Lca4fYxc82CPTZTmgzXxjEBhzHgs+jOP0BSquxROvxV00WEMkG1iihxkVCAJeYaNqxSgRGoWrvPhqh7ivKfW/RiQmYxELPo2iHs6v1uO8o0gDqEkeDgUx2dzOIiTJjxUIAe4vQXDPtuxDWu5jwexHrv6uqbFpYx9S5nAmAR1H7AxKtx50ggVFEAqtMFhDJBI3FEgWnIoH9RJmzry18j07hPIQJ8aBOV18QyvVMADyK3B+QKC3+5VffovU4vPubECUYisVzRQBFU/pao8rvIDz7gSx9TxT6uIAJgEdp+AP8Xa3H/2OygEi6eLmYCorqOPbg8FuWhe8ZUPL+efAo+qFqPX4smQLNJguIpINHi9EjriGBY0QFoHTbem8RiVTbMQHwKA1/QDCUaD3ucIAIJhAJrE30FohlmwBuKdYjMQ0J7C8CeKy29f5KxBDszUd/PErLHyBajcXaOrZzer13kxawxWQBEbNAZ9yLilkwdNp6P2OQ0acc9S0Q+f0fiSjCkdq6gTx4lMxIHAt2tR5/x0IBEbO749ASSwXeR8QA6FX6/U4UDdnNqCswDx4lN3AsKFqNnUBmgLPVXAERM0ACzQnFmAmY4v8HJKn0+zALPo/y8geEwurW41PRetxkAZFUQEXcA0s0FRjp0E6Dpipc3INHeQ2l9XgoFt/e4fE+hNbjbp+pAiLJMLdYauGpUntRtutMoeqnSgX+o0E/vwFMADzK0B/gV2r970sawAdKya8MCOClYokBUAn1YMIiUfTkr8JJeZIo2rG3aBCykxDy13S+U0ikFPOC4VF+o6a5ARmDIIKTyRTwWSggood7i8VG1uzsPyMsUcXwI6w3SFhK+C9hpsjv36DznZYpCUI8eJSfP0C0Hm+0y/6AC0kL+NpkARG9ijhXFpOTTKebz+sGbbuT4UF2/PEob39AV+vxKFqP/wmtx00WENEeAQ4r8ghAFPD4jYV8AJgORzEB8KgQfwBKiQX2JzPgMysFRFTZc8eUQAQg8FPCn4SDb4NBazA0AvkJH/3xqKghWo+fQQQQIm1A9geY1ASaCf2LWVB0qv2ga++FhHsILwgn4W2EQUplYxZ+HpXjDwglWo83tLTAH3ApkYBcGBT9BYKkDaTwC7xZLOXALWoD6so/3NGXR2UPpA3DH+APhnciEnhQNBnZrDQexTFhJI6AoV5awV2lKDAs9Dx4aElAdAbyBsM7kjnwQzQeJdPgFSIDPxHBd4gaRP5AKBpTzIOvRa88Fh4ePMpDEwjIQM4A/AKhSAxkcCThEvr3n+1uz1Knx/sdagwSESwjjWB/tAjnwcPK+H8eyaTP4B2mbQAAAABJRU5ErkJggg==;container=0;" parent="9GvEFEXf6PaLgaHzI8d7-118" vertex="1">
          <mxGeometry x="8.166666666666629" y="10.00368421052633" width="26.27606752730884" height="26.27606752730884" as="geometry" />
        </mxCell>
        <mxCell id="9GvEFEXf6PaLgaHzI8d7-61" value="" style="rounded=0;whiteSpace=wrap;html=1;container=0;fillColor=#f8cecc;strokeColor=#b85450;" parent="9GvEFEXf6PaLgaHzI8d7-118" vertex="1">
          <mxGeometry y="40" width="460" height="190" as="geometry" />
        </mxCell>
        <mxCell id="9GvEFEXf6PaLgaHzI8d7-62" value="&lt;font style=&quot;font-size: 16px;&quot;&gt;MultiUtilities&lt;/font&gt;" style="text;html=1;align=center;verticalAlign=middle;resizable=0;points=[];autosize=1;strokeColor=none;fillColor=none;container=0;" parent="9GvEFEXf6PaLgaHzI8d7-118" vertex="1">
          <mxGeometry x="174.9978616352201" y="6.279999999999973" width="110" height="30" as="geometry" />
        </mxCell>
        <mxCell id="9GvEFEXf6PaLgaHzI8d7-63" value="&lt;font style=&quot;font-size: 10px;&quot;&gt;Multiconversor de unidades&lt;/font&gt;" style="rounded=1;whiteSpace=wrap;html=1;container=0;" parent="9GvEFEXf6PaLgaHzI8d7-118" vertex="1">
          <mxGeometry y="40" width="91.37" height="30" as="geometry" />
        </mxCell>
        <mxCell id="9GvEFEXf6PaLgaHzI8d7-64" value="Calculadora" style="rounded=1;whiteSpace=wrap;html=1;container=0;" parent="9GvEFEXf6PaLgaHzI8d7-118" vertex="1">
          <mxGeometry x="182.74999999999994" y="40" width="91.37" height="30" as="geometry" />
        </mxCell>
        <mxCell id="9GvEFEXf6PaLgaHzI8d7-65" value="Conversor de archivos" style="rounded=1;whiteSpace=wrap;html=1;container=0;fillColor=#f8cecc;strokeColor=#b85450;" parent="9GvEFEXf6PaLgaHzI8d7-118" vertex="1">
          <mxGeometry x="91.37" y="40" width="91.37" height="30" as="geometry" />
        </mxCell>
        <mxCell id="9GvEFEXf6PaLgaHzI8d7-66" value="Traductor" style="rounded=1;whiteSpace=wrap;html=1;container=0;" parent="9GvEFEXf6PaLgaHzI8d7-118" vertex="1">
          <mxGeometry x="274.10999999999984" y="40" width="91.37" height="30" as="geometry" />
        </mxCell>
        <mxCell id="9GvEFEXf6PaLgaHzI8d7-67" value="" style="rounded=1;whiteSpace=wrap;html=1;container=0;" parent="9GvEFEXf6PaLgaHzI8d7-118" vertex="1">
          <mxGeometry x="365.48999999999995" y="40" width="94.51" height="30" as="geometry" />
        </mxCell>
        <mxCell id="9GvEFEXf6PaLgaHzI8d7-70" value="&lt;font style=&quot;font-size: 15px;&quot;&gt;Elige el tipo de conversiÃ³n&lt;/font&gt;" style="text;html=1;align=center;verticalAlign=middle;resizable=0;points=[];autosize=1;strokeColor=none;fillColor=none;container=0;" parent="9GvEFEXf6PaLgaHzI8d7-118" vertex="1">
          <mxGeometry x="130.0020622568092" y="80" width="200" height="30" as="geometry" />
        </mxCell>
        <mxCell id="9GvEFEXf6PaLgaHzI8d7-112" value="Subir archivo" style="rounded=1;whiteSpace=wrap;html=1;container=0;glass=0;shadow=0;" parent="9GvEFEXf6PaLgaHzI8d7-118" vertex="1">
          <mxGeometry x="23.400000000000034" y="180" width="123.07" height="30" as="geometry" />
        </mxCell>
        <mxCell id="9GvEFEXf6PaLgaHzI8d7-84" value="Formato de" style="rounded=0;whiteSpace=wrap;html=1;container=0;" parent="9GvEFEXf6PaLgaHzI8d7-118" vertex="1">
          <mxGeometry x="88.49000000000001" y="120" width="110" height="25" as="geometry" />
        </mxCell>
        <mxCell id="9GvEFEXf6PaLgaHzI8d7-109" style="edgeStyle=orthogonalEdgeStyle;rounded=0;orthogonalLoop=1;jettySize=auto;html=1;exitX=1;exitY=0.5;exitDx=0;exitDy=0;entryX=0;entryY=0.5;entryDx=0;entryDy=0;" parent="9GvEFEXf6PaLgaHzI8d7-118" source="9GvEFEXf6PaLgaHzI8d7-84" target="9GvEFEXf6PaLgaHzI8d7-106" edge="1">
          <mxGeometry relative="1" as="geometry" />
        </mxCell>
        <mxCell id="9GvEFEXf6PaLgaHzI8d7-103" value="" style="triangle;whiteSpace=wrap;html=1;rotation=90;container=0;" parent="9GvEFEXf6PaLgaHzI8d7-118" vertex="1">
          <mxGeometry x="180.49000000000007" y="127.5" width="6.96" height="10" as="geometry" />
        </mxCell>
        <mxCell id="9GvEFEXf6PaLgaHzI8d7-115" value="Convertir" style="rounded=1;whiteSpace=wrap;html=1;container=0;" parent="9GvEFEXf6PaLgaHzI8d7-118" vertex="1">
          <mxGeometry x="168.50999999999993" y="180" width="123.07" height="30" as="geometry" />
        </mxCell>
        <mxCell id="9GvEFEXf6PaLgaHzI8d7-116" value="Descargar" style="rounded=1;whiteSpace=wrap;html=1;container=0;" parent="9GvEFEXf6PaLgaHzI8d7-118" vertex="1">
          <mxGeometry x="310.3999999999999" y="180" width="123.07" height="30" as="geometry" />
        </mxCell>
        <mxCell id="9GvEFEXf6PaLgaHzI8d7-271" value="" style="group" parent="9GvEFEXf6PaLgaHzI8d7-118" vertex="1" connectable="0">
          <mxGeometry x="271.22999999999996" y="120" width="110" height="25" as="geometry" />
        </mxCell>
        <mxCell id="9GvEFEXf6PaLgaHzI8d7-106" value="Formato a" style="rounded=0;whiteSpace=wrap;html=1;container=0;" parent="9GvEFEXf6PaLgaHzI8d7-271" vertex="1">
          <mxGeometry width="110" height="25" as="geometry" />
        </mxCell>
        <mxCell id="9GvEFEXf6PaLgaHzI8d7-107" value="" style="triangle;whiteSpace=wrap;html=1;rotation=90;container=0;" parent="9GvEFEXf6PaLgaHzI8d7-271" vertex="1">
          <mxGeometry x="92" y="7.5" width="6.96" height="10" as="geometry" />
        </mxCell>
        <mxCell id="9GvEFEXf6PaLgaHzI8d7-120" value="" style="group" parent="1" vertex="1" connectable="0">
          <mxGeometry x="400" y="470" width="460" height="270" as="geometry" />
        </mxCell>
        <mxCell id="9GvEFEXf6PaLgaHzI8d7-2" value="" style="rounded=0;whiteSpace=wrap;html=1;container=0;" parent="9GvEFEXf6PaLgaHzI8d7-120" vertex="1">
          <mxGeometry width="460" height="270" as="geometry" />
        </mxCell>
        <mxCell id="9GvEFEXf6PaLgaHzI8d7-13" value="" style="shape=image;verticalLabelPosition=bottom;labelBackgroundColor=default;verticalAlign=top;aspect=fixed;imageAspect=0;image=data:image/x-icon,AAABAAEAAAAAAAEAIACnRgAAFgAAAIlQTkcNChoKAAAADUlIRFIAAAEAAAABAAgGAAAAXHKoZgAAAAFvck5UAc+id5oAAEZhSURBVHja7V0HmBzF0V0hRM4gRMYEg8HYZDAmKOcsIYQROfxgDAYM2AaTk8EYY8AYMMaAAQsMmAxKpyxdTptzuqBIRkJ5/nqzPXdzczO7M5tD9fe9b06n3b3Z6a7XVdUVbDYelke8Y4WCgYSXCXvj3zx48Kgc4d+J8AZhNmF3JgAePCqLAH5O+ILwDGE7JgAePCqHAPoQ/kjYRLhUIQUePHhUxu5/IKGF0EE4jgmAB4/KIoAphI2EDwi7sPDz4FE5BLA94UWCRLiFd38ePCpr9z+KECSsJZzOBMCDR2URwFWErYQqwp4s/Dx4VA4B7Ex4R6j/9/Luz4NHZe3+JxI6CV8TBjMB8OBRWQRwm9j96wj9Wfh58Kgc4Ye9P08QwJ9FMBA/IB48KoQAzhOhv+sIE1j9L6u5NQQPXiQKHha7v5NwMC+Q0hzeYMgWiMRsLp/P5vR6bb5Q2NbeuaqPSOg6nDCI8FMlv4PnmIUfGECoFwTwDxEMxA+oxIYs7KvW2poddpvb79+XSGCiPxy+lebyScIsQojwlbhOYQJgAlAwQaj+CP+dwQujRAkg3ibv+iT4pzrcnqpWl2udNxCUBLFr0SA0Ap7rCieAvoTnxKIIE47mRVGiBEDqvyRJfRwezxMk/BLg8QekWHunHgEg2Otmnmve/Y8geMWimCkKgfADKlECiMbbd6Dd/xWFANw+vxEBSOLUZ08mgcomgMtE3j92hF/yYihtAujoXNXX7na/oBAAmQM9CEBDBp+L0x+e8wolAOz2b4rF0CG8w7wYSpUAQmH5SgTwF4UAnF6vFG3vEALfKYVjcS0JPMxzXrm7/wmENrEQPiHsxguhtAmgyW63keA/qBCAw+ORom0dXQIfjESlSLxdTQD14hSISaACCeBmofpjIfyWF0HpEwAJPXBvFwG4PT0EPhiJSf5wRE0A3xEm8txXHgHsIc6GJZH7fxYvgtInAFL/gXsUAqCfSe1v6xJ4mABufy/H4HMc+1F5u//PheBjASzm2v/lMWjHt5Haf7eaAEIk9IqwwxyAXyAUjakJwCdOg3gDqCACuF+1AB7iyS8TAvDIBPAHNQEEVcKOnd/l9UmengFCOAW6nNdA5Qg/Un2rxeQj938ET375EADt8L9XCACA409NAAgOgnNQ4wx8i2NAKocAxhC+ERPfpHiBeZQDAXhBALe1utxdBBDo6fSTfMGQ/HuNM7Cdj4ErgwAQ+vu0auKf4s4/5TPkXACv72a7igD8oXAPAgiQRqATJLSN8BsmgPLf/Q8juMSkrydM5UkvMwLw+X5Ftv9WhQCw46sJAE5B+Aa0DkLCHC4Em+dB9lgXvIGgjBwTwEWEDWLCvYIQmADKiwCuIeHerBCAN9gzIxC2P3wAOv+H0OBzeD3kcfgSQr8dqWm7YvKibR05qdgiPm9HwmuqCUfr73482eVGAP7LiAA2dmUEBgJSrEOdD5A4ClQiBSNtPZyB9zMB5HGQvWZz+/w/pol4y+3330422ckiSCdr5ZtUn4E+f1E++ilvAqD1NN3ucn/flRGoCfzBz/idgZNwGWFfXhf5ZexLaSK2iKOZlfTgZxPuJgxUAnQyIQPV+24gbBETHSMcyxNdlgQwidbTd0YZgYBXnATopAyjYtAwXhf5tdlmtLrcGxI2WQ+HDYp0LhJk8HN17rYVMhCvQ6LPx6rPfkc0AuFJKL8NZSStpa/VGYFaAsARYM9w4R7OwMe4KnSeBgI3yAw4kVS21XqhmyqsFQUcfi969u1uhgxU/3cmYbWqGsyvmeXLkAA88oZyHq2lL7ozAr09MgLlpKBoTF5r3Y7CkLZcGGcI5sUH4IMPILCfw+1p6rbZAsmquACrCJ+Jc1v4DHY1IgPVv+9WvR9mxik8wWW7oZxG62iNUUpw4iSgrQcByHUDul/zLWEcr488DG+ijhsm7kG1ShZQhW8mAYI3VhA+EPb9CYparwGcOks157178OSW37C75VDg42gdrexeT73CfmVhh2agDhnWrLmnOUAsHwQQCMonAaQJnESC39HFyDQ52klLga2iuMc7osPvkSLqDwQwXMT8K6+9i9m9PAfqAdA6Opyu7UYpwV1JQT5/DwLQnBY4CIfwOsnDQBBQMBztR1rAc+oJ8aQ2BYywSQT5/I0wSlX1V3Esch24ctUAXHI9gENo/bT1SAmO9vYroWS4er1piAJRotN4neRhuH1+UttkLeDHNAk+9aRoEjbSwTei5r/6nHcvbg9VpgTgccOcPJjWUdwoJbjrJCAU7kUAmryBFzlQLA8DlVzgC6htrIP9dj1Nxqae7B3LlATUgGp3ibr9F5NB+QxnIhsQBBBNYt8ncgJoXUHthyaAjQYkoXEWugkH8brIhxZAZgDZZDZPILAXMfj76smDhxZe2yySAHIBWggPEk5T8sCZCMqAABLZgAcRAYTNaJIpTMwvODcgj+Pppx9KHOP4fKfSBHp7OGh8/l5HOVlCJ+EN0SuuP2sFpT1EaPmBDrcnoF4/Pk1KsElsJlzD6yBPA2aALxi2NTkcYPLJRAJrtE7B7hrvWcc64R+4TeQMbM9EUIIEQFokaZMH0EbiUa+dJD0CU+EJnv88DiU1uL1zTR+y526lydugncg0TwbMYpvoEficOD7cg4mgtNYPbSQwIxeq141ePoBJfKpEnfLIK4v7bb5QaFeayBfUE6kUeMgxCagTQ1A6/ArCgWweFP9Ae7BpV87AUeAT6jXj0AkGMokg4VCe67yTgC8RJuz3DyASeDcfJAAfAxaJzuduFB1kbhPdg/swERSrGRmUHYGEG2idbDMqDmoBXxIG8TwXYLQ4nYn0Tr//YO3JgJLAkX0SaJePjAK9W0gp0YYIMPqjyCXox0RQfEMkBJ2jTgjSSfgxiy3cNLZQ6lwobDvymB3lkwG3z38oqXEf9SKBHPgE8HmIHMOCgaah01BSqSL7D8JgvWQkHgUkgESKOY4Cgz39AP5018pTnB5cQBJYv0USx4P+w+1uz6daEpBPB3JwRIjFAk0ACwcZilAhdf7O5yL/AMeI+zARFIEjMBDEutmd1kyPtaLTC8AsOHms0CSwcu3nctsnMgeOpImcrSUBeHm1CR/Z9A3gHBkJSk6vTw4X1VlIaDI5n3AlYX8mgsKul/rmJqyXh7WhvsH0okpxKvQDnseCTmqIBKlTjvUmc+AoIoEPtSQAAc1y2HCvHHK0lMJCwm6CirI6pAOH4RKRkchEUBBHYEiJCLzG7uquDpxBQNDXXCasGEiAJrZz5ZqET8DvR7DHK6gl2CuhIxzJ2TEhqsvCP+AWqaT4eyAFHT8BE0EBhygMcgrN0eokKb9WUs1v5LkrEvWuur5GPiL0BAJ70q7/OE3s+p7agFsuBZ2mvWfJP6CUl04QQUAuZ6ZDBIuFadCfiSA/QxwjD6B58Wj9AGn6i57lAiFFRAIun1cEC4V3JhK4mSZ6dS+TgIQzmEOTQDk2xEmBUl4KVzgMoSUYEMEVTAR5MAMCQdSY2JkE/m2thqhXG8AE5nPXoKJj+UTE4FZJQtjw+dpzX2XCIaA5SiTq0W7KraowkyACv+yT0BDBBiaC3A8/bRItLhdMgXu0a8Kfnh8AZeSP4jkqsoGgj8ZWu62htfXsuqbmz5scDkk74copQZrMb8ksgP9BXWtOIYJgRJcIUPL8Mj4+zI2/SMQDXKyUnLdQdNaosMwonp9ic/a4PbaL7vi1ra65+ZHl9fVSdUOD1NjaqksC+dIG4HvwitMC9d9GPIEcS9Azo/F7cc48Va/UOY/MHIGiQOiKnn4Ab7pr4BaelyIamIiGlhZoAANqGhubQAAKSCNYp00n7tIGvL6cHhd2RxPGZM1DTxuBA1GzC6EU9Xtil9mZiSDzgVJzHn+gPxFBay8/QCwtbfAFJU2cR5EQQKtcBNIzprap6Vs1AdQ2Nr1Hgj6CNIS5RtqAV9YG2nPsJEwEESEbTXtSAZ9BsLePAMknr4vCpTswEWTgCAwGbeFYfAdxXCxlodbkYqVVHY8iIQD0FCAB+iN21BanSyJNQCaAuuaWm0kLUOIFniSB/0aPCOSTgt72edaBOAFtGeoUpwZofvK86ILUl0nA+ghE40gLJlPAe0ev8PH0CoSg7PwxPAdFIvwCA0SqbpcTjoigo8nuOJEgnwcHIpEdSNBn0GLwG2oDtCByGTcgawNk+/t1tYHuOIJwb9UUi+7PhB9r05B5pHAEhsKKI3AKPeN1WuJPo7oUdwwqQgKYIOLw1fb3f2lH3YkEWgkYsjXaW3FseIoIId5qpA3o2OZ50wZ6klGbXmGK+5SjKCYCS47Ao+i5tifpAWAFt/NzLx4C6Ktp+qHkb/+KhNi2YvVa+bUoE4VagzgyJDLYlxbFA7QAPjcSwFxHEabSBpSINfgONN5qlCtzisIkhzARmHAEosRcIIg5r9U+40A4rQIhL3GvgOLZ/Y8QBTrUuzaq/J6oFQqog8vrqmXPMO2ufZ1eH4qOtuoJn3JUFMhhToFaG0CcgNF9GGglW4TZcx3nGaQwA4Ih24pVa/vSXP9dr5ZEGnO2XInb4FF4AkAQzUZ40lWNH5IWcXQneg/YWhwO/Pwj2hlmqhuR9PLU+8kuj7fl/MgQZIPjSXXsgLYsuo6jcJMIJrpY2+2IF6iYb69PMQNu7U2uaRUK7RRVo/nhFpgA0MzjTUwghCPQfazz+1QCgIIR/nBEriFPu8AeZBrcToK30lgb8OQ0w1BtFuBEAiYINBAtGXRlHvYmpPWiXfokwm5MBLqOwFH0DL/p+Tw96TScWSeeM5NsgXf/n8BDjoCOROegdqU6z9lmJgcLw+F2y7kE69dv7EO7wQhaEMuNSEBJJc1V0ZGe6JRtfwQSwU8AQkDwEL4nyAiagoF58o2oTjSCux2pHYEoEuo7VNsuzKhlmAncwQRQeAK4GXnaCOZR5XgvsWqfJUyCoK3V5QQZHEYC9oxRzECXNgDnXHtHPsqS9zATYvQ35crFbe1G1YvVLa1eFW2tKr5wqVGvgAwKhf5bCdLiURgCQH22WRAG7IqqqK5H0lnkqCATirUlYgbC4R3pMy8kEnAm0wbk5KJYPK8kkAZWijz2U5Rc9kokATgCd/7xXr16BWTQMKSOsB8TQOF2f6j5a6G+YUcWNjHU35GZLHA5ZoB2i2a77CA8jj77NW1nokIkF2UBSGV9jHB8JWoDqA0gegXcqO0VkGahUBDrCUwAhSOA+2XnH6n+KgZvJhyQ6cLGCYEvHE44CIOh3WjR/FLPdsx3qnGW4CfcTTiy0ohA9Ao4V1szIs1CoXC6ns9+gMIIP4po1MAZJ9f/6y7u8Ey2SjbJDkJPouLQkrpqLJwzaaf4SFt/UD+5qOi1AQQT2UVq68GVQgRGvQIyKBR6NxNAYQhgDGKyMWmqcE4w8rRsT4g74TySz5FJM9iHFtFd9DdXJdMG8pVclAUgmKhWtL/er9yJwKhXgBJjkcZ8/YewIxNAfgkAob/PKM4/V3cgh0+p257tCYE28O4Hb8vlx1atWduH/uZwIoHFyUggX8lFWQJqFS4g/EKpeVeORIB5rGtqQur4w3onO2mkhTcpJd145G/3P4zgwg6baBDapbq9mutjGeW40O5yKb0K/0KC/lVqbSBaCtqAEuDysUiuKrtWZ6peAf/X6nJv6V0o1LIfAOnaJzEB5JcAZpAwbUBgjKq66yZRcjvnCxWLKNLWoaQY96MFdT7dR0sqbSAfyUVZBJpgvEUYqqi45UIEolfAqTQva7JQKBSl3C5kP0D+CACL8XWEbiKDTpXPHVdis/M1EUqKMfIJyDQ4hhbWy717ExQmuSiLWEv4F+EspQxWqROB6BVwAK0fT+8oz7QKhd7PBJC/3R9CHgNTayK4/kfYJd+TkMgniMrHhb5gaFcipKuNCo50aQN5Si7KMpD88rRQd0s6mEj0CtiFCPsdPYJO4wTnv0r9Rh65J4AbiKG3KEU2xdntVhESXJAFKTco8SaOC+ubGqENnEiL6026v43JtYH8JBdlGVERafmjUtUG5F4BTqdur4A0C4XaRUUqFtQcEwAy3D6GowYTJav/CbaGI+bUQi/ExHFhIuvMGwzuTtfr6T7DyUggv8lFWQXqL9ypPnUpFSJQ9Qq4pNXl3piFQqFrCKexGZD73f9MwmocrWkKOcwtlnZN0AZaEycEtqU16F3oP412mneNaw0UNrkoQ0DzaiH8mnBgKRGBqA1wvLZXQKJQaCCdI9SLmQByTwB3w4sOYZHV/+4UzqKLxlKCh2RtIBDck663kDYQT6UNoEZgCSQXabFZVMjBKcy+pUAERr0CMigU+jATQG6FHwtrKTzomqAN1M8fVIwPH9pAY0uzvNje++BNqJxnpQol7kou6l0HsBSANmfzCBeITM2iJQJVr4BX9Z5/GiZZQZzQlUQAI2LtnV8rVXQ9OK7pkJ1nNcWektkrlNjj/R0tso7U2kDJJBdpgerMHxLGKkJRbEQQiMYMewUkCoVa9gO4FDOIR/YJAMdOf4FqrJTHUlVyfVypk1/UjifSBl57/Z+yNoAmJshII0KYZVSavASTi/TwFWEmYXCxdTdSlQibqu0VkGah0LXCR8VmQA52f5S+tkMQNLnb35VagwYQAM6h7aQNkGawHy3Cu5PVISzB5CIjL/mLQkC2LxYSSDgCfb16BaRZKBSRqJczAeSGAKaTvf+9U7TbVpX+cqhTWUtl4Bhq3Tffy4lFq9d80Yd2oSEOt6dKW6RCP5w4WErhxFp0EJ4k/LQYuhupegXU6T3rNAqFPsYEkH0CgOr4Cqr+6JzTPl/KXVq7tAGyRT3+wAAiuIeMOhkXonNRDhEmPKj01ysUEYCIO1eu0e0VkGah0A+VBCoe2dv9j6WFHlaaZqg8tPA4X1TqjItF2N6xUo5Pj7d1bufy+kaSNrDInDYQSGeXKia4Cb8T2Z15JwIQsFGvgDQLhfoUjZRHlgigrWPldSTwmxXnn6u7aENI3R+v1IeiDaDNOWkDBwhtYHUqbaBEw4m1wUSNaOOmLuWWj3lN1isgzUKhX5gtR8/DBAGQ8EOdet8nEn80ZZvKrhILtIFoW7tMBvH2FdAGhpM2MD+VNlDC4cRaJ9pS0eVpn3wRgegVcJhevcc0CoVuFpWVmACysvt3rjwtSiwAm7db/Y8rZayuLdcH3eUbSGgDA2gh3p+qBFkJhxPr5dfPEcU2d881Eah6BSzSy9rEyYvF+3+CCSB79v8dmAB7b5WsQ3QEKtsHDW0g3t4p+wY6V67eDicFRALzUsUNlHgAkRrfEt4jjFZSbXNBBHjOGHq9AhIap2U/QNKelDzM7/57k7AvgqOrazK6nTIfVYq3VXNS0J+0oXvo5xWpSKCEehWkAkK9Xyecl4tgomS9AtIsFBogHMoEkDkBDAnH275UEn9Upb+A2ytJzZKPqzpXy9rAmrVy3MAgei6zU+UUyNqA1yfXTBBh06WM1eLY93RRFDZrJGDUKyDNQqEgrIFsBmRAAJ2r1iBI5E9+lfNPlfuPqLKfVeIDVlqad0URerx3mskpSIQTB+VegiVOAkAb4c+iI09WgomS9QpIo1Ao/FO/ZALIbPc/iIS9Wan6kziT7YrNXkjYu1IfLrSBz9d+IUcRqnIKPjWjDZRYdeJUCBLuIxydqVkgd4FK9Ar4TO+5pVEo9KlSyE8pZgKYSmrreuXsX/bGdrPwA8yu3b4Bh9sD3wCalfxOL6a9DMOJtd2NnITbRL5IWkSAeIDaxkbdXgFpFgqdo6RD87BIAO0rVvWjh/1Pj6j6oynUiFLVw5gAlIUbkrUAVYbh2bSLfUzPbHPqI0OvnFFZJtoA1O56wnWE/a0SQbJeAWkWCg0rpdJ4WN/9j6bdKaA4/xIlmrrU/wZlgnmotAG/Xy5wIeoN7O30eG8zU32oValOXNoBRNpgosWiPNfeVoggWa+ANAqFfi36KfBGZYUAaDfC9Wp/ONKjfp6q9Ndfs9X4s/y0gbDt3DMPk7WB55//O7SBn9Gifj9VLcIyCSfW69r7GWGyKCSbkgiS9QpI+AEiVsObb2QCsK7+70Kq1jtK1Z+ucMyE93qdmFB+qKa1geBepA3cTDtYLLU2kDjzDsfi5UICwDeEd1FNirBTMiKAPyWQ6BXwrt6zQTyKxaPUZ3mzsq7+nxSKxjsV55+m9JdHnTXGI7k2sGT5MvmkYNacj7GznUEL+3+mtAG3p1TrEaZK0kHfyHMI/fSIQNUr4F6jExSLIdbzi6VSdUkQANmhuN7uDYa2GdRme0mZPB5mtYGAzQMHl6erMvGNRK4RM9pAmYQTa7FS7MynaLsbpeoVkEah0BjhSF6vJnd/Uv/3isTbq5SqP5psrI0iS4x3/zS0gcbmRGXiBdWLoRWcSs/17VRdi8qgHmEyxEX1nuPVJKD0CrDr9ApIo1AozI9RvGbNq/8D6QF/oU1xFY6pqLp6DA/rQ856C4SUrkV7iK5FITPaQInXI0wGv+gpIe/UwWgMPhTdXgFpFArdVsh2dSVFADjDpl3mEaXqj07pr7e5+WJ2tIEWp0N2FC6vq4O6e7LoYbjBlDZQPgFEWkFFb79bCAcFI9Ht7W7PK/pEaLlAyAulXLIun+r/ALI3G+jB69lcfKSSA99AV9eiRA/D/6Pn7TOrDQTKJ5xYG0xUS5roFUSMjxuRoMUSbIsrOWzdFAHQzo/rRFqQ3xmUY1pBOJkJIPvagNLDsK6pAb6BE9Alx+5yrzMXThwoR21ALkgSisVX0HfcmoVCoW2K6crDgADWfP7V9rSQnlOq/uiU/prFBRbyoQ344AnfhebhYlr8djPaQBkGEMmA09Ph8UpZKBT6ban1rSiE+n9EIBzxqc/+VaW/JNGCmh9gjrUBmAMgg2aHHVrBD0m4/07z8LWpAKLSr0fYAyA0rT8qg0KhlVG7om7iMFvj5OG25eOH2haMGWSbT1g4drCMhknDbeHp42yRC1W4aIIt/OyTtuiqNZe5g6GNrYj9F3Ai+KdzpRRfsXpt/Muvz4r+/a8938vIHWZMsgUef8jmlKTtnOHoRLvPt5zmZIt6fvTgIMHwkXocxaJfsark4UMTWp3vaff6pAgIYMVqc5+1cs1LX0hSn+Yrf9ElD5ANyAhkBTID2SnJUTthmK1+4nDb0nFDbAvGDrLNHnUe/r3bwrGDDlo0dvApS8YNuZCu19VNHH59aPrYy2iBXdKNsZdELp50eeRfL8z3vvWG5J75Whf8b8+UYh/8T4q9PTMe+dUVN0QuGHNxz/cycoxLI9NpfqaNmhH6/U13eV950UPzsk09R7p4MzF30fffTcxfCSP47n8Nv2Pof2+b+5wP35NiM19zha+56Lq6CUN/CVkQMnEKZASyApmB7ECGIEuQqaIfyycMtdUSa9EXsb0+8HRb9YRhey0eN/gM+iK3V40Z9Mm80QPDc0adt5rwPf1+i/v80VtpUW3UxYyJ2whST0ySiBwk0hK2GL6PkR9MH/u9DN156o2weg5LHkbf09JnbKPnuAkyAFmATEA2ICNVYwZ+Apmh359ZPX7YXv8+73RZpiBbkLGiG9V0U/WkztMN2yb0399GbHY8qTN3VY0euGTO6IFr6ItJs1Wg10neaaMlegAMRsUDsgCZUMsIZIZkZy1kiGTpbpKpH0PWIGOQtepiIALY8AuhpowfYvtw+DlQVw4jG+bOuaMHBrRCr4CYjIWfwdAhAciGnsxAlkimgiRbf4CMfTDsbFnmIHuQwYI59768dJKsmtRMHLoH3cx1pL40081um20g/KTWSB4WfgZDF5ANyIiR/EC2IGOQNcgcZA8ymHdnIbyUDROH24iVoO4fSirKv+nmNhndOEA3LjmmjuKJLhBC08dKgQvMAa/lZ1YYQEYgK8lkCbIGmYPsQQYhi5DJvIwlZIPgj3068lyyR4acTjdbNSfJzco3PPo8qWnyCJ7gAiBIwoxnT4tFIhVSmp8CeA1ei/cEmQgKAjx7yEwKEgBRVEEGIYuQSchmTkfNhKGy8+HdwWdD9R9HN+CZnUL4AXoP7yoFEv7l9OwxB7NGnivNGnG2NGt4CuA19Fq8B+9lEiiMtlYt5i0VIIOQRcgkZLMmV85BnEW2Th5h+2zUuRD+YaR6xM3cIHYVdvoVBs3YSRT/y2UXSDX3/0GqfeQ+qfZhA9D/4TV4rbLLNLPmVjCnIGTHjIxBFiGTkE3IKGQ16+ONwWfKkUqkchxPrNNo5sawgFj1LwzCBOzg2M3nXzRZ8i1aJMXi7aaA1+I9eC8+I8zPs3CmgAk5E5pA4+LE8bssq1m3+3H+uHTckP2rxgz8cLbJm1o6fgirkAVUI2HLzxpxjrT01hulKKrXIow6VYw6vQavxXvwXnwGm2+FM+EgQ2blDbIJGYWsZs0fgKCDZeOH2BonDduB2OVps4w0l73+BScABJdAiJf99mbLBID34L34DCaAwp4KzE1xKqDWuCGjkFXIbH22YgSqSK0gG2M43ciXZtmIdw4mAEb2NLnZ5jfeLyGrkNmsBPsg4qh24rDdSL14z+xNgIlapozkCWQCYGQBkCWzmrcwBd6DzEJ2MwoSckwdaZs16jykKk6jG1hn9gbo9XJACU8eEwAjc0CWFhqECRtswOsgs5BdyHDaA86EZeOH7o2Ag9kWGKhh0nCeOCYARhYBmbIig5BZyO7idJ2BSD1EsgF9wChilG8t2CCS6/xRUpQnrWCIdhHAkCwQQMKXw/NZ2PmETJl1Bgot4FvILmS4Nh0zoJ7e9NczTsTZ/8NW7A8kMwQuGMMTl+MzfjxjJI+4aWG4zx/dC86po2S1MVMCwGfgs/T+Bv427gH3wrECuTYDxiRNFDI4EXgYMlyfDgHIMf8ThuxTNXrgcrN/dJYI+w2bZLWo5t880ebswbqJw+QoMSSNzE0CLIJMCUCkohoC94B7wT2x3ye3pA/ZmmXFGUiyCxm2HBOAHOMFCfX/53NGD/zciu2B0NGoiUVsnzpStmuwcOrp2jplpORnzcF0jDiEU4nZT0rKGRJAys+XcwzO4ZyPPJgBkC0rsgjZhQwvsFo3YO6YgfLZ/4Ixg26bY83xIKuGhixGiwNHGlAr5yiLR2COfHowSP6SvIj0F4A6KGTR/10qNT33jNTy6r+klldeMsbL/5RcH38kxSw0rsBr8R68N+ln09/GPeBe1MFfrM3lBpCtedb8AMjuvA2yDJm2dP4v3XBJH5rQp60wDlRBIzUQwo+dnlgpsXNBhZw8SqqaPkGaN2W0/G+FCGpJK2AS0PcE4xnNnUK295xZUtvK1eaAKrQWS2DjPWY/H/eCe8K98QlQbs0/swlCKqf805BlS/EAosbfnsQclo7/cGRkFPvfPGWELPyzaZFUXTBeanj6CclbNU8KNjVJ3oULpKbnn5Xmz5gi/z9IoJEXUi/UThhGQnaO/JzCTpc5lT7XoHvAveCecG+4R56r3OUGaGsHpg4KGlQFWbZUQxARRMsnDB1Ab3ZacQAuGz9U3um1N+4XHkzsEFUXTiT18kMp3t6Z2JloASk7FAgBqahyBpucRsw+AUMCcBURAbiYAPLiCCTZgozNskYATsgyZNr0QK2xJeOGHFg1emAg0xOAqAhllF9HQt30wt+6Fo7eYmp949/SHBH73MipxEwAjExPAgKQZci06bFA7t4z6GCyH6JWCAC2u+7CnThM3tXnTSNtoLo60RnFYDGFWu3S/Iunci46EwDDSJas+QCikOUFVpKDRIsiEEDMCgHU6RBAV2GKEedICy6/UAq7PcYLl34fCQSlJTf+H+eiMwEwdFBnnQBikOX5+SCAWgMCqJmQ0ACqfjFJdvrFO401ABDEwisvSpxfj2cCYAJgZKgBWCcAkQNw0LzRA0NWCKDGQGVvmjRCmj3yPGnO+KGS4+23DE0AOAPdn30qzZ00UiaM+om8mJgAGD03U2s+AMgwZBkybSkMmHbfA6rGmKv6qxDAcvkUoPeNI16cPkteIIuuu0IKNjZ2nQAowL9xnLT0ll8lzrpFUhFPPBMAQzkFGCfLmLVTgIEeyLKlcGDUGCdVYx9SG6qtnDka2exhobp0vY5sfPesz6SIzy9Fw1Ep4g9I3vlV0rLbfy0HBHFYqRkCcBcRAbiZAIqwOpAIzquGLFtqHIL0Qdq1dyD14ZXZVjMBDYQW2UxLxc3LO/zkUbI2sPyOW6XFv7pamjd1jBwElAgoGiL5OC9A3wEkAqkCtbVS28o15nrRp0MUeI+Jz8Y94F5wT7i3OjbbchcJSLJlJSNQmACvQJYtpQQ3Th5hmzPqPOQD3G01FyBZDwAEBMGGmSvCfuWEFgVC7ceJgY8DgHRzAVqmjOiKp6i57w+y1oRj1aRYvlwKtrRI8fYO88JPr8V78N5Un497wL3MFiGquEfOBchdrwCruQBChmWZtlQJGOeGi8cOnkhv/s7KH0RWXzSFGoP8cpgEZJfIiUEIb8RJgWPqSFb7kwAEuhg5/oqHl7QoxFYkBWlW1ffeQaaWhWxAei3eg/em+nzcg+IDwr1xRmfuNoBWi7UBIbuQYciy5QrBIhoQJwHubAQDGZFBUIADfsxnhIEw5YWgyqbUg/z/w8+Wlt1+k/V0YHoP3mvmb8wReSDJMkEZ+T8ChOxChi1FAXb1ASSbgQSzb9WYgc9bsTkWJUkIYmQvKwxpt02Th8vZd3qonzhczqfItB4APgOfZfR3cA+4Fy4GkvtEoEWWE4EGPg8ZrkmnIhAaC6CQAKnol6Rq/a31A3i4F2BeVMJkyEVNwGTgOcktPNbt/02QXcjwMiuJQOqqQAsTZsBhc0cPdGW7KhCDqwIzclcNCDIL2YUMN6TbIQhHB9ccfQQ0gd8So2y10hOQFw0TACN7c2mlRyBkFTIL2a3NpDHI8glDRW+AIQeT+tFgpTS4k/sCMgEwsgLnVGslwSGrkNnFcmHfobaMRiOpDx+NOAf5AddY8QVUcyovEwAjazUArNn+g66BzDZmozloDTEI2RIID96naszAWZacgXwsxATAyMz5Z7EQKGQUsgqZrcl091eGb9poG6kgIIIz6Ga8Zm8G55asBRQDAdxkORAI72ECKPzur86hMbHpeiGjkFXIbNYGKorWTxxu+3TkuQgQmkh/YLVZLYB9AYUjANRTkLv7XDVDCtkdctx+24rVyUGvwWvxHq7JUHjb3+zuD5mEbEJGIasZdQU2yhBEZVHp1kv7LBgz6AayNdabqxQ8xDBBiJH7MuKyXTh2sFR9128l+8zXJcc7byUFXoPXzhHdaLnMd+ESfxabzPyDLEImIZuQUUuZf1bbhSGooGHi8J3pD947Z7S5pqFc4rswQFLVQpE7IHfvGTNYLriaDHiNnJwl2rxzYlZh0GiyGzBkELIImYRsLkm3G7B5Ehgik0Dz5BE7LBg76CpSPTpNOCYkJxf3KJgTCWfIch9BkbCVDHOF6Yb3sBO3QKo/yQpkxoTa3wkZhCwmhH+ILS9DIYEnT/mJbdG4waNowdhT3SzvJoX1ByCVFDalIwXwGryW7f7Cam0m/Gt2yB5kMK/C30UC9Edhb3wy8lyoHT+pGjPo9TmjB36T7KbhUOJEoeLOIeBnVNiEn2UpIv4gY5A1yBxkDzK4ZHyehV8dI9AyeYRcRLR+0vCdF40dPL5q9MBPSZX83ugLoCAIkwCD0Vv4a5IE/JBMbSCz4DPIGGQNMgfZy9pZf7oDiQZgomXjh9pILaEbGrYnspDoZueTjbJmjkF8AKuYDEa3iaZ33j8nYeevoR1/AcnUpSRbe+GMH7IGmWvIRqRftgYqjsRnTJD7Cn5MN1czceieZJecvmDsYLQn/ohuvB0spjibEN6YsnrMdPr/Cxi9IJPnWHEdl/3rhSpyrjSinp7LOdOv8gRZUDliN5CsdJDMfEyyczsCeyBLn4w4V5at9ovGF5fg9yKCicNszZOHy44JpCLORj2yScN3pS9yHGHGgrGDfkdf8BHSFp6n378evnDcS/Qg/qnBi5FLpvw78MCdK/2PPSD5H7tf4AEp/MQjUvTJR3OKyF8elQJ/elDydf3ddKDc62P0eX+Ugo8/lNY19OeH5c9RXbcGb7+xPnjNjPcD118+O3TVhe8EbrxqfujyaTP9N12zOHzZ1DesXEOXnf8f/41XLwhdOf2/gV9dMTd4zUXvBX552afBay/5KHjtxR/S35hFi/dFnTkqN7wYmTHx5cC9v4v1XHP3S6GM19xjUvTO3zTKf0P1N7H2IQOQBcgEZAMyAlmh3+8G2YEMQZaaJuUguCcf5kHrlJGyowJfBECHkneHnmVru2h8X/pCO/qmjelHD2P7Hpg8bPvYZedv77Tbr7U7HOtaHQ5Jgcfrk2LxNine1p47xNslfyAo2VV/Nx3I9xprkyLRmOTx+ekap9+Jq8/o6pOvXvp3OBKTfP6AFApH5fsJhsJSIBiW/P5gwOf1PVdbvfyC6vnzjq9etuyi2nlzj6xevvyautmfHWLlWjt3zg+qly+7rHZB1Y+qly2dUrNo4enVS5eMqlmyeCDh3OqlS8dJNtt2veaozLDRZuvjbmkZYnc6VnbPoV1yut3yfGS4nmLxQPDsEJ7j9LFdfxNrHzIAWYBMzJd7cibkBDID2Snq3T4dQqgj1As2w7+D08fa6GH0xLTRNt/bM23e9o6dHV7vc600Ca0uVwL0sx9x7Tmudx9r75Q8JHRdfzctuCVvMCSFiQQ8gZAUaeuQPzP1tV3y4H1ERD4S+lAsLn/nIBFJIAJE6ef4VncgOItwxfL6hulLGxoOWd7QcOWypqYDrFyXNzYeTNeL6Xo0XScSTiYMI5xNOIswqu6zT3rPUbkAa+2j923eSGxPh8fzgXr+7LTW8KwzXEub450rf9cpSbboXx+jv9m93rH2G4Qs1AvZKCuBz2S4fD4Zbr//EJqIxeqJoYmShSrXJBAhAXR6vRmTgIt28y7BNnONJ65h0nRkAogKAhDCHwhHZTLwhyIghy/tbs8/HB7vGcvr669YVld3AF2vIpi9HkK4mHA0YSLhZMIwwjmEnxNGE8p2nflCEVtdc6ON5vlamquN6rnzkPaFjSDDdTSb0J9gA3hYGNH2dhtNhM3l9Q0iEmhXT44bXYXaOnJOAhA0u1oDSQMtTqdkB2nF27JOACBC0jI20rWlsdX+QH1Ly2EgAiaA1MONTcZLm4zPfyzNsTsHm8xKwhAW/jSHNxi0eQNB28ezZ4Ghb6CJ+V49ST5Sk/PR/gpCmCkBNNrtEmkztKvkhADk97j9gTX075frmptvXVJbsz8J7pVMAEZrK2SjHd4WDEf6kbA/q50zPPcM1802wkOEvkwAmbC03w+GtvmCwV1pol7S2mghEoR8+AMgvBkRQGurfIVJkPAJZJ8AlM8gk8NFr72+uqHhuiU1MhEwAWhGKN5us8vapXcsraMv1fNFpmc2tMulhENY+LPlD/DCJ+D/AU1WtXqyYKNj0efeH9CWtj9ATQC4Or0+MmEC8iLLBQGIz/je4fHOpZ/Pg6Avq6sbwASQGB5fYlOhZ9Pf4fYs0G4qwcw3lS8JE1j4szVhpKqF43Fbi9NFpoBvBE3SSvWkkZmQDWdNan9AJD1/gJYAcAWgveSMALo/K0haxytNDseRBr6BiiKAYCgsm5V3/vNxm9Pj/R3NzxbtWopnvpaeIuzABJBlf4AnELBJkoSJ+w1N1sYsH9eY8weQsGWDAHCFownaQE4JIHHdQJ/1QaPd/ujSutoBGt9ARRGA3e2BPwla5Sm0bqI9HX9e+TlmuEaaCUez8OfIFIDqRiy9OwnPa728tvHcHw1CbcexXjYIANcmu4MEOdzTOZh9ApCvbn9gLb3vrrrm5tsWV1f3F0RQMQSAnR/apD8Y2oXWy+vaeQqkGV+i0j6/I8xQhJ8JIAdDZu/E0c0PicEbexwN+v15MQUgdCCcbBAArkq8QDieWwIQ181EYD763DHVDQ3XLqurO6hSCIAEnMxIB9bQL+wu97psrB3Mjcph+DJhFxb+HB/fBMNRmkgniAAe3NVZPr4xBQiiWX9AKgJQrtAsnL6ESeANhHJFAArJdJLKW9XscP6IBHxGuRMATpOgQXp8/sNo3up7Ov5w5h+3vgbCibkQ//YSfsLCnzdVLmhr71zTx+nx3kGTuFk9mRCYfBwN0n1syyYByCaBwyEvKkUTyBkBiCu9fy5pH8+SJnDUsvq6CeVIAD6sF0J8xartnB7PI73O/C3Gk8Q6OuX5QKSg2P03EH7Jqn9e/QFdRzmI4X4rB+e4ZkhgPf39BtpROrNFAN0mgUsW7lwTgHjfOvr8hxtb7dcura39abkRwMQH7rCRtgMN4DztCRJpkZbWCogfcwITMNStNbxD2IOFP+8eXTeOBUEGx9HP9h7HOSQUYOo8mAMLfKHQZFoQz9E9rMoGAajjBWAW5JoARMLSZrqGSFAurmlsHEMawdmlTgAil0T2GZG2tgfN0Ye9zvwtnB4pwo/3qbSGGOFMFv4C+QNIMGzNDjh2fJNoYj7vObmxfBDAVsJj0Xj7rrTQfkaL7B/aXSZdAlBOCeAPwMLLMQEk/kY0toJ+/0F9c8soIoGfkfCPKkUCkDVEfwBHx7vTz6OJ2B4lU2dDj2SfgPlkH1n4xRGwSsPcTPgtoQ8TQIGGJ5CIDwjH2/qS8N2nDuyQowTj7fkgga9x/OODgzIS3Z4W3Bl0L08REcQyJQDkECRCiF2yFpBrAlC0Dfp5MX2PP4AAcHZeSgvcQ/PgpjXhDUd2cni9T9A8fNvscG5pUj1LqPARk8fGsr9HCL8m/HwWYT8W/iJge9nDGwjsTRP7vxykdJqBh3Ay7QyyWULmR1+3z3+C0+N9iO7DlwkBkIYjYfHiqBDHVfkgAKFtrKNn+4+OlasPLCUHlz8as7XY7ZiHC+wu97fq1OwW8bPZmhLC2dvDtORMvyIcjY5WEeHl/6k2tTMfBUQEPiDsiwWBHQi255+fesZGQnx6Q0sLik20kmBvS5cAcAXgG8B3yjUBAPTzFvo+CwkjCdsXOxG4xHEfEeWRtA6a1YILtV35vviuqZx/0faOHkVhoFFGE3knnOlXdEc98AcEw8If4J1GzP9lvguIECAs9ymCgsCT2qYmG9nSiLa7ioT5x/UtLW/SPdWRgG9OhwBwxVFhInglIAtsjglA+W6rCQ8TDi5WEgjS83aTSUgawA40538zCvLBz9Cg8L2NjozlRC16vgY+Jc70K0rbD04f5HiTHe5InPdu7T4azE8BEcJawiRlccCBRjhUlZF3JQn3cUQESG2eSz+vs0wAys8ExK+rowdzSADKzreIMKoYtYFoNC5OhrwT6fp1qhBxJc7Cr9EGEunfAamnw7Ar4ewLzvQr4uGW/QGyB3g/u9vzcSEKiIiEkOO0BKAk4AgiuILMgqPqmpsfp3ub2dhqX2uZABSzgF6H3QrIMQEoWEN4kDCgmEgAWmA03o4CHy+bNf+6tYFglzaA3/nFWb9OkhBn+hX7mLNooY0mD7bgqbQT+LOc620W/yHsiQAULQFoiYDMhEMI97S63E+T4IdJ8LdZIQDlpKDFmVjwEGzDWgPZIQDF3IEX/Gw1CRRSKJAxSjZ6X6fH86jVIJ+ENtDTN4DwYJSeUyUJcaZfqfgDECPQ1NoCdXAGCf43+S4gQthIuB33Y0QAmusV1Q0NB9Q0Nt5K93lvQ2trPQn1RisEoEQRJo6q4rkmAHUgzE3qSLhCCQcIQHYCBgIDaAP4K32ftVbDu/Gd4fVXjvrwOxFQxpl+JWUKCH9AIBSBQ+gJEoxtOvZcrrGirXPlsCW1NQdbqNR7JTQDZOrRjn4DCfUsEu5vzBKAcgUJQHVNWYg0cwJQYuGh8ZxQaAFxonoUysj5ff3ouw0VWsomq9WgfV0nBe2c6VeqQ1VaHDvC7EIUECEsc/n8A0morVTqPZBwOb0HmsO0JrvjChL210nYVxG2mCEAxXzAkaFcdCSeUwJQ4CRcSOhXSCKQ60gSQrG4TQTqPCsiNtPVBiL0uxPpdyz8pTZQQcjhlv0BPyPBj+S7gAg85yRcn5GNf32Suny6BED4AWEqve94ROQ1tLRcSEL/OAl9mLA+JQGoiAC2rC4RZJcAgK+Eg3CfQpKA6m8jTPfxTHpDhGNxENsAJoASHPAFIH24vqUZpcSuIBL4Lt8FRGSvcjjylBBsywRA+IlIykHzj7PrmpouIK3gFoKdBPzzlATQlVdgl4UeR6I5JAAlRv5t5SSkECSg+rtHiijNTOZwuRLgxaNEjwbhE/CHwjvRzv9MjyjBPBUQIUT8ocg0k6aAEQEgOQdVfgfT55xU09gIjWAaEcDSFpcrZCXBCDYuKhPniAAUNBJGFyJZRkUA0wnf65xgxHV+r4f1hKvY9i95f4Bf+AT8B9ndnvn5LiAi1El7Q2vrbUtrawdkSABDCKcSxhERHFPd0HBJY6v9jPqWlndaXe6F9PMms8VHEE5sVH4sCwQAdBIuJWyXTyFSEcCjOvcUJQwSpxeRFPf/BmE3JoAyGB2r1sqRYkQE59I1nu8CIqK0+MsmTAGzBDCecBxhugg3voII5mgigufoe71Egr62R0yB3pW+PwKJ/OFwV2isnGyUPQJQAoeuzmfsvPg7ENyPde5nrkqozyC8K04ytK/zE05i4S8jfwDSh5fX1YtmkK713ckieTsa9NN9nJXCFLBKABcSDlOOEPFeMg8OSgQXue4iQfeSwH+XSiNAIJFy/JVlAgA+J1yvDiHOAwHAbq82SNraVaUl7Em4kRDUxHFcz+f+ZekP8Nt8Ibk09AvpVofJpIAIqdtPkpBenQsC0AYXkbnRn8jg1/QdZ5B2sJCunSTwW7UE0Ox09Kg9AG0AmkCWMym/Emq35VBabbRhquhD8fu9ULHJ4LjyIJ3POZXwmtj5HyPszsJflv6ArviAQ0nwl2a7gAgKTYSSVJklc6Ojye64J0nfvmwRQFdwEYiArteQun9eQ0vLG/R9m0nwv+smAKcmwMgpkyL6FWRZM/oGEZJWSUAlpLuJgKMjksUbiN9B23he5x7g/LvEgEx2JqD+wY4s/GU8Im2dSuvxIbTQO7JRQAQho9AinB6vkkCyzei1tLO+SQI5IE8EoM4/kLsGIzW5rrn5j/Sd/0cCv7JFQwBNItsQwHEpciiySAQggWvMng6ohLO/iMhbRQgRnkGAjvpzlM9S/XucqNikvYc6wo9SaRZMAGXsD0B8wKvvzUR8wI0kCBsyKSACJyLUZqVXAJqWkND8Sdi+erEBQX8ocoqBLyBnBKBNRKprbjqitqnpViKAp0jwG5QAoyZRfCRRiShhIsFZCrMgSw7TdsJwiwRwvTjCU39OmHA/4SgDAYYa/6HBPXxUzPUNeOTDHyC3Hg/tpk4hTRQQMX80CHUfwiHev5Xe/67L7z9uxeq1UFH/auQLiLS1P2LgC8g5AaiuB4vGIEfVNDZOJ9PkRhL6V0n4Y4TvFALQdmSGozAL5tIStQCmIAAcI/7dKNqSYBf+hQN1SABEs8Lgfe8Ic4IJoCL9AV6fEh9wBO1ytVYKiIgIP8nh9ii75NekTTxCmsU+Tk9XIU0srlqD90dI4O5bUtvLF5BPAlD3BpxAmgH6Agwl82AymQk3EQFU0ffy0ffbpCUCEKWcR08EmKZ5AAG80yQBABeLrLxkEYjLRNzB3qr3gTxuTRL486Ji8/OoNFOAzIBQLKa0Hh+pLumdrIBIIt++R8moMFKP/dF4P2SjOZqa5MWH+PFYR+dUgu7CpZ30A2GXFwMBqFuDnU33dWZ1Q8N4+p6H0ne7nAR+Jn3PNnVmpdo8QFQlAooskkGrogWYIICdhQPxSxPRe3NFBJ9SumsnwtM6JoRijvyECaBi/QGJ0uKbN29Dq7HblN0uWQGRRNkovxJNOJ80hrOaHa1yyDEIQFm4rS63rbHVfhAJerPY8bSfEya7+gQStiuLjACUzkCjGlpb5QIr/nB0RxL044kMbqJ/fyacp5u0ZIDEI78cVRiT02nlnHpjUoCDbqgFPwA8+xcRAibIBWnATYR7COcRxovahtrXfUsYwwRQ0UeDfqX1ODrIvGHmaDCRWRf4r9PnQ3ixXI/eRQSgHigJtrS29hAiAVSRrdGrrBNt77inCDWAHq3BkFWJICpUXsbpiTcY2o3Mp2OJEC6j5/UXQq1o1LpVTQYwE6Ad4HQFTlIQg9zfAFWNE/0HvicCnIwGLxaOAoGzDM74jfClEH49DQDa2UQmgAofchmxROvxY2jxNpksIPJxW+fKAYq6rx1KTUDs8GQGTBFHYFotwEv29v0qX0DREYAyUG0J1Y6h6ZC2JBOCIId9SdBPpn9fjwArQQhhen6r1ScsGmyl1yyi9x2OzzEzNCQA/8pbVnP9dYDEoOOZACp80G4ktx5vdjrhDxhHi3NNVwGRcDSZI+tZdWipHgGIs/cBtNMt1zsR8AZCc4gk+hc7AeiZT75QSNagQAiogRgjNZ1+vy8J9UGEk0jAL6Lr7fQc7wWIHO4m/IGe8TVkRv1g1pxFtkAkoifgumfymt/1F89/YwYE8IQSosyDnYJy6/F4+8rtaEH/QWk9nqK3ALzLt+kluwgCgHBevaSmZgCZAg/Qjt+o41SMhaLxY4kEIJQHCWE+AhWBCPDMjyGcRRgILz3hNHjtBQH8QvkbgjysXEEAlxJ+SJhMOIUwgnAuHIHi75p6dlDjQQCIsVA0BGhV2N1xRSJWAp7E79GxlzSuQDQiE4nO7n6GCNntm4IEdhexAOvS6Ov4P67xz6OXP8CVaD2+Fy3U//YsINKRLOPtfO1CFQSwt9i994BnnQhgqqgvr81Rv115HeFMwj6EkwQhHC80gqMIxwit4gQRTXiK+m+ormeZ+PdehNMJ/YWmAUI4lnCkIKDj89UcVPXszhC1BPCM3CKlN1XU3k6CBDYk6dfwKaFeOAaRAXhLsZU251EkA9570Xr8eNq1HCYLiHjVraJVfQFk1DQ2yvayiIP/i877WwiHt69YZatuaOjx3kIjjwSA8/h/6TwbF+EKdW6+DvB/T4p4AD0CGCniA/qrC3yy8PPo7Q/oaj2OJpPeyUQCX6hLbichgYXqyDKtIC1ctkxZcIfrpKpCC/gNnIkwQyqUAPY1OC2RhIr/tjjS62dAAnuLfAG9PIx7Odafh+nR1Xo8Jrcev1854jLRcOI1kYpqlKWmYKKOKYB4gcMqcXGqNIAXUtju6Mz7D0EEO+kI9RHChNC+71MlxZcHDwv+ALn1+D5EAu93FRBJfjSIAJQHjFJeVQu1n/BAa7WAmyqYAGzC3p9nstLQ6yLjb4C67BjhDp3XNwn1nxc2D/OjrrVJaT1+IpkAHpMFRL4WNqstBQkcLqrOarPUdq1gArAJLeifJgt3fiuEG36VyYSfCzOgV2HWVGHHPHjo+gOApkTr8ekk/F/JUYKelAVEYkqYq5YENIt9qCq0dZPweverxIWq49T7tYjVN3u0t06YVXqOQJwoHMAEwMO6P0BpNRaJ9XN4vI8qCTEmCojUK1FmSUigjzj6ulObyVaJQ0MCeDbDDGx6q/g3Z/3xyNwf4A/0d7g9n1goIPI+YX8TTsGK8FCb/c6a36M6b1WGBUgGseefR0Zj5gdvK63HTyNTIGCygMhWURhkZ7MkUCE7/E6ie9Bxeuf7Os/mSFHAY5sFwf9epBxPy3dvAh5l6g9AqGtjazP8AZcorcdN9BZYL7z7GS1ChCp7A6GESRIIyLUNkcNQggQAMnyE0CGah7wrvPm7pNAQDhAJQMnqCzwh6gU+IAT/B3zuzyNrQ9N6/EkzBUQEVilpp+ksxkR4csDWaG8FEe3pD4d3hjbS3rlKJqYSI4ARoky49uTkTcIQdVVeg3P+qiTRmD/kAp88cuwP6CotfgAJ4ZxUBUQ0Ia2nWV2ULtHf0BeK7EiaB3LwFxD+Qz+fiESahuamUiOAa5Ok8SJs9yWR87+9gTCfLEKn9cytX7PQ88j5WP/tJqXV2Fl0jVroLTDPSrSfIvz+cHQHpNW2utzfJmr2BxCL8BmZHvsRSmaxi+99oomqPjANniKcog6qUmGKQcnvV5TX8+CRW38A2eS1zXKg0FUklOsSBURM9RZAwsseqUigt/C7ZOFHU0/xN3DefXc+++5l0QmIzr1tJj34OMKbqsne28PAFJgn2n3xIuWRY39Aj9bj3mdlU8DllktepVjUG4Xg9jMS3GTCrxMSO7lU1F7NLj5alPQ2G+RTK5J6RgtfQY1B04/9mAB45MkfkIgPIDI4mAR0oYkCIuo6dRfrCa6e8MuOxlDYSLtwid52pUgCp4gqvlbO9b8VEX9bkjX/5MEjL6NtxSrFH3CeKJ2dqoCIurPNQLVAGAp/MJTKtJhTStVtdGL/XxWh0Bk1X1U7AXnwyMtQWo0tqq6GP+CXJLDfmyggogBq7LFYsDjTT1P4FfxNSZEtMgE3U98PKdQP6RVOtYD5ZroN8eCRfX+Av0fr8RdNFhBRgEIX+wUjMVsg0tPmT6L2G6XInltkBLCviPY7QNvIUwc7iiPClRYFf5NwCJ7Kws+jgP6ArviAw0l4lyWOBn1mGmpuISF/noT9GCKP33Y7/MJWO+3gVODqQguASqAPErkQq0WU3sMirr9vEhLoI3wjq5J8zzrR+vtVEfV3mZLpxwTAo2ADKjwZ9Urr8aEkxJ0mCoh0kUA4Fo+5ff71iCfASUIaPfc2CmEoFgK4UsdRFxfn+6cnKe21nfgeawy+5yfCZOinKQTCws+jOPwBGE6P92Y0xpB7CyQvINKj7ViazTYV7/jYIiKAh5Lca4fYxc82CPTZTmgzXxjEBhzHgs+jOP0BSquxROvxV00WEMkG1iihxkVCAJeYaNqxSgRGoWrvPhqh7ivKfW/RiQmYxELPo2iHs6v1uO8o0gDqEkeDgUx2dzOIiTJjxUIAe4vQXDPtuxDWu5jwexHrv6uqbFpYx9S5nAmAR1H7AxKtx50ggVFEAqtMFhDJBI3FEgWnIoH9RJmzry18j07hPIQJ8aBOV18QyvVMADyK3B+QKC3+5VffovU4vPubECUYisVzRQBFU/pao8rvIDz7gSx9TxT6uIAJgEdp+AP8Xa3H/2OygEi6eLmYCorqOPbg8FuWhe8ZUPL+efAo+qFqPX4smQLNJguIpINHi9EjriGBY0QFoHTbem8RiVTbMQHwKA1/QDCUaD3ucIAIJhAJrE30FohlmwBuKdYjMQ0J7C8CeKy29f5KxBDszUd/PErLHyBajcXaOrZzer13kxawxWQBEbNAZ9yLilkwdNp6P2OQ0acc9S0Q+f0fiSjCkdq6gTx4lMxIHAt2tR5/x0IBEbO749ASSwXeR8QA6FX6/U4UDdnNqCswDx4lN3AsKFqNnUBmgLPVXAERM0ACzQnFmAmY4v8HJKn0+zALPo/y8geEwurW41PRetxkAZFUQEXcA0s0FRjp0E6Dpipc3INHeQ2l9XgoFt/e4fE+hNbjbp+pAiLJMLdYauGpUntRtutMoeqnSgX+o0E/vwFMADzK0B/gV2r970sawAdKya8MCOClYokBUAn1YMIiUfTkr8JJeZIo2rG3aBCykxDy13S+U0ikFPOC4VF+o6a5ARmDIIKTyRTwWSggood7i8VG1uzsPyMsUcXwI6w3SFhK+C9hpsjv36DznZYpCUI8eJSfP0C0Hm+0y/6AC0kL+NpkARG9ijhXFpOTTKebz+sGbbuT4UF2/PEob39AV+vxKFqP/wmtx00WENEeAQ4r8ghAFPD4jYV8AJgORzEB8KgQfwBKiQX2JzPgMysFRFTZc8eUQAQg8FPCn4SDb4NBazA0AvkJH/3xqKghWo+fQQQQIm1A9geY1ASaCf2LWVB0qv2ga++FhHsILwgn4W2EQUplYxZ+HpXjDwglWo83tLTAH3ApkYBcGBT9BYKkDaTwC7xZLOXALWoD6so/3NGXR2UPpA3DH+APhnciEnhQNBnZrDQexTFhJI6AoV5awV2lKDAs9Dx4aElAdAbyBsM7kjnwQzQeJdPgFSIDPxHBd4gaRP5AKBpTzIOvRa88Fh4ePMpDEwjIQM4A/AKhSAxkcCThEvr3n+1uz1Knx/sdagwSESwjjWB/tAjnwcPK+H8eyaTP4B2mbQAAAABJRU5ErkJggg==;container=0;" parent="9GvEFEXf6PaLgaHzI8d7-120" vertex="1">
          <mxGeometry x="8.166666666666629" y="10.00368421052633" width="26.27606752730884" height="26.27606752730884" as="geometry" />
        </mxCell>
        <mxCell id="9GvEFEXf6PaLgaHzI8d7-5" value="" style="rounded=0;whiteSpace=wrap;html=1;fillColor=#dae8fc;strokeColor=#6c8ebf;container=0;" parent="9GvEFEXf6PaLgaHzI8d7-120" vertex="1">
          <mxGeometry y="40" width="460" height="230" as="geometry" />
        </mxCell>
        <mxCell id="9GvEFEXf6PaLgaHzI8d7-3" value="&lt;font style=&quot;font-size: 16px;&quot;&gt;MultiUtilities&lt;/font&gt;" style="text;html=1;align=center;verticalAlign=middle;resizable=0;points=[];autosize=1;strokeColor=none;fillColor=none;container=0;" parent="9GvEFEXf6PaLgaHzI8d7-120" vertex="1">
          <mxGeometry x="174.99786163522015" y="6.279999999999973" width="110" height="30" as="geometry" />
        </mxCell>
        <mxCell id="9GvEFEXf6PaLgaHzI8d7-30" value="&lt;font style=&quot;font-size: 10px;&quot;&gt;Multiconversor de unidades&lt;/font&gt;" style="rounded=1;whiteSpace=wrap;html=1;container=0;fillColor=#dae8fc;strokeColor=#6c8ebf;" parent="9GvEFEXf6PaLgaHzI8d7-120" vertex="1">
          <mxGeometry y="40" width="91.37" height="30" as="geometry" />
        </mxCell>
        <mxCell id="9GvEFEXf6PaLgaHzI8d7-31" value="Calculadora" style="rounded=1;whiteSpace=wrap;html=1;container=0;" parent="9GvEFEXf6PaLgaHzI8d7-120" vertex="1">
          <mxGeometry x="182.75" y="40" width="91.37" height="30" as="geometry" />
        </mxCell>
        <mxCell id="9GvEFEXf6PaLgaHzI8d7-32" value="Conversor de archivos" style="rounded=1;whiteSpace=wrap;html=1;container=0;" parent="9GvEFEXf6PaLgaHzI8d7-120" vertex="1">
          <mxGeometry x="91.37" y="40" width="91.37" height="30" as="geometry" />
        </mxCell>
        <mxCell id="9GvEFEXf6PaLgaHzI8d7-35" value="Traductor" style="rounded=1;whiteSpace=wrap;html=1;container=0;" parent="9GvEFEXf6PaLgaHzI8d7-120" vertex="1">
          <mxGeometry x="274.1099999999999" y="40" width="91.37" height="30" as="geometry" />
        </mxCell>
        <mxCell id="9GvEFEXf6PaLgaHzI8d7-36" value="" style="rounded=1;whiteSpace=wrap;html=1;container=0;" parent="9GvEFEXf6PaLgaHzI8d7-120" vertex="1">
          <mxGeometry x="365.49" y="40" width="94.51" height="30" as="geometry" />
        </mxCell>
        <mxCell id="9GvEFEXf6PaLgaHzI8d7-6" value="&lt;font style=&quot;font-size: 15px;&quot;&gt;Elige el tipo de conversiÃ³n&lt;/font&gt;" style="text;html=1;align=center;verticalAlign=middle;resizable=0;points=[];autosize=1;strokeColor=none;fillColor=none;container=0;" parent="9GvEFEXf6PaLgaHzI8d7-120" vertex="1">
          <mxGeometry x="128.43206225680933" y="80" width="200" height="30" as="geometry" />
        </mxCell>
        <mxCell id="9GvEFEXf6PaLgaHzI8d7-7" value="Entrada de texto" style="rounded=0;whiteSpace=wrap;html=1;" parent="9GvEFEXf6PaLgaHzI8d7-120" vertex="1">
          <mxGeometry x="18.43" y="170" width="191.57" height="30" as="geometry" />
        </mxCell>
        <mxCell id="9GvEFEXf6PaLgaHzI8d7-9" value="Calcular" style="rounded=1;whiteSpace=wrap;html=1;container=0;" parent="9GvEFEXf6PaLgaHzI8d7-120" vertex="1">
          <mxGeometry x="174.42000000000002" y="220" width="111.16" height="30" as="geometry" />
        </mxCell>
        <mxCell id="fEhUayPAqYJaGiIZ18AJ-4" value="" style="group" vertex="1" connectable="0" parent="9GvEFEXf6PaLgaHzI8d7-120">
          <mxGeometry x="22.27000000000001" y="115" width="178.43" height="25" as="geometry" />
        </mxCell>
        <mxCell id="fEhUayPAqYJaGiIZ18AJ-5" value="Tipo de &lt;br&gt;conversion" style="rounded=0;whiteSpace=wrap;html=1;container=0;rotation=0;" vertex="1" parent="fEhUayPAqYJaGiIZ18AJ-4">
          <mxGeometry x="-3.84" y="-10" width="113.84" height="35" as="geometry" />
        </mxCell>
        <mxCell id="fEhUayPAqYJaGiIZ18AJ-6" value="" style="triangle;whiteSpace=wrap;html=1;rotation=90;container=0;" vertex="1" parent="fEhUayPAqYJaGiIZ18AJ-4">
          <mxGeometry x="87.7277375565611" y="2.5600000000000005" width="9.7313762863893" height="9.89" as="geometry" />
        </mxCell>
        <mxCell id="9GvEFEXf6PaLgaHzI8d7-10" value="" style="group" parent="9GvEFEXf6PaLgaHzI8d7-120" vertex="1" connectable="0">
          <mxGeometry x="150" y="115" width="290" height="25" as="geometry" />
        </mxCell>
        <mxCell id="9GvEFEXf6PaLgaHzI8d7-11" value="--------" style="rounded=0;whiteSpace=wrap;html=1;container=0;" parent="9GvEFEXf6PaLgaHzI8d7-10" vertex="1">
          <mxGeometry width="290" height="25" as="geometry" />
        </mxCell>
        <mxCell id="fEhUayPAqYJaGiIZ18AJ-9" value="" style="triangle;whiteSpace=wrap;html=1;rotation=90;container=0;" vertex="1" parent="9GvEFEXf6PaLgaHzI8d7-10">
          <mxGeometry x="272.1677375565612" y="7.559999999999945" width="9.7313762863893" height="9.89" as="geometry" />
        </mxCell>
        <mxCell id="fEhUayPAqYJaGiIZ18AJ-10" value="Salida de texto" style="rounded=0;whiteSpace=wrap;html=1;" vertex="1" parent="9GvEFEXf6PaLgaHzI8d7-120">
          <mxGeometry x="248.43" y="170" width="191.57" height="30" as="geometry" />
        </mxCell>
        <mxCell id="9GvEFEXf6PaLgaHzI8d7-220" value="" style="group" parent="1" vertex="1" connectable="0">
          <mxGeometry x="880" y="470" width="439" height="360" as="geometry" />
        </mxCell>
        <mxCell id="9GvEFEXf6PaLgaHzI8d7-122" value="" style="rounded=0;whiteSpace=wrap;html=1;container=0;" parent="9GvEFEXf6PaLgaHzI8d7-220" vertex="1">
          <mxGeometry width="439" height="360" as="geometry" />
        </mxCell>
        <mxCell id="9GvEFEXf6PaLgaHzI8d7-123" value="" style="shape=image;verticalLabelPosition=bottom;labelBackgroundColor=default;verticalAlign=top;aspect=fixed;imageAspect=0;image=data:image/x-icon,AAABAAEAAAAAAAEAIACnRgAAFgAAAIlQTkcNChoKAAAADUlIRFIAAAEAAAABAAgGAAAAXHKoZgAAAAFvck5UAc+id5oAAEZhSURBVHja7V0HmBzF0V0hRM4gRMYEg8HYZDAmKOcsIYQROfxgDAYM2AaTk8EYY8AYMMaAAQsMmAxKpyxdTptzuqBIRkJ5/nqzPXdzczO7M5tD9fe9b06n3b3Z6a7XVdUVbDYelke8Y4WCgYSXCXvj3zx48Kgc4d+J8AZhNmF3JgAePCqLAH5O+ILwDGE7JgAePCqHAPoQ/kjYRLhUIQUePHhUxu5/IKGF0EE4jgmAB4/KIoAphI2EDwi7sPDz4FE5BLA94UWCRLiFd38ePCpr9z+KECSsJZzOBMCDR2URwFWErYQqwp4s/Dx4VA4B7Ex4R6j/9/Luz4NHZe3+JxI6CV8TBjMB8OBRWQRwm9j96wj9Wfh58Kgc4Ye9P08QwJ9FMBA/IB48KoQAzhOhv+sIE1j9L6u5NQQPXiQKHha7v5NwMC+Q0hzeYMgWiMRsLp/P5vR6bb5Q2NbeuaqPSOg6nDCI8FMlv4PnmIUfGECoFwTwDxEMxA+oxIYs7KvW2poddpvb79+XSGCiPxy+lebyScIsQojwlbhOYQJgAlAwQaj+CP+dwQujRAkg3ibv+iT4pzrcnqpWl2udNxCUBLFr0SA0Ap7rCieAvoTnxKIIE47mRVGiBEDqvyRJfRwezxMk/BLg8QekWHunHgEg2Otmnmve/Y8geMWimCkKgfADKlECiMbbd6Dd/xWFANw+vxEBSOLUZ08mgcomgMtE3j92hF/yYihtAujoXNXX7na/oBAAmQM9CEBDBp+L0x+e8wolAOz2b4rF0CG8w7wYSpUAQmH5SgTwF4UAnF6vFG3vEALfKYVjcS0JPMxzXrm7/wmENrEQPiHsxguhtAmgyW63keA/qBCAw+ORom0dXQIfjESlSLxdTQD14hSISaACCeBmofpjIfyWF0HpEwAJPXBvFwG4PT0EPhiJSf5wRE0A3xEm8txXHgHsIc6GJZH7fxYvgtInAFL/gXsUAqCfSe1v6xJ4mABufy/H4HMc+1F5u//PheBjASzm2v/lMWjHt5Haf7eaAEIk9IqwwxyAXyAUjakJwCdOg3gDqCACuF+1AB7iyS8TAvDIBPAHNQEEVcKOnd/l9UmengFCOAW6nNdA5Qg/Un2rxeQj938ET375EADt8L9XCACA409NAAgOgnNQ4wx8i2NAKocAxhC+ERPfpHiBeZQDAXhBALe1utxdBBDo6fSTfMGQ/HuNM7Cdj4ErgwAQ+vu0auKf4s4/5TPkXACv72a7igD8oXAPAgiQRqATJLSN8BsmgPLf/Q8juMSkrydM5UkvMwLw+X5Ftv9WhQCw46sJAE5B+Aa0DkLCHC4Em+dB9lgXvIGgjBwTwEWEDWLCvYIQmADKiwCuIeHerBCAN9gzIxC2P3wAOv+H0OBzeD3kcfgSQr8dqWm7YvKibR05qdgiPm9HwmuqCUfr73482eVGAP7LiAA2dmUEBgJSrEOdD5A4ClQiBSNtPZyB9zMB5HGQvWZz+/w/pol4y+3330422ckiSCdr5ZtUn4E+f1E++ilvAqD1NN3ucn/flRGoCfzBz/idgZNwGWFfXhf5ZexLaSK2iKOZlfTgZxPuJgxUAnQyIQPV+24gbBETHSMcyxNdlgQwidbTd0YZgYBXnATopAyjYtAwXhf5tdlmtLrcGxI2WQ+HDYp0LhJk8HN17rYVMhCvQ6LPx6rPfkc0AuFJKL8NZSStpa/VGYFaAsARYM9w4R7OwMe4KnSeBgI3yAw4kVS21XqhmyqsFQUcfi969u1uhgxU/3cmYbWqGsyvmeXLkAA88oZyHq2lL7ozAr09MgLlpKBoTF5r3Y7CkLZcGGcI5sUH4IMPILCfw+1p6rbZAsmquACrCJ+Jc1v4DHY1IgPVv+9WvR9mxik8wWW7oZxG62iNUUpw4iSgrQcByHUDul/zLWEcr488DG+ijhsm7kG1ShZQhW8mAYI3VhA+EPb9CYparwGcOks157178OSW37C75VDg42gdrexeT73CfmVhh2agDhnWrLmnOUAsHwQQCMonAaQJnESC39HFyDQ52klLga2iuMc7osPvkSLqDwQwXMT8K6+9i9m9PAfqAdA6Opyu7UYpwV1JQT5/DwLQnBY4CIfwOsnDQBBQMBztR1rAc+oJ8aQ2BYywSQT5/I0wSlX1V3Esch24ctUAXHI9gENo/bT1SAmO9vYroWS4er1piAJRotN4neRhuH1+UttkLeDHNAk+9aRoEjbSwTei5r/6nHcvbg9VpgTgccOcPJjWUdwoJbjrJCAU7kUAmryBFzlQLA8DlVzgC6htrIP9dj1Nxqae7B3LlATUgGp3ibr9F5NB+QxnIhsQBBBNYt8ncgJoXUHthyaAjQYkoXEWugkH8brIhxZAZgDZZDZPILAXMfj76smDhxZe2yySAHIBWggPEk5T8sCZCMqAABLZgAcRAYTNaJIpTMwvODcgj+Pppx9KHOP4fKfSBHp7OGh8/l5HOVlCJ+EN0SuuP2sFpT1EaPmBDrcnoF4/Pk1KsElsJlzD6yBPA2aALxi2NTkcYPLJRAJrtE7B7hrvWcc64R+4TeQMbM9EUIIEQFokaZMH0EbiUa+dJD0CU+EJnv88DiU1uL1zTR+y526lydugncg0TwbMYpvoEficOD7cg4mgtNYPbSQwIxeq141ePoBJfKpEnfLIK4v7bb5QaFeayBfUE6kUeMgxCagTQ1A6/ArCgWweFP9Ae7BpV87AUeAT6jXj0AkGMokg4VCe67yTgC8RJuz3DyASeDcfJAAfAxaJzuduFB1kbhPdg/swERSrGRmUHYGEG2idbDMqDmoBXxIG8TwXYLQ4nYn0Tr//YO3JgJLAkX0SaJePjAK9W0gp0YYIMPqjyCXox0RQfEMkBJ2jTgjSSfgxiy3cNLZQ6lwobDvymB3lkwG3z38oqXEf9SKBHPgE8HmIHMOCgaah01BSqSL7D8JgvWQkHgUkgESKOY4Cgz39AP5018pTnB5cQBJYv0USx4P+w+1uz6daEpBPB3JwRIjFAk0ACwcZilAhdf7O5yL/AMeI+zARFIEjMBDEutmd1kyPtaLTC8AsOHms0CSwcu3nctsnMgeOpImcrSUBeHm1CR/Z9A3gHBkJSk6vTw4X1VlIaDI5n3AlYX8mgsKul/rmJqyXh7WhvsH0okpxKvQDnseCTmqIBKlTjvUmc+AoIoEPtSQAAc1y2HCvHHK0lMJCwm6CirI6pAOH4RKRkchEUBBHYEiJCLzG7uquDpxBQNDXXCasGEiAJrZz5ZqET8DvR7DHK6gl2CuhIxzJ2TEhqsvCP+AWqaT4eyAFHT8BE0EBhygMcgrN0eokKb9WUs1v5LkrEvWuur5GPiL0BAJ70q7/OE3s+p7agFsuBZ2mvWfJP6CUl04QQUAuZ6ZDBIuFadCfiSA/QxwjD6B58Wj9AGn6i57lAiFFRAIun1cEC4V3JhK4mSZ6dS+TgIQzmEOTQDk2xEmBUl4KVzgMoSUYEMEVTAR5MAMCQdSY2JkE/m2thqhXG8AE5nPXoKJj+UTE4FZJQtjw+dpzX2XCIaA5SiTq0W7KraowkyACv+yT0BDBBiaC3A8/bRItLhdMgXu0a8Kfnh8AZeSP4jkqsoGgj8ZWu62htfXsuqbmz5scDkk74copQZrMb8ksgP9BXWtOIYJgRJcIUPL8Mj4+zI2/SMQDXKyUnLdQdNaosMwonp9ic/a4PbaL7vi1ra65+ZHl9fVSdUOD1NjaqksC+dIG4HvwitMC9d9GPIEcS9Azo/F7cc48Va/UOY/MHIGiQOiKnn4Ab7pr4BaelyIamIiGlhZoAANqGhubQAAKSCNYp00n7tIGvL6cHhd2RxPGZM1DTxuBA1GzC6EU9Xtil9mZiSDzgVJzHn+gPxFBay8/QCwtbfAFJU2cR5EQQKtcBNIzprap6Vs1AdQ2Nr1Hgj6CNIS5RtqAV9YG2nPsJEwEESEbTXtSAZ9BsLePAMknr4vCpTswEWTgCAwGbeFYfAdxXCxlodbkYqVVHY8iIQD0FCAB+iN21BanSyJNQCaAuuaWm0kLUOIFniSB/0aPCOSTgt72edaBOAFtGeoUpwZofvK86ILUl0nA+ghE40gLJlPAe0ev8PH0CoSg7PwxPAdFIvwCA0SqbpcTjoigo8nuOJEgnwcHIpEdSNBn0GLwG2oDtCByGTcgawNk+/t1tYHuOIJwb9UUi+7PhB9r05B5pHAEhsKKI3AKPeN1WuJPo7oUdwwqQgKYIOLw1fb3f2lH3YkEWgkYsjXaW3FseIoIId5qpA3o2OZ50wZ6klGbXmGK+5SjKCYCS47Ao+i5tifpAWAFt/NzLx4C6Ktp+qHkb/+KhNi2YvVa+bUoE4VagzgyJDLYlxbFA7QAPjcSwFxHEabSBpSINfgONN5qlCtzisIkhzARmHAEosRcIIg5r9U+40A4rQIhL3GvgOLZ/Y8QBTrUuzaq/J6oFQqog8vrqmXPMO2ufZ1eH4qOtuoJn3JUFMhhToFaG0CcgNF9GGglW4TZcx3nGaQwA4Ih24pVa/vSXP9dr5ZEGnO2XInb4FF4AkAQzUZ40lWNH5IWcXQneg/YWhwO/Pwj2hlmqhuR9PLU+8kuj7fl/MgQZIPjSXXsgLYsuo6jcJMIJrpY2+2IF6iYb69PMQNu7U2uaRUK7RRVo/nhFpgA0MzjTUwghCPQfazz+1QCgIIR/nBEriFPu8AeZBrcToK30lgb8OQ0w1BtFuBEAiYINBAtGXRlHvYmpPWiXfokwm5MBLqOwFH0DL/p+Tw96TScWSeeM5NsgXf/n8BDjoCOROegdqU6z9lmJgcLw+F2y7kE69dv7EO7wQhaEMuNSEBJJc1V0ZGe6JRtfwQSwU8AQkDwEL4nyAiagoF58o2oTjSCux2pHYEoEuo7VNsuzKhlmAncwQRQeAK4GXnaCOZR5XgvsWqfJUyCoK3V5QQZHEYC9oxRzECXNgDnXHtHPsqS9zATYvQ35crFbe1G1YvVLa1eFW2tKr5wqVGvgAwKhf5bCdLiURgCQH22WRAG7IqqqK5H0lnkqCATirUlYgbC4R3pMy8kEnAm0wbk5KJYPK8kkAZWijz2U5Rc9kokATgCd/7xXr16BWTQMKSOsB8TQOF2f6j5a6G+YUcWNjHU35GZLHA5ZoB2i2a77CA8jj77NW1nokIkF2UBSGV9jHB8JWoDqA0gegXcqO0VkGahUBDrCUwAhSOA+2XnH6n+KgZvJhyQ6cLGCYEvHE44CIOh3WjR/FLPdsx3qnGW4CfcTTiy0ohA9Ao4V1szIs1CoXC6ns9+gMIIP4po1MAZJ9f/6y7u8Ey2SjbJDkJPouLQkrpqLJwzaaf4SFt/UD+5qOi1AQQT2UVq68GVQgRGvQIyKBR6NxNAYQhgDGKyMWmqcE4w8rRsT4g74TySz5FJM9iHFtFd9DdXJdMG8pVclAUgmKhWtL/er9yJwKhXgBJjkcZ8/YewIxNAfgkAob/PKM4/V3cgh0+p257tCYE28O4Hb8vlx1atWduH/uZwIoHFyUggX8lFWQJqFS4g/EKpeVeORIB5rGtqQur4w3onO2mkhTcpJd145G/3P4zgwg6baBDapbq9mutjGeW40O5yKb0K/0KC/lVqbSBaCtqAEuDysUiuKrtWZ6peAf/X6nJv6V0o1LIfAOnaJzEB5JcAZpAwbUBgjKq66yZRcjvnCxWLKNLWoaQY96MFdT7dR0sqbSAfyUVZBJpgvEUYqqi45UIEolfAqTQva7JQKBSl3C5kP0D+CACL8XWEbiKDTpXPHVdis/M1EUqKMfIJyDQ4hhbWy717ExQmuSiLWEv4F+EspQxWqROB6BVwAK0fT+8oz7QKhd7PBJC/3R9CHgNTayK4/kfYJd+TkMgniMrHhb5gaFcipKuNCo50aQN5Si7KMpD88rRQd0s6mEj0CtiFCPsdPYJO4wTnv0r9Rh65J4AbiKG3KEU2xdntVhESXJAFKTco8SaOC+ubGqENnEiL6026v43JtYH8JBdlGVERafmjUtUG5F4BTqdur4A0C4XaRUUqFtQcEwAy3D6GowYTJav/CbaGI+bUQi/ExHFhIuvMGwzuTtfr6T7DyUggv8lFWQXqL9ypPnUpFSJQ9Qq4pNXl3piFQqFrCKexGZD73f9MwmocrWkKOcwtlnZN0AZaEycEtqU16F3oP412mneNaw0UNrkoQ0DzaiH8mnBgKRGBqA1wvLZXQKJQaCCdI9SLmQByTwB3w4sOYZHV/+4UzqKLxlKCh2RtIBDck663kDYQT6UNoEZgCSQXabFZVMjBKcy+pUAERr0CMigU+jATQG6FHwtrKTzomqAN1M8fVIwPH9pAY0uzvNje++BNqJxnpQol7kou6l0HsBSANmfzCBeITM2iJQJVr4BX9Z5/GiZZQZzQlUQAI2LtnV8rVXQ9OK7pkJ1nNcWektkrlNjj/R0tso7U2kDJJBdpgerMHxLGKkJRbEQQiMYMewUkCoVa9gO4FDOIR/YJAMdOf4FqrJTHUlVyfVypk1/UjifSBl57/Z+yNoAmJshII0KYZVSavASTi/TwFWEmYXCxdTdSlQibqu0VkGah0LXCR8VmQA52f5S+tkMQNLnb35VagwYQAM6h7aQNkGawHy3Cu5PVISzB5CIjL/mLQkC2LxYSSDgCfb16BaRZKBSRqJczAeSGAKaTvf+9U7TbVpX+cqhTWUtl4Bhq3Tffy4lFq9d80Yd2oSEOt6dKW6RCP5w4WErhxFp0EJ4k/LQYuhupegXU6T3rNAqFPsYEkH0CgOr4Cqr+6JzTPl/KXVq7tAGyRT3+wAAiuIeMOhkXonNRDhEmPKj01ysUEYCIO1eu0e0VkGah0A+VBCoe2dv9j6WFHlaaZqg8tPA4X1TqjItF2N6xUo5Pj7d1bufy+kaSNrDInDYQSGeXKia4Cb8T2Z15JwIQsFGvgDQLhfoUjZRHlgigrWPldSTwmxXnn6u7aENI3R+v1IeiDaDNOWkDBwhtYHUqbaBEw4m1wUSNaOOmLuWWj3lN1isgzUKhX5gtR8/DBAGQ8EOdet8nEn80ZZvKrhILtIFoW7tMBvH2FdAGhpM2MD+VNlDC4cRaJ9pS0eVpn3wRgegVcJhevcc0CoVuFpWVmACysvt3rjwtSiwAm7db/Y8rZayuLdcH3eUbSGgDA2gh3p+qBFkJhxPr5dfPEcU2d881Eah6BSzSy9rEyYvF+3+CCSB79v8dmAB7b5WsQ3QEKtsHDW0g3t4p+wY6V67eDicFRALzUsUNlHgAkRrfEt4jjFZSbXNBBHjOGHq9AhIap2U/QNKelDzM7/57k7AvgqOrazK6nTIfVYq3VXNS0J+0oXvo5xWpSKCEehWkAkK9Xyecl4tgomS9AtIsFBogHMoEkDkBDAnH275UEn9Upb+A2ytJzZKPqzpXy9rAmrVy3MAgei6zU+UUyNqA1yfXTBBh06WM1eLY93RRFDZrJGDUKyDNQqEgrIFsBmRAAJ2r1iBI5E9+lfNPlfuPqLKfVeIDVlqad0URerx3mskpSIQTB+VegiVOAkAb4c+iI09WgomS9QpIo1Ao/FO/ZALIbPc/iIS9Wan6kziT7YrNXkjYu1IfLrSBz9d+IUcRqnIKPjWjDZRYdeJUCBLuIxydqVkgd4FK9Ar4TO+5pVEo9KlSyE8pZgKYSmrreuXsX/bGdrPwA8yu3b4Bh9sD3wCalfxOL6a9DMOJtd2NnITbRL5IWkSAeIDaxkbdXgFpFgqdo6RD87BIAO0rVvWjh/1Pj6j6oynUiFLVw5gAlIUbkrUAVYbh2bSLfUzPbHPqI0OvnFFZJtoA1O56wnWE/a0SQbJeAWkWCg0rpdJ4WN/9j6bdKaA4/xIlmrrU/wZlgnmotAG/Xy5wIeoN7O30eG8zU32oValOXNoBRNpgosWiPNfeVoggWa+ANAqFfi36KfBGZYUAaDfC9Wp/ONKjfp6q9Ndfs9X4s/y0gbDt3DMPk7WB55//O7SBn9Gifj9VLcIyCSfW69r7GWGyKCSbkgiS9QpI+AEiVsObb2QCsK7+70Kq1jtK1Z+ucMyE93qdmFB+qKa1geBepA3cTDtYLLU2kDjzDsfi5UICwDeEd1FNirBTMiKAPyWQ6BXwrt6zQTyKxaPUZ3mzsq7+nxSKxjsV55+m9JdHnTXGI7k2sGT5MvmkYNacj7GznUEL+3+mtAG3p1TrEaZK0kHfyHMI/fSIQNUr4F6jExSLIdbzi6VSdUkQANmhuN7uDYa2GdRme0mZPB5mtYGAzQMHl6erMvGNRK4RM9pAmYQTa7FS7MynaLsbpeoVkEah0BjhSF6vJnd/Uv/3isTbq5SqP5psrI0iS4x3/zS0gcbmRGXiBdWLoRWcSs/17VRdi8qgHmEyxEX1nuPVJKD0CrDr9ApIo1AozI9RvGbNq/8D6QF/oU1xFY6pqLp6DA/rQ856C4SUrkV7iK5FITPaQInXI0wGv+gpIe/UwWgMPhTdXgFpFArdVsh2dSVFADjDpl3mEaXqj07pr7e5+WJ2tIEWp0N2FC6vq4O6e7LoYbjBlDZQPgFEWkFFb79bCAcFI9Ht7W7PK/pEaLlAyAulXLIun+r/ALI3G+jB69lcfKSSA99AV9eiRA/D/6Pn7TOrDQTKJ5xYG0xUS5roFUSMjxuRoMUSbIsrOWzdFAHQzo/rRFqQ3xmUY1pBOJkJIPvagNLDsK6pAb6BE9Alx+5yrzMXThwoR21ALkgSisVX0HfcmoVCoW2K6crDgADWfP7V9rSQnlOq/uiU/prFBRbyoQ344AnfhebhYlr8djPaQBkGEMmA09Ph8UpZKBT6ban1rSiE+n9EIBzxqc/+VaW/JNGCmh9gjrUBmAMgg2aHHVrBD0m4/07z8LWpAKLSr0fYAyA0rT8qg0KhlVG7om7iMFvj5OG25eOH2haMGWSbT1g4drCMhknDbeHp42yRC1W4aIIt/OyTtuiqNZe5g6GNrYj9F3Ai+KdzpRRfsXpt/Muvz4r+/a8938vIHWZMsgUef8jmlKTtnOHoRLvPt5zmZIt6fvTgIMHwkXocxaJfsark4UMTWp3vaff6pAgIYMVqc5+1cs1LX0hSn+Yrf9ElD5ANyAhkBTID2SnJUTthmK1+4nDb0nFDbAvGDrLNHnUe/r3bwrGDDlo0dvApS8YNuZCu19VNHH59aPrYy2iBXdKNsZdELp50eeRfL8z3vvWG5J75Whf8b8+UYh/8T4q9PTMe+dUVN0QuGHNxz/cycoxLI9NpfqaNmhH6/U13eV950UPzsk09R7p4MzF30fffTcxfCSP47n8Nv2Pof2+b+5wP35NiM19zha+56Lq6CUN/CVkQMnEKZASyApmB7ECGIEuQqaIfyycMtdUSa9EXsb0+8HRb9YRhey0eN/gM+iK3V40Z9Mm80QPDc0adt5rwPf1+i/v80VtpUW3UxYyJ2whST0ySiBwk0hK2GL6PkR9MH/u9DN156o2weg5LHkbf09JnbKPnuAkyAFmATEA2ICNVYwZ+Apmh359ZPX7YXv8+73RZpiBbkLGiG9V0U/WkztMN2yb0399GbHY8qTN3VY0euGTO6IFr6ItJs1Wg10neaaMlegAMRsUDsgCZUMsIZIZkZy1kiGTpbpKpH0PWIGOQtepiIALY8AuhpowfYvtw+DlQVw4jG+bOuaMHBrRCr4CYjIWfwdAhAciGnsxAlkimgiRbf4CMfTDsbFnmIHuQwYI59768dJKsmtRMHLoH3cx1pL40081um20g/KTWSB4WfgZDF5ANyIiR/EC2IGOQNcgcZA8ymHdnIbyUDROH24iVoO4fSirKv+nmNhndOEA3LjmmjuKJLhBC08dKgQvMAa/lZ1YYQEYgK8lkCbIGmYPsQQYhi5DJvIwlZIPgj3068lyyR4acTjdbNSfJzco3PPo8qWnyCJ7gAiBIwoxnT4tFIhVSmp8CeA1ei/cEmQgKAjx7yEwKEgBRVEEGIYuQSchmTkfNhKGy8+HdwWdD9R9HN+CZnUL4AXoP7yoFEv7l9OwxB7NGnivNGnG2NGt4CuA19Fq8B+9lEiiMtlYt5i0VIIOQRcgkZLMmV85BnEW2Th5h+2zUuRD+YaR6xM3cIHYVdvoVBs3YSRT/y2UXSDX3/0GqfeQ+qfZhA9D/4TV4rbLLNLPmVjCnIGTHjIxBFiGTkE3IKGQ16+ONwWfKkUqkchxPrNNo5sawgFj1LwzCBOzg2M3nXzRZ8i1aJMXi7aaA1+I9eC8+I8zPs3CmgAk5E5pA4+LE8bssq1m3+3H+uHTckP2rxgz8cLbJm1o6fgirkAVUI2HLzxpxjrT01hulKKrXIow6VYw6vQavxXvwXnwGm2+FM+EgQ2blDbIJGYWsZs0fgKCDZeOH2BonDduB2OVps4w0l73+BScABJdAiJf99mbLBID34L34DCaAwp4KzE1xKqDWuCGjkFXIbH22YgSqSK0gG2M43ciXZtmIdw4mAEb2NLnZ5jfeLyGrkNmsBPsg4qh24rDdSL14z+xNgIlapozkCWQCYGQBkCWzmrcwBd6DzEJ2MwoSckwdaZs16jykKk6jG1hn9gbo9XJACU8eEwAjc0CWFhqECRtswOsgs5BdyHDaA86EZeOH7o2Ag9kWGKhh0nCeOCYARhYBmbIig5BZyO7idJ2BSD1EsgF9wChilG8t2CCS6/xRUpQnrWCIdhHAkCwQQMKXw/NZ2PmETJl1Bgot4FvILmS4Nh0zoJ7e9NczTsTZ/8NW7A8kMwQuGMMTl+MzfjxjJI+4aWG4zx/dC86po2S1MVMCwGfgs/T+Bv427gH3wrECuTYDxiRNFDI4EXgYMlyfDgHIMf8ThuxTNXrgcrN/dJYI+w2bZLWo5t880ebswbqJw+QoMSSNzE0CLIJMCUCkohoC94B7wT2x3ye3pA/ZmmXFGUiyCxm2HBOAHOMFCfX/53NGD/zciu2B0NGoiUVsnzpStmuwcOrp2jplpORnzcF0jDiEU4nZT0rKGRJAys+XcwzO4ZyPPJgBkC0rsgjZhQwvsFo3YO6YgfLZ/4Ixg26bY83xIKuGhixGiwNHGlAr5yiLR2COfHowSP6SvIj0F4A6KGTR/10qNT33jNTy6r+klldeMsbL/5RcH38kxSw0rsBr8R68N+ln09/GPeBe1MFfrM3lBpCtedb8AMjuvA2yDJm2dP4v3XBJH5rQp60wDlRBIzUQwo+dnlgpsXNBhZw8SqqaPkGaN2W0/G+FCGpJK2AS0PcE4xnNnUK295xZUtvK1eaAKrQWS2DjPWY/H/eCe8K98QlQbs0/swlCKqf805BlS/EAosbfnsQclo7/cGRkFPvfPGWELPyzaZFUXTBeanj6CclbNU8KNjVJ3oULpKbnn5Xmz5gi/z9IoJEXUi/UThhGQnaO/JzCTpc5lT7XoHvAveCecG+4R56r3OUGaGsHpg4KGlQFWbZUQxARRMsnDB1Ab3ZacQAuGz9U3um1N+4XHkzsEFUXTiT18kMp3t6Z2JloASk7FAgBqahyBpucRsw+AUMCcBURAbiYAPLiCCTZgozNskYATsgyZNr0QK2xJeOGHFg1emAg0xOAqAhllF9HQt30wt+6Fo7eYmp949/SHBH73MipxEwAjExPAgKQZci06bFA7t4z6GCyH6JWCAC2u+7CnThM3tXnTSNtoLo60RnFYDGFWu3S/Iunci46EwDDSJas+QCikOUFVpKDRIsiEEDMCgHU6RBAV2GKEedICy6/UAq7PcYLl34fCQSlJTf+H+eiMwEwdFBnnQBikOX5+SCAWgMCqJmQ0ACqfjFJdvrFO401ABDEwisvSpxfj2cCYAJgZKgBWCcAkQNw0LzRA0NWCKDGQGVvmjRCmj3yPGnO+KGS4+23DE0AOAPdn30qzZ00UiaM+om8mJgAGD03U2s+AMgwZBkybSkMmHbfA6rGmKv6qxDAcvkUoPeNI16cPkteIIuuu0IKNjZ2nQAowL9xnLT0ll8lzrpFUhFPPBMAQzkFGCfLmLVTgIEeyLKlcGDUGCdVYx9SG6qtnDka2exhobp0vY5sfPesz6SIzy9Fw1Ep4g9I3vlV0rLbfy0HBHFYqRkCcBcRAbiZAIqwOpAIzquGLFtqHIL0Qdq1dyD14ZXZVjMBDYQW2UxLxc3LO/zkUbI2sPyOW6XFv7pamjd1jBwElAgoGiL5OC9A3wEkAqkCtbVS28o15nrRp0MUeI+Jz8Y94F5wT7i3OjbbchcJSLJlJSNQmACvQJYtpQQ3Th5hmzPqPOQD3G01FyBZDwAEBMGGmSvCfuWEFgVC7ceJgY8DgHRzAVqmjOiKp6i57w+y1oRj1aRYvlwKtrRI8fYO88JPr8V78N5Un497wL3MFiGquEfOBchdrwCruQBChmWZtlQJGOeGi8cOnkhv/s7KH0RWXzSFGoP8cpgEZJfIiUEIb8RJgWPqSFb7kwAEuhg5/oqHl7QoxFYkBWlW1ffeQaaWhWxAei3eg/em+nzcg+IDwr1xRmfuNoBWi7UBIbuQYciy5QrBIhoQJwHubAQDGZFBUIADfsxnhIEw5YWgyqbUg/z/w8+Wlt1+k/V0YHoP3mvmb8wReSDJMkEZ+T8ChOxChi1FAXb1ASSbgQSzb9WYgc9bsTkWJUkIYmQvKwxpt02Th8vZd3qonzhczqfItB4APgOfZfR3cA+4Fy4GkvtEoEWWE4EGPg8ZrkmnIhAaC6CQAKnol6Rq/a31A3i4F2BeVMJkyEVNwGTgOcktPNbt/02QXcjwMiuJQOqqQAsTZsBhc0cPdGW7KhCDqwIzclcNCDIL2YUMN6TbIQhHB9ccfQQ0gd8So2y10hOQFw0TACN7c2mlRyBkFTIL2a3NpDHI8glDRW+AIQeT+tFgpTS4k/sCMgEwsgLnVGslwSGrkNnFcmHfobaMRiOpDx+NOAf5AddY8QVUcyovEwAjazUArNn+g66BzDZmozloDTEI2RIID96naszAWZacgXwsxATAyMz5Z7EQKGQUsgqZrcl091eGb9poG6kgIIIz6Ga8Zm8G55asBRQDAdxkORAI72ECKPzur86hMbHpeiGjkFXIbNYGKorWTxxu+3TkuQgQmkh/YLVZLYB9AYUjANRTkLv7XDVDCtkdctx+24rVyUGvwWvxHq7JUHjb3+zuD5mEbEJGIasZdQU2yhBEZVHp1kv7LBgz6AayNdabqxQ8xDBBiJH7MuKyXTh2sFR9128l+8zXJcc7byUFXoPXzhHdaLnMd+ESfxabzPyDLEImIZuQUUuZf1bbhSGooGHi8J3pD947Z7S5pqFc4rswQFLVQpE7IHfvGTNYLriaDHiNnJwl2rxzYlZh0GiyGzBkELIImYRsLkm3G7B5Ehgik0Dz5BE7LBg76CpSPTpNOCYkJxf3KJgTCWfIch9BkbCVDHOF6Yb3sBO3QKo/yQpkxoTa3wkZhCwmhH+ILS9DIYEnT/mJbdG4waNowdhT3SzvJoX1ByCVFDalIwXwGryW7f7Cam0m/Gt2yB5kMK/C30UC9Edhb3wy8lyoHT+pGjPo9TmjB36T7KbhUOJEoeLOIeBnVNiEn2UpIv4gY5A1yBxkDzK4ZHyehV8dI9AyeYRcRLR+0vCdF40dPL5q9MBPSZX83ugLoCAIkwCD0Vv4a5IE/JBMbSCz4DPIGGQNMgfZy9pZf7oDiQZgomXjh9pILaEbGrYnspDoZueTjbJmjkF8AKuYDEa3iaZ33j8nYeevoR1/AcnUpSRbe+GMH7IGmWvIRqRftgYqjsRnTJD7Cn5MN1czceieZJecvmDsYLQn/ohuvB0spjibEN6YsnrMdPr/Cxi9IJPnWHEdl/3rhSpyrjSinp7LOdOv8gRZUDliN5CsdJDMfEyyczsCeyBLn4w4V5at9ovGF5fg9yKCicNszZOHy44JpCLORj2yScN3pS9yHGHGgrGDfkdf8BHSFp6n378evnDcS/Qg/qnBi5FLpvw78MCdK/2PPSD5H7tf4AEp/MQjUvTJR3OKyF8elQJ/elDydf3ddKDc62P0eX+Ugo8/lNY19OeH5c9RXbcGb7+xPnjNjPcD118+O3TVhe8EbrxqfujyaTP9N12zOHzZ1DesXEOXnf8f/41XLwhdOf2/gV9dMTd4zUXvBX552afBay/5KHjtxR/S35hFi/dFnTkqN7wYmTHx5cC9v4v1XHP3S6GM19xjUvTO3zTKf0P1N7H2IQOQBcgEZAMyAlmh3+8G2YEMQZaaJuUguCcf5kHrlJGyowJfBECHkneHnmVru2h8X/pCO/qmjelHD2P7Hpg8bPvYZedv77Tbr7U7HOtaHQ5Jgcfrk2LxNine1p47xNslfyAo2VV/Nx3I9xprkyLRmOTx+ekap9+Jq8/o6pOvXvp3OBKTfP6AFApH5fsJhsJSIBiW/P5gwOf1PVdbvfyC6vnzjq9etuyi2nlzj6xevvyautmfHWLlWjt3zg+qly+7rHZB1Y+qly2dUrNo4enVS5eMqlmyeCDh3OqlS8dJNtt2veaozLDRZuvjbmkZYnc6VnbPoV1yut3yfGS4nmLxQPDsEJ7j9LFdfxNrHzIAWYBMzJd7cibkBDID2Snq3T4dQqgj1As2w7+D08fa6GH0xLTRNt/bM23e9o6dHV7vc600Ca0uVwL0sx9x7Tmudx9r75Q8JHRdfzctuCVvMCSFiQQ8gZAUaeuQPzP1tV3y4H1ERD4S+lAsLn/nIBFJIAJE6ef4VncgOItwxfL6hulLGxoOWd7QcOWypqYDrFyXNzYeTNeL6Xo0XScSTiYMI5xNOIswqu6zT3rPUbkAa+2j923eSGxPh8fzgXr+7LTW8KwzXEub450rf9cpSbboXx+jv9m93rH2G4Qs1AvZKCuBz2S4fD4Zbr//EJqIxeqJoYmShSrXJBAhAXR6vRmTgIt28y7BNnONJ65h0nRkAogKAhDCHwhHZTLwhyIghy/tbs8/HB7vGcvr669YVld3AF2vIpi9HkK4mHA0YSLhZMIwwjmEnxNGE8p2nflCEVtdc6ON5vlamquN6rnzkPaFjSDDdTSb0J9gA3hYGNH2dhtNhM3l9Q0iEmhXT44bXYXaOnJOAhA0u1oDSQMtTqdkB2nF27JOACBC0jI20rWlsdX+QH1Ly2EgAiaA1MONTcZLm4zPfyzNsTsHm8xKwhAW/jSHNxi0eQNB28ezZ4Ghb6CJ+V49ST5Sk/PR/gpCmCkBNNrtEmkztKvkhADk97j9gTX075frmptvXVJbsz8J7pVMAEZrK2SjHd4WDEf6kbA/q50zPPcM1802wkOEvkwAmbC03w+GtvmCwV1pol7S2mghEoR8+AMgvBkRQGurfIVJkPAJZJ8AlM8gk8NFr72+uqHhuiU1MhEwAWhGKN5us8vapXcsraMv1fNFpmc2tMulhENY+LPlD/DCJ+D/AU1WtXqyYKNj0efeH9CWtj9ATQC4Or0+MmEC8iLLBQGIz/je4fHOpZ/Pg6Avq6sbwASQGB5fYlOhZ9Pf4fYs0G4qwcw3lS8JE1j4szVhpKqF43Fbi9NFpoBvBE3SSvWkkZmQDWdNan9AJD1/gJYAcAWgveSMALo/K0haxytNDseRBr6BiiKAYCgsm5V3/vNxm9Pj/R3NzxbtWopnvpaeIuzABJBlf4AnELBJkoSJ+w1N1sYsH9eY8weQsGWDAHCFownaQE4JIHHdQJ/1QaPd/ujSutoBGt9ARRGA3e2BPwla5Sm0bqI9HX9e+TlmuEaaCUez8OfIFIDqRiy9OwnPa728tvHcHw1CbcexXjYIANcmu4MEOdzTOZh9ApCvbn9gLb3vrrrm5tsWV1f3F0RQMQSAnR/apD8Y2oXWy+vaeQqkGV+i0j6/I8xQhJ8JIAdDZu/E0c0PicEbexwN+v15MQUgdCCcbBAArkq8QDieWwIQ181EYD763DHVDQ3XLqurO6hSCIAEnMxIB9bQL+wu97psrB3Mjcph+DJhFxb+HB/fBMNRmkgniAAe3NVZPr4xBQiiWX9AKgJQrtAsnL6ESeANhHJFAArJdJLKW9XscP6IBHxGuRMATpOgQXp8/sNo3up7Ov5w5h+3vgbCibkQ//YSfsLCnzdVLmhr71zTx+nx3kGTuFk9mRCYfBwN0n1syyYByCaBwyEvKkUTyBkBiCu9fy5pH8+SJnDUsvq6CeVIAD6sF0J8xartnB7PI73O/C3Gk8Q6OuX5QKSg2P03EH7Jqn9e/QFdRzmI4X4rB+e4ZkhgPf39BtpROrNFAN0mgUsW7lwTgHjfOvr8hxtb7dcura39abkRwMQH7rCRtgMN4DztCRJpkZbWCogfcwITMNStNbxD2IOFP+8eXTeOBUEGx9HP9h7HOSQUYOo8mAMLfKHQZFoQz9E9rMoGAajjBWAW5JoARMLSZrqGSFAurmlsHEMawdmlTgAil0T2GZG2tgfN0Ye9zvwtnB4pwo/3qbSGGOFMFv4C+QNIMGzNDjh2fJNoYj7vObmxfBDAVsJj0Xj7rrTQfkaL7B/aXSZdAlBOCeAPwMLLMQEk/kY0toJ+/0F9c8soIoGfkfCPKkUCkDVEfwBHx7vTz6OJ2B4lU2dDj2SfgPlkH1n4xRGwSsPcTPgtoQ8TQIGGJ5CIDwjH2/qS8N2nDuyQowTj7fkgga9x/OODgzIS3Z4W3Bl0L08REcQyJQDkECRCiF2yFpBrAlC0Dfp5MX2PP4AAcHZeSgvcQ/PgpjXhDUd2cni9T9A8fNvscG5pUj1LqPARk8fGsr9HCL8m/HwWYT8W/iJge9nDGwjsTRP7vxykdJqBh3Ay7QyyWULmR1+3z3+C0+N9iO7DlwkBkIYjYfHiqBDHVfkgAKFtrKNn+4+OlasPLCUHlz8as7XY7ZiHC+wu97fq1OwW8bPZmhLC2dvDtORMvyIcjY5WEeHl/6k2tTMfBUQEPiDsiwWBHQi255+fesZGQnx6Q0sLik20kmBvS5cAcAXgG8B3yjUBAPTzFvo+CwkjCdsXOxG4xHEfEeWRtA6a1YILtV35vviuqZx/0faOHkVhoFFGE3knnOlXdEc98AcEw8If4J1GzP9lvguIECAs9ymCgsCT2qYmG9nSiLa7ioT5x/UtLW/SPdWRgG9OhwBwxVFhInglIAtsjglA+W6rCQ8TDi5WEgjS83aTSUgawA40538zCvLBz9Cg8L2NjozlRC16vgY+Jc70K0rbD04f5HiTHe5InPdu7T4azE8BEcJawiRlccCBRjhUlZF3JQn3cUQESG2eSz+vs0wAys8ExK+rowdzSADKzreIMKoYtYFoNC5OhrwT6fp1qhBxJc7Cr9EGEunfAamnw7Ar4ewLzvQr4uGW/QGyB3g/u9vzcSEKiIiEkOO0BKAk4AgiuILMgqPqmpsfp3ub2dhqX2uZABSzgF6H3QrIMQEoWEN4kDCgmEgAWmA03o4CHy+bNf+6tYFglzaA3/nFWb9OkhBn+hX7mLNooY0mD7bgqbQT+LOc620W/yHsiQAULQFoiYDMhEMI97S63E+T4IdJ8LdZIQDlpKDFmVjwEGzDWgPZIQDF3IEX/Gw1CRRSKJAxSjZ6X6fH86jVIJ+ENtDTN4DwYJSeUyUJcaZfqfgDECPQ1NoCdXAGCf43+S4gQthIuB33Y0QAmusV1Q0NB9Q0Nt5K93lvQ2trPQn1RisEoEQRJo6q4rkmAHUgzE3qSLhCCQcIQHYCBgIDaAP4K32ftVbDu/Gd4fVXjvrwOxFQxpl+JWUKCH9AIBSBQ+gJEoxtOvZcrrGirXPlsCW1NQdbqNR7JTQDZOrRjn4DCfUsEu5vzBKAcgUJQHVNWYg0cwJQYuGh8ZxQaAFxonoUysj5ff3ouw0VWsomq9WgfV0nBe2c6VeqQ1VaHDvC7EIUECEsc/n8A0morVTqPZBwOb0HmsO0JrvjChL210nYVxG2mCEAxXzAkaFcdCSeUwJQ4CRcSOhXSCKQ60gSQrG4TQTqPCsiNtPVBiL0uxPpdyz8pTZQQcjhlv0BPyPBj+S7gAg85yRcn5GNf32Suny6BED4AWEqve94ROQ1tLRcSEL/OAl9mLA+JQGoiAC2rC4RZJcAgK+Eg3CfQpKA6m8jTPfxTHpDhGNxENsAJoASHPAFIH24vqUZpcSuIBL4Lt8FRGSvcjjylBBsywRA+IlIykHzj7PrmpouIK3gFoKdBPzzlATQlVdgl4UeR6I5JAAlRv5t5SSkECSg+rtHiijNTOZwuRLgxaNEjwbhE/CHwjvRzv9MjyjBPBUQIUT8ocg0k6aAEQEgOQdVfgfT55xU09gIjWAaEcDSFpcrZCXBCDYuKhPniAAUNBJGFyJZRkUA0wnf65xgxHV+r4f1hKvY9i95f4Bf+AT8B9ndnvn5LiAi1El7Q2vrbUtrawdkSABDCKcSxhERHFPd0HBJY6v9jPqWlndaXe6F9PMms8VHEE5sVH4sCwQAdBIuJWyXTyFSEcCjOvcUJQwSpxeRFPf/BmE3JoAyGB2r1sqRYkQE59I1nu8CIqK0+MsmTAGzBDCecBxhugg3voII5mgigufoe71Egr62R0yB3pW+PwKJ/OFwV2isnGyUPQJQAoeuzmfsvPg7ENyPde5nrkqozyC8K04ytK/zE05i4S8jfwDSh5fX1YtmkK713ckieTsa9NN9nJXCFLBKABcSDlOOEPFeMg8OSgQXue4iQfeSwH+XSiNAIJFy/JVlAgA+J1yvDiHOAwHAbq82SNraVaUl7Em4kRDUxHFcz+f+ZekP8Nt8Ibk09AvpVofJpIAIqdtPkpBenQsC0AYXkbnRn8jg1/QdZ5B2sJCunSTwW7UE0Ox09Kg9AG0AmkCWMym/Emq35VBabbRhquhD8fu9ULHJ4LjyIJ3POZXwmtj5HyPszsJflv6ArviAQ0nwl2a7gAgKTYSSVJklc6Ojye64J0nfvmwRQFdwEYiArteQun9eQ0vLG/R9m0nwv+smAKcmwMgpkyL6FWRZM/oGEZJWSUAlpLuJgKMjksUbiN9B23he5x7g/LvEgEx2JqD+wY4s/GU8Im2dSuvxIbTQO7JRQAQho9AinB6vkkCyzei1tLO+SQI5IE8EoM4/kLsGIzW5rrn5j/Sd/0cCv7JFQwBNItsQwHEpciiySAQggWvMng6ohLO/iMhbRQgRnkGAjvpzlM9S/XucqNikvYc6wo9SaRZMAGXsD0B8wKvvzUR8wI0kCBsyKSACJyLUZqVXAJqWkND8Sdi+erEBQX8ocoqBLyBnBKBNRKprbjqitqnpViKAp0jwG5QAoyZRfCRRiShhIsFZCrMgSw7TdsJwiwRwvTjCU39OmHA/4SgDAYYa/6HBPXxUzPUNeOTDHyC3Hg/tpk4hTRQQMX80CHUfwiHev5Xe/67L7z9uxeq1UFH/auQLiLS1P2LgC8g5AaiuB4vGIEfVNDZOJ9PkRhL6V0n4Y4TvFALQdmSGozAL5tIStQCmIAAcI/7dKNqSYBf+hQN1SABEs8Lgfe8Ic4IJoCL9AV6fEh9wBO1ytVYKiIgIP8nh9ii75NekTTxCmsU+Tk9XIU0srlqD90dI4O5bUtvLF5BPAlD3BpxAmgH6Agwl82AymQk3EQFU0ffy0ffbpCUCEKWcR08EmKZ5AAG80yQBABeLrLxkEYjLRNzB3qr3gTxuTRL486Ji8/OoNFOAzIBQLKa0Hh+pLumdrIBIIt++R8moMFKP/dF4P2SjOZqa5MWH+PFYR+dUgu7CpZ30A2GXFwMBqFuDnU33dWZ1Q8N4+p6H0ne7nAR+Jn3PNnVmpdo8QFQlAooskkGrogWYIICdhQPxSxPRe3NFBJ9SumsnwtM6JoRijvyECaBi/QGJ0uKbN29Dq7HblN0uWQGRRNkovxJNOJ80hrOaHa1yyDEIQFm4rS63rbHVfhAJerPY8bSfEya7+gQStiuLjACUzkCjGlpb5QIr/nB0RxL044kMbqJ/fyacp5u0ZIDEI78cVRiT02nlnHpjUoCDbqgFPwA8+xcRAibIBWnATYR7COcRxovahtrXfUsYwwRQ0UeDfqX1ODrIvGHmaDCRWRf4r9PnQ3ixXI/eRQSgHigJtrS29hAiAVSRrdGrrBNt77inCDWAHq3BkFWJICpUXsbpiTcY2o3Mp2OJEC6j5/UXQq1o1LpVTQYwE6Ad4HQFTlIQg9zfAFWNE/0HvicCnIwGLxaOAoGzDM74jfClEH49DQDa2UQmgAofchmxROvxY2jxNpksIPJxW+fKAYq6rx1KTUDs8GQGTBFHYFotwEv29v0qX0DREYAyUG0J1Y6h6ZC2JBOCIId9SdBPpn9fjwArQQhhen6r1ScsGmyl1yyi9x2OzzEzNCQA/8pbVnP9dYDEoOOZACp80G4ktx5vdjrhDxhHi3NNVwGRcDSZI+tZdWipHgGIs/cBtNMt1zsR8AZCc4gk+hc7AeiZT75QSNagQAiogRgjNZ1+vy8J9UGEk0jAL6Lr7fQc7wWIHO4m/IGe8TVkRv1g1pxFtkAkoifgumfymt/1F89/YwYE8IQSosyDnYJy6/F4+8rtaEH/QWk9nqK3ALzLt+kluwgCgHBevaSmZgCZAg/Qjt+o41SMhaLxY4kEIJQHCWE+AhWBCPDMjyGcRRgILz3hNHjtBQH8QvkbgjysXEEAlxJ+SJhMOIUwgnAuHIHi75p6dlDjQQCIsVA0BGhV2N1xRSJWAp7E79GxlzSuQDQiE4nO7n6GCNntm4IEdhexAOvS6Ov4P67xz6OXP8CVaD2+Fy3U//YsINKRLOPtfO1CFQSwt9i994BnnQhgqqgvr81Rv115HeFMwj6EkwQhHC80gqMIxwit4gQRTXiK+m+ormeZ+PdehNMJ/YWmAUI4lnCkIKDj89UcVPXszhC1BPCM3CKlN1XU3k6CBDYk6dfwKaFeOAaRAXhLsZU251EkA9570Xr8eNq1HCYLiHjVraJVfQFk1DQ2yvayiIP/i877WwiHt69YZatuaOjx3kIjjwSA8/h/6TwbF+EKdW6+DvB/T4p4AD0CGCniA/qrC3yy8PPo7Q/oaj2OJpPeyUQCX6hLbichgYXqyDKtIC1ctkxZcIfrpKpCC/gNnIkwQyqUAPY1OC2RhIr/tjjS62dAAnuLfAG9PIx7Odafh+nR1Xo8Jrcev1854jLRcOI1kYpqlKWmYKKOKYB4gcMqcXGqNIAXUtju6Mz7D0EEO+kI9RHChNC+71MlxZcHDwv+ALn1+D5EAu93FRBJfjSIAJQHjFJeVQu1n/BAa7WAmyqYAGzC3p9nstLQ6yLjb4C67BjhDp3XNwn1nxc2D/OjrrVJaT1+IpkAHpMFRL4WNqstBQkcLqrOarPUdq1gArAJLeifJgt3fiuEG36VyYSfCzOgV2HWVGHHPHjo+gOApkTr8ekk/F/JUYKelAVEYkqYq5YENIt9qCq0dZPweverxIWq49T7tYjVN3u0t06YVXqOQJwoHMAEwMO6P0BpNRaJ9XN4vI8qCTEmCojUK1FmSUigjzj6ulObyVaJQ0MCeDbDDGx6q/g3Z/3xyNwf4A/0d7g9n1goIPI+YX8TTsGK8FCb/c6a36M6b1WGBUgGseefR0Zj5gdvK63HTyNTIGCygMhWURhkZ7MkUCE7/E6ie9Bxeuf7Os/mSFHAY5sFwf9epBxPy3dvAh5l6g9AqGtjazP8AZcorcdN9BZYL7z7GS1ChCp7A6GESRIIyLUNkcNQggQAMnyE0CGah7wrvPm7pNAQDhAJQMnqCzwh6gU+IAT/B3zuzyNrQ9N6/EkzBUQEVilpp+ksxkR4csDWaG8FEe3pD4d3hjbS3rlKJqYSI4ARoky49uTkTcIQdVVeg3P+qiTRmD/kAp88cuwP6CotfgAJ4ZxUBUQ0Ia2nWV2ULtHf0BeK7EiaB3LwFxD+Qz+fiESahuamUiOAa5Ok8SJs9yWR87+9gTCfLEKn9cytX7PQ88j5WP/tJqXV2Fl0jVroLTDPSrSfIvz+cHQHpNW2utzfJmr2BxCL8BmZHvsRSmaxi+99oomqPjANniKcog6qUmGKQcnvV5TX8+CRW38A2eS1zXKg0FUklOsSBURM9RZAwsseqUigt/C7ZOFHU0/xN3DefXc+++5l0QmIzr1tJj34OMKbqsne28PAFJgn2n3xIuWRY39Aj9bj3mdlU8DllktepVjUG4Xg9jMS3GTCrxMSO7lU1F7NLj5alPQ2G+RTK5J6RgtfQY1B04/9mAB45MkfkIgPIDI4mAR0oYkCIuo6dRfrCa6e8MuOxlDYSLtwid52pUgCp4gqvlbO9b8VEX9bkjX/5MEjL6NtxSrFH3CeKJ2dqoCIurPNQLVAGAp/MJTKtJhTStVtdGL/XxWh0Bk1X1U7AXnwyMtQWo0tqq6GP+CXJLDfmyggogBq7LFYsDjTT1P4FfxNSZEtMgE3U98PKdQP6RVOtYD5ZroN8eCRfX+Av0fr8RdNFhBRgEIX+wUjMVsg0tPmT6L2G6XInltkBLCviPY7QNvIUwc7iiPClRYFf5NwCJ7Kws+jgP6ArviAw0l4lyWOBn1mGmpuISF/noT9GCKP33Y7/MJWO+3gVODqQguASqAPErkQq0WU3sMirr9vEhLoI3wjq5J8zzrR+vtVEfV3mZLpxwTAo2ADKjwZ9Urr8aEkxJ0mCoh0kUA4Fo+5ff71iCfASUIaPfc2CmEoFgK4UsdRFxfn+6cnKe21nfgeawy+5yfCZOinKQTCws+jOPwBGE6P92Y0xpB7CyQvINKj7ViazTYV7/jYIiKAh5Lca4fYxc82CPTZTmgzXxjEBhzHgs+jOP0BSquxROvxV00WEMkG1iihxkVCAJeYaNqxSgRGoWrvPhqh7ivKfW/RiQmYxELPo2iHs6v1uO8o0gDqEkeDgUx2dzOIiTJjxUIAe4vQXDPtuxDWu5jwexHrv6uqbFpYx9S5nAmAR1H7AxKtx50ggVFEAqtMFhDJBI3FEgWnIoH9RJmzry18j07hPIQJ8aBOV18QyvVMADyK3B+QKC3+5VffovU4vPubECUYisVzRQBFU/pao8rvIDz7gSx9TxT6uIAJgEdp+AP8Xa3H/2OygEi6eLmYCorqOPbg8FuWhe8ZUPL+efAo+qFqPX4smQLNJguIpINHi9EjriGBY0QFoHTbem8RiVTbMQHwKA1/QDCUaD3ucIAIJhAJrE30FohlmwBuKdYjMQ0J7C8CeKy29f5KxBDszUd/PErLHyBajcXaOrZzer13kxawxWQBEbNAZ9yLilkwdNp6P2OQ0acc9S0Q+f0fiSjCkdq6gTx4lMxIHAt2tR5/x0IBEbO749ASSwXeR8QA6FX6/U4UDdnNqCswDx4lN3AsKFqNnUBmgLPVXAERM0ACzQnFmAmY4v8HJKn0+zALPo/y8geEwurW41PRetxkAZFUQEXcA0s0FRjp0E6Dpipc3INHeQ2l9XgoFt/e4fE+hNbjbp+pAiLJMLdYauGpUntRtutMoeqnSgX+o0E/vwFMADzK0B/gV2r970sawAdKya8MCOClYokBUAn1YMIiUfTkr8JJeZIo2rG3aBCykxDy13S+U0ikFPOC4VF+o6a5ARmDIIKTyRTwWSggood7i8VG1uzsPyMsUcXwI6w3SFhK+C9hpsjv36DznZYpCUI8eJSfP0C0Hm+0y/6AC0kL+NpkARG9ijhXFpOTTKebz+sGbbuT4UF2/PEob39AV+vxKFqP/wmtx00WENEeAQ4r8ghAFPD4jYV8AJgORzEB8KgQfwBKiQX2JzPgMysFRFTZc8eUQAQg8FPCn4SDb4NBazA0AvkJH/3xqKghWo+fQQQQIm1A9geY1ASaCf2LWVB0qv2ga++FhHsILwgn4W2EQUplYxZ+HpXjDwglWo83tLTAH3ApkYBcGBT9BYKkDaTwC7xZLOXALWoD6so/3NGXR2UPpA3DH+APhnciEnhQNBnZrDQexTFhJI6AoV5awV2lKDAs9Dx4aElAdAbyBsM7kjnwQzQeJdPgFSIDPxHBd4gaRP5AKBpTzIOvRa88Fh4ePMpDEwjIQM4A/AKhSAxkcCThEvr3n+1uz1Knx/sdagwSESwjjWB/tAjnwcPK+H8eyaTP4B2mbQAAAABJRU5ErkJggg==;container=0;" parent="9GvEFEXf6PaLgaHzI8d7-220" vertex="1">
          <mxGeometry x="7.7938405797101495" y="10.00368421052633" width="24.562410949440874" height="24.562410949440874" as="geometry" />
        </mxCell>
        <mxCell id="9GvEFEXf6PaLgaHzI8d7-125" value="&lt;font style=&quot;font-size: 16px;&quot;&gt;MultiUtilities&lt;/font&gt;" style="text;html=1;align=center;verticalAlign=middle;resizable=0;points=[];autosize=1;strokeColor=none;fillColor=none;container=0;" parent="9GvEFEXf6PaLgaHzI8d7-220" vertex="1">
          <mxGeometry x="167.0088288214381" y="6.279999999999973" width="110" height="30" as="geometry" />
        </mxCell>
        <mxCell id="9GvEFEXf6PaLgaHzI8d7-121" value="" style="group;fillColor=#b0e3e6;strokeColor=#0e8088;container=0;" parent="9GvEFEXf6PaLgaHzI8d7-220" vertex="1" connectable="0">
          <mxGeometry y="40" width="439" height="320" as="geometry" />
        </mxCell>
        <mxCell id="9GvEFEXf6PaLgaHzI8d7-139" value="" style="rounded=0;whiteSpace=wrap;html=1;glass=0;fillColor=#f5f5f5;gradientColor=#b3b3b3;strokeColor=#666666;" parent="9GvEFEXf6PaLgaHzI8d7-220" vertex="1">
          <mxGeometry x="10" y="80" width="419" height="70" as="geometry" />
        </mxCell>
        <mxCell id="9GvEFEXf6PaLgaHzI8d7-148" value="1" style="rounded=1;whiteSpace=wrap;html=1;" parent="9GvEFEXf6PaLgaHzI8d7-220" vertex="1">
          <mxGeometry x="10.039999999999964" y="260" width="38.96" height="40" as="geometry" />
        </mxCell>
        <mxCell id="9GvEFEXf6PaLgaHzI8d7-151" value="0" style="rounded=1;whiteSpace=wrap;html=1;" parent="9GvEFEXf6PaLgaHzI8d7-220" vertex="1">
          <mxGeometry x="7.789999999999964" y="310" width="132.21" height="40" as="geometry" />
        </mxCell>
        <mxCell id="9GvEFEXf6PaLgaHzI8d7-157" value="DEL" style="rounded=1;whiteSpace=wrap;html=1;fillColor=#ffcccc;strokeColor=#36393d;" parent="9GvEFEXf6PaLgaHzI8d7-220" vertex="1">
          <mxGeometry x="315" y="160" width="114" height="30" as="geometry" />
        </mxCell>
        <mxCell id="9GvEFEXf6PaLgaHzI8d7-158" value="CLEAR" style="rounded=1;whiteSpace=wrap;html=1;fillColor=#cdeb8b;strokeColor=#36393d;" parent="9GvEFEXf6PaLgaHzI8d7-220" vertex="1">
          <mxGeometry x="315" y="200" width="114" height="30" as="geometry" />
        </mxCell>
        <mxCell id="9GvEFEXf6PaLgaHzI8d7-160" value="&lt;span style=&quot;font-size: 20px;&quot;&gt;X&lt;/span&gt;" style="rounded=1;whiteSpace=wrap;html=1;" parent="9GvEFEXf6PaLgaHzI8d7-220" vertex="1">
          <mxGeometry x="315" y="240" width="54" height="50" as="geometry" />
        </mxCell>
        <mxCell id="9GvEFEXf6PaLgaHzI8d7-190" value="&lt;span style=&quot;font-size: 20px;&quot;&gt;/&lt;/span&gt;" style="rounded=1;whiteSpace=wrap;html=1;" parent="9GvEFEXf6PaLgaHzI8d7-220" vertex="1">
          <mxGeometry x="375" y="240" width="54" height="50" as="geometry" />
        </mxCell>
        <mxCell id="9GvEFEXf6PaLgaHzI8d7-191" value="&lt;span style=&quot;font-size: 20px;&quot;&gt;+&lt;/span&gt;" style="rounded=1;whiteSpace=wrap;html=1;" parent="9GvEFEXf6PaLgaHzI8d7-220" vertex="1">
          <mxGeometry x="315" y="300" width="54" height="50" as="geometry" />
        </mxCell>
        <mxCell id="9GvEFEXf6PaLgaHzI8d7-192" value="&lt;span style=&quot;font-size: 20px;&quot;&gt;-&lt;/span&gt;" style="rounded=1;whiteSpace=wrap;html=1;" parent="9GvEFEXf6PaLgaHzI8d7-220" vertex="1">
          <mxGeometry x="375" y="300" width="54" height="50" as="geometry" />
        </mxCell>
        <mxCell id="9GvEFEXf6PaLgaHzI8d7-193" value="2" style="rounded=1;whiteSpace=wrap;html=1;" parent="9GvEFEXf6PaLgaHzI8d7-220" vertex="1">
          <mxGeometry x="55.07999999999993" y="260" width="38.96" height="40" as="geometry" />
        </mxCell>
        <mxCell id="9GvEFEXf6PaLgaHzI8d7-130" value="" style="rounded=1;whiteSpace=wrap;html=1;container=0;" parent="9GvEFEXf6PaLgaHzI8d7-220" vertex="1">
          <mxGeometry x="348.8045869565217" y="40" width="90.19541304347823" height="30" as="geometry" />
        </mxCell>
        <mxCell id="9GvEFEXf6PaLgaHzI8d7-126" value="&lt;font style=&quot;font-size: 10px;&quot;&gt;Multiconversor de unidades&lt;/font&gt;" style="rounded=1;whiteSpace=wrap;html=1;container=0;" parent="9GvEFEXf6PaLgaHzI8d7-220" vertex="1">
          <mxGeometry y="40" width="87.19876086956518" height="30" as="geometry" />
        </mxCell>
        <mxCell id="9GvEFEXf6PaLgaHzI8d7-127" value="Calculadora" style="rounded=1;whiteSpace=wrap;html=1;container=0;fillColor=#b0e3e6;strokeColor=#0e8088;" parent="9GvEFEXf6PaLgaHzI8d7-220" vertex="1">
          <mxGeometry x="174.4070652173914" y="40" width="87.19876086956518" height="30" as="geometry" />
        </mxCell>
        <mxCell id="9GvEFEXf6PaLgaHzI8d7-128" value="Conversor de archivos" style="rounded=1;whiteSpace=wrap;html=1;container=0;" parent="9GvEFEXf6PaLgaHzI8d7-220" vertex="1">
          <mxGeometry x="86.82101668351868" y="40" width="87.19876086956518" height="30" as="geometry" />
        </mxCell>
        <mxCell id="9GvEFEXf6PaLgaHzI8d7-129" value="Traductor" style="rounded=1;whiteSpace=wrap;html=1;container=0;" parent="9GvEFEXf6PaLgaHzI8d7-220" vertex="1">
          <mxGeometry x="261.60649191102107" y="40" width="87.19876086956518" height="30" as="geometry" />
        </mxCell>
        <mxCell id="9GvEFEXf6PaLgaHzI8d7-212" value="3" style="rounded=1;whiteSpace=wrap;html=1;" parent="9GvEFEXf6PaLgaHzI8d7-220" vertex="1">
          <mxGeometry x="101.66999999999996" y="260" width="38.96" height="40" as="geometry" />
        </mxCell>
        <mxCell id="9GvEFEXf6PaLgaHzI8d7-213" value="4" style="rounded=1;whiteSpace=wrap;html=1;" parent="9GvEFEXf6PaLgaHzI8d7-220" vertex="1">
          <mxGeometry x="10" y="210" width="38.96" height="40" as="geometry" />
        </mxCell>
        <mxCell id="9GvEFEXf6PaLgaHzI8d7-214" value="5" style="rounded=1;whiteSpace=wrap;html=1;" parent="9GvEFEXf6PaLgaHzI8d7-220" vertex="1">
          <mxGeometry x="55.07999999999993" y="210" width="38.96" height="40" as="geometry" />
        </mxCell>
        <mxCell id="9GvEFEXf6PaLgaHzI8d7-215" value="6" style="rounded=1;whiteSpace=wrap;html=1;" parent="9GvEFEXf6PaLgaHzI8d7-220" vertex="1">
          <mxGeometry x="101.66999999999996" y="210" width="38.96" height="40" as="geometry" />
        </mxCell>
        <mxCell id="9GvEFEXf6PaLgaHzI8d7-216" value="9" style="rounded=1;whiteSpace=wrap;html=1;" parent="9GvEFEXf6PaLgaHzI8d7-220" vertex="1">
          <mxGeometry x="101.66999999999996" y="160" width="38.96" height="40" as="geometry" />
        </mxCell>
        <mxCell id="9GvEFEXf6PaLgaHzI8d7-217" value="8" style="rounded=1;whiteSpace=wrap;html=1;" parent="9GvEFEXf6PaLgaHzI8d7-220" vertex="1">
          <mxGeometry x="55.07999999999993" y="160" width="38.96" height="40" as="geometry" />
        </mxCell>
        <mxCell id="9GvEFEXf6PaLgaHzI8d7-218" value="7" style="rounded=1;whiteSpace=wrap;html=1;" parent="9GvEFEXf6PaLgaHzI8d7-220" vertex="1">
          <mxGeometry x="9.999999999999886" y="160" width="38.96" height="40" as="geometry" />
        </mxCell>
        <mxCell id="9GvEFEXf6PaLgaHzI8d7-219" value="" style="group" parent="9GvEFEXf6PaLgaHzI8d7-220" vertex="1" connectable="0">
          <mxGeometry x="149.78999999999996" y="160" width="155.58000000000015" height="190" as="geometry" />
        </mxCell>
        <mxCell id="9GvEFEXf6PaLgaHzI8d7-153" value="X&lt;sup&gt;2&lt;/sup&gt;" style="rounded=1;whiteSpace=wrap;html=1;" parent="9GvEFEXf6PaLgaHzI8d7-219" vertex="1">
          <mxGeometry width="32" height="30" as="geometry" />
        </mxCell>
        <mxCell id="9GvEFEXf6PaLgaHzI8d7-154" value="X&lt;span style=&quot;font-size: 10px;&quot;&gt;&lt;sup&gt;3&lt;/sup&gt;&lt;/span&gt;" style="rounded=1;whiteSpace=wrap;html=1;" parent="9GvEFEXf6PaLgaHzI8d7-219" vertex="1">
          <mxGeometry x="40" width="32" height="30" as="geometry" />
        </mxCell>
        <mxCell id="9GvEFEXf6PaLgaHzI8d7-155" value="&lt;font style=&quot;font-size: 15px;&quot;&gt;â&lt;/font&gt;" style="rounded=1;whiteSpace=wrap;html=1;" parent="9GvEFEXf6PaLgaHzI8d7-219" vertex="1">
          <mxGeometry x="80.00000000000023" width="32" height="30" as="geometry" />
        </mxCell>
        <mxCell id="9GvEFEXf6PaLgaHzI8d7-156" value="&lt;font style=&quot;font-size: 15px;&quot;&gt;&lt;sup&gt;3&lt;/sup&gt;â&lt;/font&gt;" style="rounded=1;whiteSpace=wrap;html=1;" parent="9GvEFEXf6PaLgaHzI8d7-219" vertex="1">
          <mxGeometry x="123.58000000000015" width="32" height="30" as="geometry" />
        </mxCell>
        <mxCell id="9GvEFEXf6PaLgaHzI8d7-170" value="log" style="rounded=1;whiteSpace=wrap;html=1;" parent="9GvEFEXf6PaLgaHzI8d7-219" vertex="1">
          <mxGeometry y="40" width="32" height="30" as="geometry" />
        </mxCell>
        <mxCell id="9GvEFEXf6PaLgaHzI8d7-171" value="sin" style="rounded=1;whiteSpace=wrap;html=1;" parent="9GvEFEXf6PaLgaHzI8d7-219" vertex="1">
          <mxGeometry x="40" y="40" width="32" height="30" as="geometry" />
        </mxCell>
        <mxCell id="9GvEFEXf6PaLgaHzI8d7-172" value="cos" style="rounded=1;whiteSpace=wrap;html=1;" parent="9GvEFEXf6PaLgaHzI8d7-219" vertex="1">
          <mxGeometry x="80" y="40" width="32" height="30" as="geometry" />
        </mxCell>
        <mxCell id="9GvEFEXf6PaLgaHzI8d7-173" value="tan" style="rounded=1;whiteSpace=wrap;html=1;" parent="9GvEFEXf6PaLgaHzI8d7-219" vertex="1">
          <mxGeometry x="123.57999999999993" y="40" width="32" height="30" as="geometry" />
        </mxCell>
        <mxCell id="9GvEFEXf6PaLgaHzI8d7-175" value="sin&lt;sup&gt;-1&lt;/sup&gt;" style="rounded=1;whiteSpace=wrap;html=1;" parent="9GvEFEXf6PaLgaHzI8d7-219" vertex="1">
          <mxGeometry x="40" y="80" width="32" height="30" as="geometry" />
        </mxCell>
        <mxCell id="9GvEFEXf6PaLgaHzI8d7-176" value="cos&lt;sup&gt;-1&lt;/sup&gt;" style="rounded=1;whiteSpace=wrap;html=1;" parent="9GvEFEXf6PaLgaHzI8d7-219" vertex="1">
          <mxGeometry x="80" y="80" width="32" height="30" as="geometry" />
        </mxCell>
        <mxCell id="9GvEFEXf6PaLgaHzI8d7-178" value="tan&lt;sup&gt;-1&lt;/sup&gt;" style="rounded=1;whiteSpace=wrap;html=1;" parent="9GvEFEXf6PaLgaHzI8d7-219" vertex="1">
          <mxGeometry x="123.57999999999993" y="80" width="32" height="30" as="geometry" />
        </mxCell>
        <mxCell id="9GvEFEXf6PaLgaHzI8d7-179" value="ln" style="rounded=1;whiteSpace=wrap;html=1;" parent="9GvEFEXf6PaLgaHzI8d7-219" vertex="1">
          <mxGeometry y="80" width="32" height="30" as="geometry" />
        </mxCell>
        <mxCell id="9GvEFEXf6PaLgaHzI8d7-180" value="x&lt;sup&gt;-1&lt;/sup&gt;" style="rounded=1;whiteSpace=wrap;html=1;" parent="9GvEFEXf6PaLgaHzI8d7-219" vertex="1">
          <mxGeometry x="80" y="120" width="32" height="30" as="geometry" />
        </mxCell>
        <mxCell id="9GvEFEXf6PaLgaHzI8d7-181" value="&lt;font style=&quot;font-size: 14px;&quot;&gt;^&lt;/font&gt;" style="rounded=1;whiteSpace=wrap;html=1;" parent="9GvEFEXf6PaLgaHzI8d7-219" vertex="1">
          <mxGeometry y="120" width="32" height="30" as="geometry" />
        </mxCell>
        <mxCell id="9GvEFEXf6PaLgaHzI8d7-183" value="&lt;font style=&quot;font-size: 12.5px;&quot;&gt;&lt;sup&gt;x&lt;/sup&gt;&lt;/font&gt;&lt;font style=&quot;font-size: 15px;&quot;&gt;â&lt;/font&gt;" style="rounded=1;whiteSpace=wrap;html=1;" parent="9GvEFEXf6PaLgaHzI8d7-219" vertex="1">
          <mxGeometry x="40.00000000000023" y="120" width="32" height="30" as="geometry" />
        </mxCell>
        <mxCell id="9GvEFEXf6PaLgaHzI8d7-184" value="10&lt;sup&gt;x&lt;/sup&gt;" style="rounded=1;whiteSpace=wrap;html=1;" parent="9GvEFEXf6PaLgaHzI8d7-219" vertex="1">
          <mxGeometry x="123.57999999999993" y="120" width="32" height="30" as="geometry" />
        </mxCell>
        <mxCell id="9GvEFEXf6PaLgaHzI8d7-185" value="&lt;font style=&quot;font-size: 14px;&quot;&gt;e&lt;sup&gt;x&lt;/sup&gt;&lt;/font&gt;" style="rounded=1;whiteSpace=wrap;html=1;" parent="9GvEFEXf6PaLgaHzI8d7-219" vertex="1">
          <mxGeometry y="160" width="32" height="30" as="geometry" />
        </mxCell>
        <mxCell id="9GvEFEXf6PaLgaHzI8d7-186" value="&lt;font style=&quot;font-size: 14px;&quot;&gt;&lt;i&gt;e&lt;/i&gt;&lt;/font&gt;" style="rounded=1;whiteSpace=wrap;html=1;" parent="9GvEFEXf6PaLgaHzI8d7-219" vertex="1">
          <mxGeometry x="40" y="160" width="32" height="30" as="geometry" />
        </mxCell>
        <mxCell id="9GvEFEXf6PaLgaHzI8d7-187" value="&lt;font style=&quot;font-size: 14px;&quot;&gt;(&lt;/font&gt;" style="rounded=1;whiteSpace=wrap;html=1;" parent="9GvEFEXf6PaLgaHzI8d7-219" vertex="1">
          <mxGeometry x="80" y="160" width="32" height="30" as="geometry" />
        </mxCell>
        <mxCell id="9GvEFEXf6PaLgaHzI8d7-188" value="&lt;font style=&quot;font-size: 14px;&quot;&gt;)&lt;/font&gt;" style="rounded=1;whiteSpace=wrap;html=1;" parent="9GvEFEXf6PaLgaHzI8d7-219" vertex="1">
          <mxGeometry x="123.57999999999993" y="160" width="32" height="30" as="geometry" />
        </mxCell>
        <mxCell id="9GvEFEXf6PaLgaHzI8d7-339" value="" style="group" parent="1" vertex="1" connectable="0">
          <mxGeometry x="880" y="860" width="439" height="330" as="geometry" />
        </mxCell>
        <mxCell id="9GvEFEXf6PaLgaHzI8d7-222" value="" style="rounded=0;whiteSpace=wrap;html=1;container=0;" parent="9GvEFEXf6PaLgaHzI8d7-339" vertex="1">
          <mxGeometry width="439" height="330" as="geometry" />
        </mxCell>
        <mxCell id="9GvEFEXf6PaLgaHzI8d7-223" value="" style="shape=image;verticalLabelPosition=bottom;labelBackgroundColor=default;verticalAlign=top;aspect=fixed;imageAspect=0;image=data:image/x-icon,AAABAAEAAAAAAAEAIACnRgAAFgAAAIlQTkcNChoKAAAADUlIRFIAAAEAAAABAAgGAAAAXHKoZgAAAAFvck5UAc+id5oAAEZhSURBVHja7V0HmBzF0V0hRM4gRMYEg8HYZDAmKOcsIYQROfxgDAYM2AaTk8EYY8AYMMaAAQsMmAxKpyxdTptzuqBIRkJ5/nqzPXdzczO7M5tD9fe9b06n3b3Z6a7XVdUVbDYelke8Y4WCgYSXCXvj3zx48Kgc4d+J8AZhNmF3JgAePCqLAH5O+ILwDGE7JgAePCqHAPoQ/kjYRLhUIQUePHhUxu5/IKGF0EE4jgmAB4/KIoAphI2EDwi7sPDz4FE5BLA94UWCRLiFd38ePCpr9z+KECSsJZzOBMCDR2URwFWErYQqwp4s/Dx4VA4B7Ex4R6j/9/Luz4NHZe3+JxI6CV8TBjMB8OBRWQRwm9j96wj9Wfh58Kgc4Ye9P08QwJ9FMBA/IB48KoQAzhOhv+sIE1j9L6u5NQQPXiQKHha7v5NwMC+Q0hzeYMgWiMRsLp/P5vR6bb5Q2NbeuaqPSOg6nDCI8FMlv4PnmIUfGECoFwTwDxEMxA+oxIYs7KvW2poddpvb79+XSGCiPxy+lebyScIsQojwlbhOYQJgAlAwQaj+CP+dwQujRAkg3ibv+iT4pzrcnqpWl2udNxCUBLFr0SA0Ap7rCieAvoTnxKIIE47mRVGiBEDqvyRJfRwezxMk/BLg8QekWHunHgEg2Otmnmve/Y8geMWimCkKgfADKlECiMbbd6Dd/xWFANw+vxEBSOLUZ08mgcomgMtE3j92hF/yYihtAujoXNXX7na/oBAAmQM9CEBDBp+L0x+e8wolAOz2b4rF0CG8w7wYSpUAQmH5SgTwF4UAnF6vFG3vEALfKYVjcS0JPMxzXrm7/wmENrEQPiHsxguhtAmgyW63keA/qBCAw+ORom0dXQIfjESlSLxdTQD14hSISaACCeBmofpjIfyWF0HpEwAJPXBvFwG4PT0EPhiJSf5wRE0A3xEm8txXHgHsIc6GJZH7fxYvgtInAFL/gXsUAqCfSe1v6xJ4mABufy/H4HMc+1F5u//PheBjASzm2v/lMWjHt5Haf7eaAEIk9IqwwxyAXyAUjakJwCdOg3gDqCACuF+1AB7iyS8TAvDIBPAHNQEEVcKOnd/l9UmengFCOAW6nNdA5Qg/Un2rxeQj938ET375EADt8L9XCACA409NAAgOgnNQ4wx8i2NAKocAxhC+ERPfpHiBeZQDAXhBALe1utxdBBDo6fSTfMGQ/HuNM7Cdj4ErgwAQ+vu0auKf4s4/5TPkXACv72a7igD8oXAPAgiQRqATJLSN8BsmgPLf/Q8juMSkrydM5UkvMwLw+X5Ftv9WhQCw46sJAE5B+Aa0DkLCHC4Em+dB9lgXvIGgjBwTwEWEDWLCvYIQmADKiwCuIeHerBCAN9gzIxC2P3wAOv+H0OBzeD3kcfgSQr8dqWm7YvKibR05qdgiPm9HwmuqCUfr73482eVGAP7LiAA2dmUEBgJSrEOdD5A4ClQiBSNtPZyB9zMB5HGQvWZz+/w/pol4y+3330422ckiSCdr5ZtUn4E+f1E++ilvAqD1NN3ucn/flRGoCfzBz/idgZNwGWFfXhf5ZexLaSK2iKOZlfTgZxPuJgxUAnQyIQPV+24gbBETHSMcyxNdlgQwidbTd0YZgYBXnATopAyjYtAwXhf5tdlmtLrcGxI2WQ+HDYp0LhJk8HN17rYVMhCvQ6LPx6rPfkc0AuFJKL8NZSStpa/VGYFaAsARYM9w4R7OwMe4KnSeBgI3yAw4kVS21XqhmyqsFQUcfi969u1uhgxU/3cmYbWqGsyvmeXLkAA88oZyHq2lL7ozAr09MgLlpKBoTF5r3Y7CkLZcGGcI5sUH4IMPILCfw+1p6rbZAsmquACrCJ+Jc1v4DHY1IgPVv+9WvR9mxik8wWW7oZxG62iNUUpw4iSgrQcByHUDul/zLWEcr488DG+ijhsm7kG1ShZQhW8mAYI3VhA+EPb9CYparwGcOks157178OSW37C75VDg42gdrexeT73CfmVhh2agDhnWrLmnOUAsHwQQCMonAaQJnESC39HFyDQ52klLga2iuMc7osPvkSLqDwQwXMT8K6+9i9m9PAfqAdA6Opyu7UYpwV1JQT5/DwLQnBY4CIfwOsnDQBBQMBztR1rAc+oJ8aQ2BYywSQT5/I0wSlX1V3Esch24ctUAXHI9gENo/bT1SAmO9vYroWS4er1piAJRotN4neRhuH1+UttkLeDHNAk+9aRoEjbSwTei5r/6nHcvbg9VpgTgccOcPJjWUdwoJbjrJCAU7kUAmryBFzlQLA8DlVzgC6htrIP9dj1Nxqae7B3LlATUgGp3ibr9F5NB+QxnIhsQBBBNYt8ncgJoXUHthyaAjQYkoXEWugkH8brIhxZAZgDZZDZPILAXMfj76smDhxZe2yySAHIBWggPEk5T8sCZCMqAABLZgAcRAYTNaJIpTMwvODcgj+Pppx9KHOP4fKfSBHp7OGh8/l5HOVlCJ+EN0SuuP2sFpT1EaPmBDrcnoF4/Pk1KsElsJlzD6yBPA2aALxi2NTkcYPLJRAJrtE7B7hrvWcc64R+4TeQMbM9EUIIEQFokaZMH0EbiUa+dJD0CU+EJnv88DiU1uL1zTR+y526lydugncg0TwbMYpvoEficOD7cg4mgtNYPbSQwIxeq141ePoBJfKpEnfLIK4v7bb5QaFeayBfUE6kUeMgxCagTQ1A6/ArCgWweFP9Ae7BpV87AUeAT6jXj0AkGMokg4VCe67yTgC8RJuz3DyASeDcfJAAfAxaJzuduFB1kbhPdg/swERSrGRmUHYGEG2idbDMqDmoBXxIG8TwXYLQ4nYn0Tr//YO3JgJLAkX0SaJePjAK9W0gp0YYIMPqjyCXox0RQfEMkBJ2jTgjSSfgxiy3cNLZQ6lwobDvymB3lkwG3z38oqXEf9SKBHPgE8HmIHMOCgaah01BSqSL7D8JgvWQkHgUkgESKOY4Cgz39AP5018pTnB5cQBJYv0USx4P+w+1uz6daEpBPB3JwRIjFAk0ACwcZilAhdf7O5yL/AMeI+zARFIEjMBDEutmd1kyPtaLTC8AsOHms0CSwcu3nctsnMgeOpImcrSUBeHm1CR/Z9A3gHBkJSk6vTw4X1VlIaDI5n3AlYX8mgsKul/rmJqyXh7WhvsH0okpxKvQDnseCTmqIBKlTjvUmc+AoIoEPtSQAAc1y2HCvHHK0lMJCwm6CirI6pAOH4RKRkchEUBBHYEiJCLzG7uquDpxBQNDXXCasGEiAJrZz5ZqET8DvR7DHK6gl2CuhIxzJ2TEhqsvCP+AWqaT4eyAFHT8BE0EBhygMcgrN0eokKb9WUs1v5LkrEvWuur5GPiL0BAJ70q7/OE3s+p7agFsuBZ2mvWfJP6CUl04QQUAuZ6ZDBIuFadCfiSA/QxwjD6B58Wj9AGn6i57lAiFFRAIun1cEC4V3JhK4mSZ6dS+TgIQzmEOTQDk2xEmBUl4KVzgMoSUYEMEVTAR5MAMCQdSY2JkE/m2thqhXG8AE5nPXoKJj+UTE4FZJQtjw+dpzX2XCIaA5SiTq0W7KraowkyACv+yT0BDBBiaC3A8/bRItLhdMgXu0a8Kfnh8AZeSP4jkqsoGgj8ZWu62htfXsuqbmz5scDkk74copQZrMb8ksgP9BXWtOIYJgRJcIUPL8Mj4+zI2/SMQDXKyUnLdQdNaosMwonp9ic/a4PbaL7vi1ra65+ZHl9fVSdUOD1NjaqksC+dIG4HvwitMC9d9GPIEcS9Azo/F7cc48Va/UOY/MHIGiQOiKnn4Ab7pr4BaelyIamIiGlhZoAANqGhubQAAKSCNYp00n7tIGvL6cHhd2RxPGZM1DTxuBA1GzC6EU9Xtil9mZiSDzgVJzHn+gPxFBay8/QCwtbfAFJU2cR5EQQKtcBNIzprap6Vs1AdQ2Nr1Hgj6CNIS5RtqAV9YG2nPsJEwEESEbTXtSAZ9BsLePAMknr4vCpTswEWTgCAwGbeFYfAdxXCxlodbkYqVVHY8iIQD0FCAB+iN21BanSyJNQCaAuuaWm0kLUOIFniSB/0aPCOSTgt72edaBOAFtGeoUpwZofvK86ILUl0nA+ghE40gLJlPAe0ev8PH0CoSg7PwxPAdFIvwCA0SqbpcTjoigo8nuOJEgnwcHIpEdSNBn0GLwG2oDtCByGTcgawNk+/t1tYHuOIJwb9UUi+7PhB9r05B5pHAEhsKKI3AKPeN1WuJPo7oUdwwqQgKYIOLw1fb3f2lH3YkEWgkYsjXaW3FseIoIId5qpA3o2OZ50wZ6klGbXmGK+5SjKCYCS47Ao+i5tifpAWAFt/NzLx4C6Ktp+qHkb/+KhNi2YvVa+bUoE4VagzgyJDLYlxbFA7QAPjcSwFxHEabSBpSINfgONN5qlCtzisIkhzARmHAEosRcIIg5r9U+40A4rQIhL3GvgOLZ/Y8QBTrUuzaq/J6oFQqog8vrqmXPMO2ufZ1eH4qOtuoJn3JUFMhhToFaG0CcgNF9GGglW4TZcx3nGaQwA4Ih24pVa/vSXP9dr5ZEGnO2XInb4FF4AkAQzUZ40lWNH5IWcXQneg/YWhwO/Pwj2hlmqhuR9PLU+8kuj7fl/MgQZIPjSXXsgLYsuo6jcJMIJrpY2+2IF6iYb69PMQNu7U2uaRUK7RRVo/nhFpgA0MzjTUwghCPQfazz+1QCgIIR/nBEriFPu8AeZBrcToK30lgb8OQ0w1BtFuBEAiYINBAtGXRlHvYmpPWiXfokwm5MBLqOwFH0DL/p+Tw96TScWSeeM5NsgXf/n8BDjoCOROegdqU6z9lmJgcLw+F2y7kE69dv7EO7wQhaEMuNSEBJJc1V0ZGe6JRtfwQSwU8AQkDwEL4nyAiagoF58o2oTjSCux2pHYEoEuo7VNsuzKhlmAncwQRQeAK4GXnaCOZR5XgvsWqfJUyCoK3V5QQZHEYC9oxRzECXNgDnXHtHPsqS9zATYvQ35crFbe1G1YvVLa1eFW2tKr5wqVGvgAwKhf5bCdLiURgCQH22WRAG7IqqqK5H0lnkqCATirUlYgbC4R3pMy8kEnAm0wbk5KJYPK8kkAZWijz2U5Rc9kokATgCd/7xXr16BWTQMKSOsB8TQOF2f6j5a6G+YUcWNjHU35GZLHA5ZoB2i2a77CA8jj77NW1nokIkF2UBSGV9jHB8JWoDqA0gegXcqO0VkGahUBDrCUwAhSOA+2XnH6n+KgZvJhyQ6cLGCYEvHE44CIOh3WjR/FLPdsx3qnGW4CfcTTiy0ohA9Ao4V1szIs1CoXC6ns9+gMIIP4po1MAZJ9f/6y7u8Ey2SjbJDkJPouLQkrpqLJwzaaf4SFt/UD+5qOi1AQQT2UVq68GVQgRGvQIyKBR6NxNAYQhgDGKyMWmqcE4w8rRsT4g74TySz5FJM9iHFtFd9DdXJdMG8pVclAUgmKhWtL/er9yJwKhXgBJjkcZ8/YewIxNAfgkAob/PKM4/V3cgh0+p257tCYE28O4Hb8vlx1atWduH/uZwIoHFyUggX8lFWQJqFS4g/EKpeVeORIB5rGtqQur4w3onO2mkhTcpJd145G/3P4zgwg6baBDapbq9mutjGeW40O5yKb0K/0KC/lVqbSBaCtqAEuDysUiuKrtWZ6peAf/X6nJv6V0o1LIfAOnaJzEB5JcAZpAwbUBgjKq66yZRcjvnCxWLKNLWoaQY96MFdT7dR0sqbSAfyUVZBJpgvEUYqqi45UIEolfAqTQva7JQKBSl3C5kP0D+CACL8XWEbiKDTpXPHVdis/M1EUqKMfIJyDQ4hhbWy717ExQmuSiLWEv4F+EspQxWqROB6BVwAK0fT+8oz7QKhd7PBJC/3R9CHgNTayK4/kfYJd+TkMgniMrHhb5gaFcipKuNCo50aQN5Si7KMpD88rRQd0s6mEj0CtiFCPsdPYJO4wTnv0r9Rh65J4AbiKG3KEU2xdntVhESXJAFKTco8SaOC+ubGqENnEiL6026v43JtYH8JBdlGVERafmjUtUG5F4BTqdur4A0C4XaRUUqFtQcEwAy3D6GowYTJav/CbaGI+bUQi/ExHFhIuvMGwzuTtfr6T7DyUggv8lFWQXqL9ypPnUpFSJQ9Qq4pNXl3piFQqFrCKexGZD73f9MwmocrWkKOcwtlnZN0AZaEycEtqU16F3oP412mneNaw0UNrkoQ0DzaiH8mnBgKRGBqA1wvLZXQKJQaCCdI9SLmQByTwB3w4sOYZHV/+4UzqKLxlKCh2RtIBDck663kDYQT6UNoEZgCSQXabFZVMjBKcy+pUAERr0CMigU+jATQG6FHwtrKTzomqAN1M8fVIwPH9pAY0uzvNje++BNqJxnpQol7kou6l0HsBSANmfzCBeITM2iJQJVr4BX9Z5/GiZZQZzQlUQAI2LtnV8rVXQ9OK7pkJ1nNcWektkrlNjj/R0tso7U2kDJJBdpgerMHxLGKkJRbEQQiMYMewUkCoVa9gO4FDOIR/YJAMdOf4FqrJTHUlVyfVypk1/UjifSBl57/Z+yNoAmJshII0KYZVSavASTi/TwFWEmYXCxdTdSlQibqu0VkGah0LXCR8VmQA52f5S+tkMQNLnb35VagwYQAM6h7aQNkGawHy3Cu5PVISzB5CIjL/mLQkC2LxYSSDgCfb16BaRZKBSRqJczAeSGAKaTvf+9U7TbVpX+cqhTWUtl4Bhq3Tffy4lFq9d80Yd2oSEOt6dKW6RCP5w4WErhxFp0EJ4k/LQYuhupegXU6T3rNAqFPsYEkH0CgOr4Cqr+6JzTPl/KXVq7tAGyRT3+wAAiuIeMOhkXonNRDhEmPKj01ysUEYCIO1eu0e0VkGah0A+VBCoe2dv9j6WFHlaaZqg8tPA4X1TqjItF2N6xUo5Pj7d1bufy+kaSNrDInDYQSGeXKia4Cb8T2Z15JwIQsFGvgDQLhfoUjZRHlgigrWPldSTwmxXnn6u7aENI3R+v1IeiDaDNOWkDBwhtYHUqbaBEw4m1wUSNaOOmLuWWj3lN1isgzUKhX5gtR8/DBAGQ8EOdet8nEn80ZZvKrhILtIFoW7tMBvH2FdAGhpM2MD+VNlDC4cRaJ9pS0eVpn3wRgegVcJhevcc0CoVuFpWVmACysvt3rjwtSiwAm7db/Y8rZayuLdcH3eUbSGgDA2gh3p+qBFkJhxPr5dfPEcU2d881Eah6BSzSy9rEyYvF+3+CCSB79v8dmAB7b5WsQ3QEKtsHDW0g3t4p+wY6V67eDicFRALzUsUNlHgAkRrfEt4jjFZSbXNBBHjOGHq9AhIap2U/QNKelDzM7/57k7AvgqOrazK6nTIfVYq3VXNS0J+0oXvo5xWpSKCEehWkAkK9Xyecl4tgomS9AtIsFBogHMoEkDkBDAnH275UEn9Upb+A2ytJzZKPqzpXy9rAmrVy3MAgei6zU+UUyNqA1yfXTBBh06WM1eLY93RRFDZrJGDUKyDNQqEgrIFsBmRAAJ2r1iBI5E9+lfNPlfuPqLKfVeIDVlqad0URerx3mskpSIQTB+VegiVOAkAb4c+iI09WgomS9QpIo1Ao/FO/ZALIbPc/iIS9Wan6kziT7YrNXkjYu1IfLrSBz9d+IUcRqnIKPjWjDZRYdeJUCBLuIxydqVkgd4FK9Ar4TO+5pVEo9KlSyE8pZgKYSmrreuXsX/bGdrPwA8yu3b4Bh9sD3wCalfxOL6a9DMOJtd2NnITbRL5IWkSAeIDaxkbdXgFpFgqdo6RD87BIAO0rVvWjh/1Pj6j6oynUiFLVw5gAlIUbkrUAVYbh2bSLfUzPbHPqI0OvnFFZJtoA1O56wnWE/a0SQbJeAWkWCg0rpdJ4WN/9j6bdKaA4/xIlmrrU/wZlgnmotAG/Xy5wIeoN7O30eG8zU32oValOXNoBRNpgosWiPNfeVoggWa+ANAqFfi36KfBGZYUAaDfC9Wp/ONKjfp6q9Ndfs9X4s/y0gbDt3DMPk7WB55//O7SBn9Gifj9VLcIyCSfW69r7GWGyKCSbkgiS9QpI+AEiVsObb2QCsK7+70Kq1jtK1Z+ucMyE93qdmFB+qKa1geBepA3cTDtYLLU2kDjzDsfi5UICwDeEd1FNirBTMiKAPyWQ6BXwrt6zQTyKxaPUZ3mzsq7+nxSKxjsV55+m9JdHnTXGI7k2sGT5MvmkYNacj7GznUEL+3+mtAG3p1TrEaZK0kHfyHMI/fSIQNUr4F6jExSLIdbzi6VSdUkQANmhuN7uDYa2GdRme0mZPB5mtYGAzQMHl6erMvGNRK4RM9pAmYQTa7FS7MynaLsbpeoVkEah0BjhSF6vJnd/Uv/3isTbq5SqP5psrI0iS4x3/zS0gcbmRGXiBdWLoRWcSs/17VRdi8qgHmEyxEX1nuPVJKD0CrDr9ApIo1AozI9RvGbNq/8D6QF/oU1xFY6pqLp6DA/rQ856C4SUrkV7iK5FITPaQInXI0wGv+gpIe/UwWgMPhTdXgFpFArdVsh2dSVFADjDpl3mEaXqj07pr7e5+WJ2tIEWp0N2FC6vq4O6e7LoYbjBlDZQPgFEWkFFb79bCAcFI9Ht7W7PK/pEaLlAyAulXLIun+r/ALI3G+jB69lcfKSSA99AV9eiRA/D/6Pn7TOrDQTKJ5xYG0xUS5roFUSMjxuRoMUSbIsrOWzdFAHQzo/rRFqQ3xmUY1pBOJkJIPvagNLDsK6pAb6BE9Alx+5yrzMXThwoR21ALkgSisVX0HfcmoVCoW2K6crDgADWfP7V9rSQnlOq/uiU/prFBRbyoQ344AnfhebhYlr8djPaQBkGEMmA09Ph8UpZKBT6ban1rSiE+n9EIBzxqc/+VaW/JNGCmh9gjrUBmAMgg2aHHVrBD0m4/07z8LWpAKLSr0fYAyA0rT8qg0KhlVG7om7iMFvj5OG25eOH2haMGWSbT1g4drCMhknDbeHp42yRC1W4aIIt/OyTtuiqNZe5g6GNrYj9F3Ai+KdzpRRfsXpt/Muvz4r+/a8938vIHWZMsgUef8jmlKTtnOHoRLvPt5zmZIt6fvTgIMHwkXocxaJfsark4UMTWp3vaff6pAgIYMVqc5+1cs1LX0hSn+Yrf9ElD5ANyAhkBTID2SnJUTthmK1+4nDb0nFDbAvGDrLNHnUe/r3bwrGDDlo0dvApS8YNuZCu19VNHH59aPrYy2iBXdKNsZdELp50eeRfL8z3vvWG5J75Whf8b8+UYh/8T4q9PTMe+dUVN0QuGHNxz/cycoxLI9NpfqaNmhH6/U13eV950UPzsk09R7p4MzF30fffTcxfCSP47n8Nv2Pof2+b+5wP35NiM19zha+56Lq6CUN/CVkQMnEKZASyApmB7ECGIEuQqaIfyycMtdUSa9EXsb0+8HRb9YRhey0eN/gM+iK3V40Z9Mm80QPDc0adt5rwPf1+i/v80VtpUW3UxYyJ2whST0ySiBwk0hK2GL6PkR9MH/u9DN156o2weg5LHkbf09JnbKPnuAkyAFmATEA2ICNVYwZ+Apmh359ZPX7YXv8+73RZpiBbkLGiG9V0U/WkztMN2yb0399GbHY8qTN3VY0euGTO6IFr6ItJs1Wg10neaaMlegAMRsUDsgCZUMsIZIZkZy1kiGTpbpKpH0PWIGOQtepiIALY8AuhpowfYvtw+DlQVw4jG+bOuaMHBrRCr4CYjIWfwdAhAciGnsxAlkimgiRbf4CMfTDsbFnmIHuQwYI59768dJKsmtRMHLoH3cx1pL40081um20g/KTWSB4WfgZDF5ANyIiR/EC2IGOQNcgcZA8ymHdnIbyUDROH24iVoO4fSirKv+nmNhndOEA3LjmmjuKJLhBC08dKgQvMAa/lZ1YYQEYgK8lkCbIGmYPsQQYhi5DJvIwlZIPgj3068lyyR4acTjdbNSfJzco3PPo8qWnyCJ7gAiBIwoxnT4tFIhVSmp8CeA1ei/cEmQgKAjx7yEwKEgBRVEEGIYuQSchmTkfNhKGy8+HdwWdD9R9HN+CZnUL4AXoP7yoFEv7l9OwxB7NGnivNGnG2NGt4CuA19Fq8B+9lEiiMtlYt5i0VIIOQRcgkZLMmV85BnEW2Th5h+2zUuRD+YaR6xM3cIHYVdvoVBs3YSRT/y2UXSDX3/0GqfeQ+qfZhA9D/4TV4rbLLNLPmVjCnIGTHjIxBFiGTkE3IKGQ16+ONwWfKkUqkchxPrNNo5sawgFj1LwzCBOzg2M3nXzRZ8i1aJMXi7aaA1+I9eC8+I8zPs3CmgAk5E5pA4+LE8bssq1m3+3H+uHTckP2rxgz8cLbJm1o6fgirkAVUI2HLzxpxjrT01hulKKrXIow6VYw6vQavxXvwXnwGm2+FM+EgQ2blDbIJGYWsZs0fgKCDZeOH2BonDduB2OVps4w0l73+BScABJdAiJf99mbLBID34L34DCaAwp4KzE1xKqDWuCGjkFXIbH22YgSqSK0gG2M43ciXZtmIdw4mAEb2NLnZ5jfeLyGrkNmsBPsg4qh24rDdSL14z+xNgIlapozkCWQCYGQBkCWzmrcwBd6DzEJ2MwoSckwdaZs16jykKk6jG1hn9gbo9XJACU8eEwAjc0CWFhqECRtswOsgs5BdyHDaA86EZeOH7o2Ag9kWGKhh0nCeOCYARhYBmbIig5BZyO7idJ2BSD1EsgF9wChilG8t2CCS6/xRUpQnrWCIdhHAkCwQQMKXw/NZ2PmETJl1Bgot4FvILmS4Nh0zoJ7e9NczTsTZ/8NW7A8kMwQuGMMTl+MzfjxjJI+4aWG4zx/dC86po2S1MVMCwGfgs/T+Bv427gH3wrECuTYDxiRNFDI4EXgYMlyfDgHIMf8ThuxTNXrgcrN/dJYI+w2bZLWo5t880ebswbqJw+QoMSSNzE0CLIJMCUCkohoC94B7wT2x3ye3pA/ZmmXFGUiyCxm2HBOAHOMFCfX/53NGD/zciu2B0NGoiUVsnzpStmuwcOrp2jplpORnzcF0jDiEU4nZT0rKGRJAys+XcwzO4ZyPPJgBkC0rsgjZhQwvsFo3YO6YgfLZ/4Ixg26bY83xIKuGhixGiwNHGlAr5yiLR2COfHowSP6SvIj0F4A6KGTR/10qNT33jNTy6r+klldeMsbL/5RcH38kxSw0rsBr8R68N+ln09/GPeBe1MFfrM3lBpCtedb8AMjuvA2yDJm2dP4v3XBJH5rQp60wDlRBIzUQwo+dnlgpsXNBhZw8SqqaPkGaN2W0/G+FCGpJK2AS0PcE4xnNnUK295xZUtvK1eaAKrQWS2DjPWY/H/eCe8K98QlQbs0/swlCKqf805BlS/EAosbfnsQclo7/cGRkFPvfPGWELPyzaZFUXTBeanj6CclbNU8KNjVJ3oULpKbnn5Xmz5gi/z9IoJEXUi/UThhGQnaO/JzCTpc5lT7XoHvAveCecG+4R56r3OUGaGsHpg4KGlQFWbZUQxARRMsnDB1Ab3ZacQAuGz9U3um1N+4XHkzsEFUXTiT18kMp3t6Z2JloASk7FAgBqahyBpucRsw+AUMCcBURAbiYAPLiCCTZgozNskYATsgyZNr0QK2xJeOGHFg1emAg0xOAqAhllF9HQt30wt+6Fo7eYmp949/SHBH73MipxEwAjExPAgKQZci06bFA7t4z6GCyH6JWCAC2u+7CnThM3tXnTSNtoLo60RnFYDGFWu3S/Iunci46EwDDSJas+QCikOUFVpKDRIsiEEDMCgHU6RBAV2GKEedICy6/UAq7PcYLl34fCQSlJTf+H+eiMwEwdFBnnQBikOX5+SCAWgMCqJmQ0ACqfjFJdvrFO401ABDEwisvSpxfj2cCYAJgZKgBWCcAkQNw0LzRA0NWCKDGQGVvmjRCmj3yPGnO+KGS4+23DE0AOAPdn30qzZ00UiaM+om8mJgAGD03U2s+AMgwZBkybSkMmHbfA6rGmKv6qxDAcvkUoPeNI16cPkteIIuuu0IKNjZ2nQAowL9xnLT0ll8lzrpFUhFPPBMAQzkFGCfLmLVTgIEeyLKlcGDUGCdVYx9SG6qtnDka2exhobp0vY5sfPesz6SIzy9Fw1Ep4g9I3vlV0rLbfy0HBHFYqRkCcBcRAbiZAIqwOpAIzquGLFtqHIL0Qdq1dyD14ZXZVjMBDYQW2UxLxc3LO/zkUbI2sPyOW6XFv7pamjd1jBwElAgoGiL5OC9A3wEkAqkCtbVS28o15nrRp0MUeI+Jz8Y94F5wT7i3OjbbchcJSLJlJSNQmACvQJYtpQQ3Th5hmzPqPOQD3G01FyBZDwAEBMGGmSvCfuWEFgVC7ceJgY8DgHRzAVqmjOiKp6i57w+y1oRj1aRYvlwKtrRI8fYO88JPr8V78N5Un497wL3MFiGquEfOBchdrwCruQBChmWZtlQJGOeGi8cOnkhv/s7KH0RWXzSFGoP8cpgEZJfIiUEIb8RJgWPqSFb7kwAEuhg5/oqHl7QoxFYkBWlW1ffeQaaWhWxAei3eg/em+nzcg+IDwr1xRmfuNoBWi7UBIbuQYciy5QrBIhoQJwHubAQDGZFBUIADfsxnhIEw5YWgyqbUg/z/w8+Wlt1+k/V0YHoP3mvmb8wReSDJMkEZ+T8ChOxChi1FAXb1ASSbgQSzb9WYgc9bsTkWJUkIYmQvKwxpt02Th8vZd3qonzhczqfItB4APgOfZfR3cA+4Fy4GkvtEoEWWE4EGPg8ZrkmnIhAaC6CQAKnol6Rq/a31A3i4F2BeVMJkyEVNwGTgOcktPNbt/02QXcjwMiuJQOqqQAsTZsBhc0cPdGW7KhCDqwIzclcNCDIL2YUMN6TbIQhHB9ccfQQ0gd8So2y10hOQFw0TACN7c2mlRyBkFTIL2a3NpDHI8glDRW+AIQeT+tFgpTS4k/sCMgEwsgLnVGslwSGrkNnFcmHfobaMRiOpDx+NOAf5AddY8QVUcyovEwAjazUArNn+g66BzDZmozloDTEI2RIID96naszAWZacgXwsxATAyMz5Z7EQKGQUsgqZrcl091eGb9poG6kgIIIz6Ga8Zm8G55asBRQDAdxkORAI72ECKPzur86hMbHpeiGjkFXIbNYGKorWTxxu+3TkuQgQmkh/YLVZLYB9AYUjANRTkLv7XDVDCtkdctx+24rVyUGvwWvxHq7JUHjb3+zuD5mEbEJGIasZdQU2yhBEZVHp1kv7LBgz6AayNdabqxQ8xDBBiJH7MuKyXTh2sFR9128l+8zXJcc7byUFXoPXzhHdaLnMd+ESfxabzPyDLEImIZuQUUuZf1bbhSGooGHi8J3pD947Z7S5pqFc4rswQFLVQpE7IHfvGTNYLriaDHiNnJwl2rxzYlZh0GiyGzBkELIImYRsLkm3G7B5Ehgik0Dz5BE7LBg76CpSPTpNOCYkJxf3KJgTCWfIch9BkbCVDHOF6Yb3sBO3QKo/yQpkxoTa3wkZhCwmhH+ILS9DIYEnT/mJbdG4waNowdhT3SzvJoX1ByCVFDalIwXwGryW7f7Cam0m/Gt2yB5kMK/C30UC9Edhb3wy8lyoHT+pGjPo9TmjB36T7KbhUOJEoeLOIeBnVNiEn2UpIv4gY5A1yBxkDzK4ZHyehV8dI9AyeYRcRLR+0vCdF40dPL5q9MBPSZX83ugLoCAIkwCD0Vv4a5IE/JBMbSCz4DPIGGQNMgfZy9pZf7oDiQZgomXjh9pILaEbGrYnspDoZueTjbJmjkF8AKuYDEa3iaZ33j8nYeevoR1/AcnUpSRbe+GMH7IGmWvIRqRftgYqjsRnTJD7Cn5MN1czceieZJecvmDsYLQn/ohuvB0spjibEN6YsnrMdPr/Cxi9IJPnWHEdl/3rhSpyrjSinp7LOdOv8gRZUDliN5CsdJDMfEyyczsCeyBLn4w4V5at9ovGF5fg9yKCicNszZOHy44JpCLORj2yScN3pS9yHGHGgrGDfkdf8BHSFp6n378evnDcS/Qg/qnBi5FLpvw78MCdK/2PPSD5H7tf4AEp/MQjUvTJR3OKyF8elQJ/elDydf3ddKDc62P0eX+Ugo8/lNY19OeH5c9RXbcGb7+xPnjNjPcD118+O3TVhe8EbrxqfujyaTP9N12zOHzZ1DesXEOXnf8f/41XLwhdOf2/gV9dMTd4zUXvBX552afBay/5KHjtxR/S35hFi/dFnTkqN7wYmTHx5cC9v4v1XHP3S6GM19xjUvTO3zTKf0P1N7H2IQOQBcgEZAMyAlmh3+8G2YEMQZaaJuUguCcf5kHrlJGyowJfBECHkneHnmVru2h8X/pCO/qmjelHD2P7Hpg8bPvYZedv77Tbr7U7HOtaHQ5Jgcfrk2LxNine1p47xNslfyAo2VV/Nx3I9xprkyLRmOTx+ekap9+Jq8/o6pOvXvp3OBKTfP6AFApH5fsJhsJSIBiW/P5gwOf1PVdbvfyC6vnzjq9etuyi2nlzj6xevvyautmfHWLlWjt3zg+qly+7rHZB1Y+qly2dUrNo4enVS5eMqlmyeCDh3OqlS8dJNtt2veaozLDRZuvjbmkZYnc6VnbPoV1yut3yfGS4nmLxQPDsEJ7j9LFdfxNrHzIAWYBMzJd7cibkBDID2Snq3T4dQqgj1As2w7+D08fa6GH0xLTRNt/bM23e9o6dHV7vc600Ca0uVwL0sx9x7Tmudx9r75Q8JHRdfzctuCVvMCSFiQQ8gZAUaeuQPzP1tV3y4H1ERD4S+lAsLn/nIBFJIAJE6ef4VncgOItwxfL6hulLGxoOWd7QcOWypqYDrFyXNzYeTNeL6Xo0XScSTiYMI5xNOIswqu6zT3rPUbkAa+2j923eSGxPh8fzgXr+7LTW8KwzXEub450rf9cpSbboXx+jv9m93rH2G4Qs1AvZKCuBz2S4fD4Zbr//EJqIxeqJoYmShSrXJBAhAXR6vRmTgIt28y7BNnONJ65h0nRkAogKAhDCHwhHZTLwhyIghy/tbs8/HB7vGcvr669YVld3AF2vIpi9HkK4mHA0YSLhZMIwwjmEnxNGE8p2nflCEVtdc6ON5vlamquN6rnzkPaFjSDDdTSb0J9gA3hYGNH2dhtNhM3l9Q0iEmhXT44bXYXaOnJOAhA0u1oDSQMtTqdkB2nF27JOACBC0jI20rWlsdX+QH1Ly2EgAiaA1MONTcZLm4zPfyzNsTsHm8xKwhAW/jSHNxi0eQNB28ezZ4Ghb6CJ+V49ST5Sk/PR/gpCmCkBNNrtEmkztKvkhADk97j9gTX075frmptvXVJbsz8J7pVMAEZrK2SjHd4WDEf6kbA/q50zPPcM1802wkOEvkwAmbC03w+GtvmCwV1pol7S2mghEoR8+AMgvBkRQGurfIVJkPAJZJ8AlM8gk8NFr72+uqHhuiU1MhEwAWhGKN5us8vapXcsraMv1fNFpmc2tMulhENY+LPlD/DCJ+D/AU1WtXqyYKNj0efeH9CWtj9ATQC4Or0+MmEC8iLLBQGIz/je4fHOpZ/Pg6Avq6sbwASQGB5fYlOhZ9Pf4fYs0G4qwcw3lS8JE1j4szVhpKqF43Fbi9NFpoBvBE3SSvWkkZmQDWdNan9AJD1/gJYAcAWgveSMALo/K0haxytNDseRBr6BiiKAYCgsm5V3/vNxm9Pj/R3NzxbtWopnvpaeIuzABJBlf4AnELBJkoSJ+w1N1sYsH9eY8weQsGWDAHCFownaQE4JIHHdQJ/1QaPd/ujSutoBGt9ARRGA3e2BPwla5Sm0bqI9HX9e+TlmuEaaCUez8OfIFIDqRiy9OwnPa728tvHcHw1CbcexXjYIANcmu4MEOdzTOZh9ApCvbn9gLb3vrrrm5tsWV1f3F0RQMQSAnR/apD8Y2oXWy+vaeQqkGV+i0j6/I8xQhJ8JIAdDZu/E0c0PicEbexwN+v15MQUgdCCcbBAArkq8QDieWwIQ181EYD763DHVDQ3XLqurO6hSCIAEnMxIB9bQL+wu97psrB3Mjcph+DJhFxb+HB/fBMNRmkgniAAe3NVZPr4xBQiiWX9AKgJQrtAsnL6ESeANhHJFAArJdJLKW9XscP6IBHxGuRMATpOgQXp8/sNo3up7Ov5w5h+3vgbCibkQ//YSfsLCnzdVLmhr71zTx+nx3kGTuFk9mRCYfBwN0n1syyYByCaBwyEvKkUTyBkBiCu9fy5pH8+SJnDUsvq6CeVIAD6sF0J8xartnB7PI73O/C3Gk8Q6OuX5QKSg2P03EH7Jqn9e/QFdRzmI4X4rB+e4ZkhgPf39BtpROrNFAN0mgUsW7lwTgHjfOvr8hxtb7dcura39abkRwMQH7rCRtgMN4DztCRJpkZbWCogfcwITMNStNbxD2IOFP+8eXTeOBUEGx9HP9h7HOSQUYOo8mAMLfKHQZFoQz9E9rMoGAajjBWAW5JoARMLSZrqGSFAurmlsHEMawdmlTgAil0T2GZG2tgfN0Ye9zvwtnB4pwo/3qbSGGOFMFv4C+QNIMGzNDjh2fJNoYj7vObmxfBDAVsJj0Xj7rrTQfkaL7B/aXSZdAlBOCeAPwMLLMQEk/kY0toJ+/0F9c8soIoGfkfCPKkUCkDVEfwBHx7vTz6OJ2B4lU2dDj2SfgPlkH1n4xRGwSsPcTPgtoQ8TQIGGJ5CIDwjH2/qS8N2nDuyQowTj7fkgga9x/OODgzIS3Z4W3Bl0L08REcQyJQDkECRCiF2yFpBrAlC0Dfp5MX2PP4AAcHZeSgvcQ/PgpjXhDUd2cni9T9A8fNvscG5pUj1LqPARk8fGsr9HCL8m/HwWYT8W/iJge9nDGwjsTRP7vxykdJqBh3Ay7QyyWULmR1+3z3+C0+N9iO7DlwkBkIYjYfHiqBDHVfkgAKFtrKNn+4+OlasPLCUHlz8as7XY7ZiHC+wu97fq1OwW8bPZmhLC2dvDtORMvyIcjY5WEeHl/6k2tTMfBUQEPiDsiwWBHQi255+fesZGQnx6Q0sLik20kmBvS5cAcAXgG8B3yjUBAPTzFvo+CwkjCdsXOxG4xHEfEeWRtA6a1YILtV35vviuqZx/0faOHkVhoFFGE3knnOlXdEc98AcEw8If4J1GzP9lvguIECAs9ymCgsCT2qYmG9nSiLa7ioT5x/UtLW/SPdWRgG9OhwBwxVFhInglIAtsjglA+W6rCQ8TDi5WEgjS83aTSUgawA40538zCvLBz9Cg8L2NjozlRC16vgY+Jc70K0rbD04f5HiTHe5InPdu7T4azE8BEcJawiRlccCBRjhUlZF3JQn3cUQESG2eSz+vs0wAys8ExK+rowdzSADKzreIMKoYtYFoNC5OhrwT6fp1qhBxJc7Cr9EGEunfAamnw7Ar4ewLzvQr4uGW/QGyB3g/u9vzcSEKiIiEkOO0BKAk4AgiuILMgqPqmpsfp3ub2dhqX2uZABSzgF6H3QrIMQEoWEN4kDCgmEgAWmA03o4CHy+bNf+6tYFglzaA3/nFWb9OkhBn+hX7mLNooY0mD7bgqbQT+LOc620W/yHsiQAULQFoiYDMhEMI97S63E+T4IdJ8LdZIQDlpKDFmVjwEGzDWgPZIQDF3IEX/Gw1CRRSKJAxSjZ6X6fH86jVIJ+ENtDTN4DwYJSeUyUJcaZfqfgDECPQ1NoCdXAGCf43+S4gQthIuB33Y0QAmusV1Q0NB9Q0Nt5K93lvQ2trPQn1RisEoEQRJo6q4rkmAHUgzE3qSLhCCQcIQHYCBgIDaAP4K32ftVbDu/Gd4fVXjvrwOxFQxpl+JWUKCH9AIBSBQ+gJEoxtOvZcrrGirXPlsCW1NQdbqNR7JTQDZOrRjn4DCfUsEu5vzBKAcgUJQHVNWYg0cwJQYuGh8ZxQaAFxonoUysj5ff3ouw0VWsomq9WgfV0nBe2c6VeqQ1VaHDvC7EIUECEsc/n8A0morVTqPZBwOb0HmsO0JrvjChL210nYVxG2mCEAxXzAkaFcdCSeUwJQ4CRcSOhXSCKQ60gSQrG4TQTqPCsiNtPVBiL0uxPpdyz8pTZQQcjhlv0BPyPBj+S7gAg85yRcn5GNf32Suny6BED4AWEqve94ROQ1tLRcSEL/OAl9mLA+JQGoiAC2rC4RZJcAgK+Eg3CfQpKA6m8jTPfxTHpDhGNxENsAJoASHPAFIH24vqUZpcSuIBL4Lt8FRGSvcjjylBBsywRA+IlIykHzj7PrmpouIK3gFoKdBPzzlATQlVdgl4UeR6I5JAAlRv5t5SSkECSg+rtHiijNTOZwuRLgxaNEjwbhE/CHwjvRzv9MjyjBPBUQIUT8ocg0k6aAEQEgOQdVfgfT55xU09gIjWAaEcDSFpcrZCXBCDYuKhPniAAUNBJGFyJZRkUA0wnf65xgxHV+r4f1hKvY9i95f4Bf+AT8B9ndnvn5LiAi1El7Q2vrbUtrawdkSABDCKcSxhERHFPd0HBJY6v9jPqWlndaXe6F9PMms8VHEE5sVH4sCwQAdBIuJWyXTyFSEcCjOvcUJQwSpxeRFPf/BmE3JoAyGB2r1sqRYkQE59I1nu8CIqK0+MsmTAGzBDCecBxhugg3voII5mgigufoe71Egr62R0yB3pW+PwKJ/OFwV2isnGyUPQJQAoeuzmfsvPg7ENyPde5nrkqozyC8K04ytK/zE05i4S8jfwDSh5fX1YtmkK713ckieTsa9NN9nJXCFLBKABcSDlOOEPFeMg8OSgQXue4iQfeSwH+XSiNAIJFy/JVlAgA+J1yvDiHOAwHAbq82SNraVaUl7Em4kRDUxHFcz+f+ZekP8Nt8Ibk09AvpVofJpIAIqdtPkpBenQsC0AYXkbnRn8jg1/QdZ5B2sJCunSTwW7UE0Ox09Kg9AG0AmkCWMym/Emq35VBabbRhquhD8fu9ULHJ4LjyIJ3POZXwmtj5HyPszsJflv6ArviAQ0nwl2a7gAgKTYSSVJklc6Ojye64J0nfvmwRQFdwEYiArteQun9eQ0vLG/R9m0nwv+smAKcmwMgpkyL6FWRZM/oGEZJWSUAlpLuJgKMjksUbiN9B23he5x7g/LvEgEx2JqD+wY4s/GU8Im2dSuvxIbTQO7JRQAQho9AinB6vkkCyzei1tLO+SQI5IE8EoM4/kLsGIzW5rrn5j/Sd/0cCv7JFQwBNItsQwHEpciiySAQggWvMng6ohLO/iMhbRQgRnkGAjvpzlM9S/XucqNikvYc6wo9SaRZMAGXsD0B8wKvvzUR8wI0kCBsyKSACJyLUZqVXAJqWkND8Sdi+erEBQX8ocoqBLyBnBKBNRKprbjqitqnpViKAp0jwG5QAoyZRfCRRiShhIsFZCrMgSw7TdsJwiwRwvTjCU39OmHA/4SgDAYYa/6HBPXxUzPUNeOTDHyC3Hg/tpk4hTRQQMX80CHUfwiHev5Xe/67L7z9uxeq1UFH/auQLiLS1P2LgC8g5AaiuB4vGIEfVNDZOJ9PkRhL6V0n4Y4TvFALQdmSGozAL5tIStQCmIAAcI/7dKNqSYBf+hQN1SABEs8Lgfe8Ic4IJoCL9AV6fEh9wBO1ytVYKiIgIP8nh9ii75NekTTxCmsU+Tk9XIU0srlqD90dI4O5bUtvLF5BPAlD3BpxAmgH6Agwl82AymQk3EQFU0ffy0ffbpCUCEKWcR08EmKZ5AAG80yQBABeLrLxkEYjLRNzB3qr3gTxuTRL486Ji8/OoNFOAzIBQLKa0Hh+pLumdrIBIIt++R8moMFKP/dF4P2SjOZqa5MWH+PFYR+dUgu7CpZ30A2GXFwMBqFuDnU33dWZ1Q8N4+p6H0ne7nAR+Jn3PNnVmpdo8QFQlAooskkGrogWYIICdhQPxSxPRe3NFBJ9SumsnwtM6JoRijvyECaBi/QGJ0uKbN29Dq7HblN0uWQGRRNkovxJNOJ80hrOaHa1yyDEIQFm4rS63rbHVfhAJerPY8bSfEya7+gQStiuLjACUzkCjGlpb5QIr/nB0RxL044kMbqJ/fyacp5u0ZIDEI78cVRiT02nlnHpjUoCDbqgFPwA8+xcRAibIBWnATYR7COcRxovahtrXfUsYwwRQ0UeDfqX1ODrIvGHmaDCRWRf4r9PnQ3ixXI/eRQSgHigJtrS29hAiAVSRrdGrrBNt77inCDWAHq3BkFWJICpUXsbpiTcY2o3Mp2OJEC6j5/UXQq1o1LpVTQYwE6Ad4HQFTlIQg9zfAFWNE/0HvicCnIwGLxaOAoGzDM74jfClEH49DQDa2UQmgAofchmxROvxY2jxNpksIPJxW+fKAYq6rx1KTUDs8GQGTBFHYFotwEv29v0qX0DREYAyUG0J1Y6h6ZC2JBOCIId9SdBPpn9fjwArQQhhen6r1ScsGmyl1yyi9x2OzzEzNCQA/8pbVnP9dYDEoOOZACp80G4ktx5vdjrhDxhHi3NNVwGRcDSZI+tZdWipHgGIs/cBtNMt1zsR8AZCc4gk+hc7AeiZT75QSNagQAiogRgjNZ1+vy8J9UGEk0jAL6Lr7fQc7wWIHO4m/IGe8TVkRv1g1pxFtkAkoifgumfymt/1F89/YwYE8IQSosyDnYJy6/F4+8rtaEH/QWk9nqK3ALzLt+kluwgCgHBevaSmZgCZAg/Qjt+o41SMhaLxY4kEIJQHCWE+AhWBCPDMjyGcRRgILz3hNHjtBQH8QvkbgjysXEEAlxJ+SJhMOIUwgnAuHIHi75p6dlDjQQCIsVA0BGhV2N1xRSJWAp7E79GxlzSuQDQiE4nO7n6GCNntm4IEdhexAOvS6Ov4P67xz6OXP8CVaD2+Fy3U//YsINKRLOPtfO1CFQSwt9i994BnnQhgqqgvr81Rv115HeFMwj6EkwQhHC80gqMIxwit4gQRTXiK+m+ormeZ+PdehNMJ/YWmAUI4lnCkIKDj89UcVPXszhC1BPCM3CKlN1XU3k6CBDYk6dfwKaFeOAaRAXhLsZU251EkA9570Xr8eNq1HCYLiHjVraJVfQFk1DQ2yvayiIP/i877WwiHt69YZatuaOjx3kIjjwSA8/h/6TwbF+EKdW6+DvB/T4p4AD0CGCniA/qrC3yy8PPo7Q/oaj2OJpPeyUQCX6hLbichgYXqyDKtIC1ctkxZcIfrpKpCC/gNnIkwQyqUAPY1OC2RhIr/tjjS62dAAnuLfAG9PIx7Odafh+nR1Xo8Jrcev1854jLRcOI1kYpqlKWmYKKOKYB4gcMqcXGqNIAXUtju6Mz7D0EEO+kI9RHChNC+71MlxZcHDwv+ALn1+D5EAu93FRBJfjSIAJQHjFJeVQu1n/BAa7WAmyqYAGzC3p9nstLQ6yLjb4C67BjhDp3XNwn1nxc2D/OjrrVJaT1+IpkAHpMFRL4WNqstBQkcLqrOarPUdq1gArAJLeifJgt3fiuEG36VyYSfCzOgV2HWVGHHPHjo+gOApkTr8ekk/F/JUYKelAVEYkqYq5YENIt9qCq0dZPweverxIWq49T7tYjVN3u0t06YVXqOQJwoHMAEwMO6P0BpNRaJ9XN4vI8qCTEmCojUK1FmSUigjzj6ulObyVaJQ0MCeDbDDGx6q/g3Z/3xyNwf4A/0d7g9n1goIPI+YX8TTsGK8FCb/c6a36M6b1WGBUgGseefR0Zj5gdvK63HTyNTIGCygMhWURhkZ7MkUCE7/E6ie9Bxeuf7Os/mSFHAY5sFwf9epBxPy3dvAh5l6g9AqGtjazP8AZcorcdN9BZYL7z7GS1ChCp7A6GESRIIyLUNkcNQggQAMnyE0CGah7wrvPm7pNAQDhAJQMnqCzwh6gU+IAT/B3zuzyNrQ9N6/EkzBUQEVilpp+ksxkR4csDWaG8FEe3pD4d3hjbS3rlKJqYSI4ARoky49uTkTcIQdVVeg3P+qiTRmD/kAp88cuwP6CotfgAJ4ZxUBUQ0Ia2nWV2ULtHf0BeK7EiaB3LwFxD+Qz+fiESahuamUiOAa5Ok8SJs9yWR87+9gTCfLEKn9cytX7PQ88j5WP/tJqXV2Fl0jVroLTDPSrSfIvz+cHQHpNW2utzfJmr2BxCL8BmZHvsRSmaxi+99oomqPjANniKcog6qUmGKQcnvV5TX8+CRW38A2eS1zXKg0FUklOsSBURM9RZAwsseqUigt/C7ZOFHU0/xN3DefXc+++5l0QmIzr1tJj34OMKbqsne28PAFJgn2n3xIuWRY39Aj9bj3mdlU8DllktepVjUG4Xg9jMS3GTCrxMSO7lU1F7NLj5alPQ2G+RTK5J6RgtfQY1B04/9mAB45MkfkIgPIDI4mAR0oYkCIuo6dRfrCa6e8MuOxlDYSLtwid52pUgCp4gqvlbO9b8VEX9bkjX/5MEjL6NtxSrFH3CeKJ2dqoCIurPNQLVAGAp/MJTKtJhTStVtdGL/XxWh0Bk1X1U7AXnwyMtQWo0tqq6GP+CXJLDfmyggogBq7LFYsDjTT1P4FfxNSZEtMgE3U98PKdQP6RVOtYD5ZroN8eCRfX+Av0fr8RdNFhBRgEIX+wUjMVsg0tPmT6L2G6XInltkBLCviPY7QNvIUwc7iiPClRYFf5NwCJ7Kws+jgP6ArviAw0l4lyWOBn1mGmpuISF/noT9GCKP33Y7/MJWO+3gVODqQguASqAPErkQq0WU3sMirr9vEhLoI3wjq5J8zzrR+vtVEfV3mZLpxwTAo2ADKjwZ9Urr8aEkxJ0mCoh0kUA4Fo+5ff71iCfASUIaPfc2CmEoFgK4UsdRFxfn+6cnKe21nfgeawy+5yfCZOinKQTCws+jOPwBGE6P92Y0xpB7CyQvINKj7ViazTYV7/jYIiKAh5Lca4fYxc82CPTZTmgzXxjEBhzHgs+jOP0BSquxROvxV00WEMkG1iihxkVCAJeYaNqxSgRGoWrvPhqh7ivKfW/RiQmYxELPo2iHs6v1uO8o0gDqEkeDgUx2dzOIiTJjxUIAe4vQXDPtuxDWu5jwexHrv6uqbFpYx9S5nAmAR1H7AxKtx50ggVFEAqtMFhDJBI3FEgWnIoH9RJmzry18j07hPIQJ8aBOV18QyvVMADyK3B+QKC3+5VffovU4vPubECUYisVzRQBFU/pao8rvIDz7gSx9TxT6uIAJgEdp+AP8Xa3H/2OygEi6eLmYCorqOPbg8FuWhe8ZUPL+efAo+qFqPX4smQLNJguIpINHi9EjriGBY0QFoHTbem8RiVTbMQHwKA1/QDCUaD3ucIAIJhAJrE30FohlmwBuKdYjMQ0J7C8CeKy29f5KxBDszUd/PErLHyBajcXaOrZzer13kxawxWQBEbNAZ9yLilkwdNp6P2OQ0acc9S0Q+f0fiSjCkdq6gTx4lMxIHAt2tR5/x0IBEbO749ASSwXeR8QA6FX6/U4UDdnNqCswDx4lN3AsKFqNnUBmgLPVXAERM0ACzQnFmAmY4v8HJKn0+zALPo/y8geEwurW41PRetxkAZFUQEXcA0s0FRjp0E6Dpipc3INHeQ2l9XgoFt/e4fE+hNbjbp+pAiLJMLdYauGpUntRtutMoeqnSgX+o0E/vwFMADzK0B/gV2r970sawAdKya8MCOClYokBUAn1YMIiUfTkr8JJeZIo2rG3aBCykxDy13S+U0ikFPOC4VF+o6a5ARmDIIKTyRTwWSggood7i8VG1uzsPyMsUcXwI6w3SFhK+C9hpsjv36DznZYpCUI8eJSfP0C0Hm+0y/6AC0kL+NpkARG9ijhXFpOTTKebz+sGbbuT4UF2/PEob39AV+vxKFqP/wmtx00WENEeAQ4r8ghAFPD4jYV8AJgORzEB8KgQfwBKiQX2JzPgMysFRFTZc8eUQAQg8FPCn4SDb4NBazA0AvkJH/3xqKghWo+fQQQQIm1A9geY1ASaCf2LWVB0qv2ga++FhHsILwgn4W2EQUplYxZ+HpXjDwglWo83tLTAH3ApkYBcGBT9BYKkDaTwC7xZLOXALWoD6so/3NGXR2UPpA3DH+APhnciEnhQNBnZrDQexTFhJI6AoV5awV2lKDAs9Dx4aElAdAbyBsM7kjnwQzQeJdPgFSIDPxHBd4gaRP5AKBpTzIOvRa88Fh4ePMpDEwjIQM4A/AKhSAxkcCThEvr3n+1uz1Knx/sdagwSESwjjWB/tAjnwcPK+H8eyaTP4B2mbQAAAABJRU5ErkJggg==;container=0;" parent="9GvEFEXf6PaLgaHzI8d7-339" vertex="1">
          <mxGeometry x="7.7938405797101495" y="10.00368421052633" width="24.562410949440874" height="24.562410949440874" as="geometry" />
        </mxCell>
        <mxCell id="9GvEFEXf6PaLgaHzI8d7-224" value="&lt;font style=&quot;font-size: 16px;&quot;&gt;MultiUtilities&lt;/font&gt;" style="text;html=1;align=center;verticalAlign=middle;resizable=0;points=[];autosize=1;strokeColor=none;fillColor=none;container=0;" parent="9GvEFEXf6PaLgaHzI8d7-339" vertex="1">
          <mxGeometry x="167.0088288214381" y="6.279999999999973" width="110" height="30" as="geometry" />
        </mxCell>
        <mxCell id="9GvEFEXf6PaLgaHzI8d7-225" value="" style="group;fillColor=#d0cee2;strokeColor=#56517e;container=0;" parent="9GvEFEXf6PaLgaHzI8d7-339" vertex="1" connectable="0">
          <mxGeometry y="40" width="439" height="290" as="geometry" />
        </mxCell>
        <mxCell id="9GvEFEXf6PaLgaHzI8d7-236" value="" style="rounded=1;whiteSpace=wrap;html=1;container=0;" parent="9GvEFEXf6PaLgaHzI8d7-339" vertex="1">
          <mxGeometry x="348.8045869565217" y="40" width="90.19541304347823" height="30" as="geometry" />
        </mxCell>
        <mxCell id="9GvEFEXf6PaLgaHzI8d7-237" value="&lt;font style=&quot;font-size: 10px;&quot;&gt;Multiconversor de unidades&lt;/font&gt;" style="rounded=1;whiteSpace=wrap;html=1;container=0;" parent="9GvEFEXf6PaLgaHzI8d7-339" vertex="1">
          <mxGeometry y="40" width="87.19876086956518" height="30" as="geometry" />
        </mxCell>
        <mxCell id="9GvEFEXf6PaLgaHzI8d7-238" value="Calculadora" style="rounded=1;whiteSpace=wrap;html=1;container=0;" parent="9GvEFEXf6PaLgaHzI8d7-339" vertex="1">
          <mxGeometry x="174.4070652173914" y="40" width="87.19876086956518" height="30" as="geometry" />
        </mxCell>
        <mxCell id="9GvEFEXf6PaLgaHzI8d7-239" value="Conversor de archivos" style="rounded=1;whiteSpace=wrap;html=1;container=0;" parent="9GvEFEXf6PaLgaHzI8d7-339" vertex="1">
          <mxGeometry x="86.82101668351868" y="40" width="87.19876086956518" height="30" as="geometry" />
        </mxCell>
        <mxCell id="9GvEFEXf6PaLgaHzI8d7-240" value="Traductor" style="rounded=1;whiteSpace=wrap;html=1;container=0;fillColor=#d0cee2;strokeColor=#56517e;" parent="9GvEFEXf6PaLgaHzI8d7-339" vertex="1">
          <mxGeometry x="261.60649191102107" y="40" width="87.19876086956518" height="30" as="geometry" />
        </mxCell>
        <mxCell id="9GvEFEXf6PaLgaHzI8d7-269" value="" style="rounded=0;whiteSpace=wrap;html=1;" parent="9GvEFEXf6PaLgaHzI8d7-339" vertex="1">
          <mxGeometry x="32.360000000000014" y="123.25" width="170" height="149" as="geometry" />
        </mxCell>
        <mxCell id="9GvEFEXf6PaLgaHzI8d7-293" value="" style="group" parent="9GvEFEXf6PaLgaHzI8d7-339" vertex="1" connectable="0">
          <mxGeometry x="32.360000000000014" y="87.75" width="170" height="25" as="geometry" />
        </mxCell>
        <mxCell id="9GvEFEXf6PaLgaHzI8d7-294" value="De" style="rounded=0;whiteSpace=wrap;html=1;container=0;" parent="9GvEFEXf6PaLgaHzI8d7-293" vertex="1">
          <mxGeometry width="170" height="25" as="geometry" />
        </mxCell>
        <mxCell id="9GvEFEXf6PaLgaHzI8d7-295" value="" style="triangle;whiteSpace=wrap;html=1;rotation=90;container=0;" parent="9GvEFEXf6PaLgaHzI8d7-293" vertex="1">
          <mxGeometry x="150" y="5.859999999999999" width="6.69" height="13.28" as="geometry" />
        </mxCell>
        <mxCell id="9GvEFEXf6PaLgaHzI8d7-338" value="Traducir" style="rounded=1;whiteSpace=wrap;html=1;container=0;" parent="9GvEFEXf6PaLgaHzI8d7-339" vertex="1">
          <mxGeometry x="160.47000000000003" y="290" width="123.07" height="30" as="geometry" />
        </mxCell>
        <mxCell id="9GvEFEXf6PaLgaHzI8d7-316" value="" style="rounded=0;whiteSpace=wrap;html=1;" parent="9GvEFEXf6PaLgaHzI8d7-339" vertex="1">
          <mxGeometry x="240" y="123.25" width="170" height="149" as="geometry" />
        </mxCell>
        <mxCell id="9GvEFEXf6PaLgaHzI8d7-296" value="" style="group" parent="9GvEFEXf6PaLgaHzI8d7-339" vertex="1" connectable="0">
          <mxGeometry x="240" y="87.75" width="170" height="25" as="geometry" />
        </mxCell>
        <mxCell id="9GvEFEXf6PaLgaHzI8d7-297" value="A" style="rounded=0;whiteSpace=wrap;html=1;container=0;" parent="9GvEFEXf6PaLgaHzI8d7-296" vertex="1">
          <mxGeometry width="170" height="25" as="geometry" />
        </mxCell>
        <mxCell id="9GvEFEXf6PaLgaHzI8d7-298" value="" style="triangle;whiteSpace=wrap;html=1;rotation=90;container=0;" parent="9GvEFEXf6PaLgaHzI8d7-296" vertex="1">
          <mxGeometry x="150" y="5.859999999999999" width="6.69" height="13.28" as="geometry" />
        </mxCell>
      </root>
    </mxGraphModel>
  </diagram>
</mxfile>
